<svg width="20" height="20" viewBox="0 0 20 20" fill="none" xmlns="http://www.w3.org/2000/svg">
<path d="M0 1.66667C0 1.22464 0.131696 0.800716 0.366117 0.488156C0.600537 0.175595 0.918479 0 1.25 0H18.75C19.0815 0 19.3995 0.175595 19.6339 0.488156C19.8683 0.800716 20 1.22464 20 1.66667C20 2.10869 19.8683 2.53262 19.6339 2.84518C19.3995 3.15774 19.0815 3.33333 18.75 3.33333H1.25C0.918479 3.33333 0.600537 3.15774 0.366117 2.84518C0.131696 2.53262 0 2.10869 0 1.66667ZM0 10C0 9.55797 0.131696 9.13405 0.366117 8.82149C0.600537 8.50893 0.918479 8.33333 1.25 8.33333H18.75C19.0815 8.33333 19.3995 8.50893 19.6339 8.82149C19.8683 9.13405 20 9.55797 20 10C20 10.442 19.8683 10.866 19.6339 11.1785C19.3995 11.4911 19.0815 11.6667 18.75 11.6667H1.25C0.918479 11.6667 0.600537 11.4911 0.366117 11.1785C0.131696 10.866 0 10.442 0 10ZM0 18.3333C0 17.8913 0.131696 17.4674 0.366117 17.1548C0.600537 16.8423 0.918479 16.6667 1.25 16.6667H18.75C19.0815 16.6667 19.3995 16.8423 19.6339 17.1548C19.8683 17.4674 20 17.8913 20 18.3333C20 18.7754 19.8683 19.1993 19.6339 19.5118C19.3995 19.8244 19.0815 20 18.75 20H1.25C0.918479 20 0.600537 19.8244 0.366117 19.5118C0.131696 19.1993 0 18.7754 0 18.3333Z" fill="white"/>
</svg>
