<svg width="84" height="83" viewBox="0 0 84 83" fill="none" xmlns="http://www.w3.org/2000/svg">
<path d="M26.6435 32.5659H20.57C20.4009 32.5659 20.2335 32.5325 20.0774 32.4679C19.9212 32.4031 19.7792 32.3083 19.6598 32.1887C19.5403 32.0691 19.4457 31.9272 19.3811 31.7711C19.3165 31.6149 19.2834 31.4475 19.2837 31.2786V16.683C19.2837 16.5142 19.317 16.347 19.3816 16.1911C19.4463 16.0352 19.541 15.8935 19.6605 15.7742C19.7799 15.6548 19.9217 15.5602 20.0778 15.4957C20.2338 15.4312 20.4011 15.398 20.57 15.3982H30.5971C30.7663 15.3976 30.9339 15.4305 31.0904 15.4947C31.2469 15.559 31.3891 15.6536 31.509 15.7729C31.6289 15.8923 31.724 16.0341 31.789 16.1902C31.8539 16.3464 31.8875 16.5139 31.8875 16.683V20.6197" stroke="#CCDDE2" stroke-width="0.3" stroke-miterlimit="10"/>
<path d="M30.2923 17.1667H21.0059C20.6505 17.1667 20.3624 17.4547 20.3624 17.81V19.543C20.3624 19.8982 20.6505 20.1863 21.0059 20.1863H30.2923C30.6477 20.1863 30.9359 19.8982 30.9359 19.543V17.81C30.9359 17.4547 30.6477 17.1667 30.2923 17.1667Z" stroke="#CCDDE2" stroke-width="0.3" stroke-miterlimit="10"/>
<path d="M25.5838 18.4384C25.7562 18.4384 25.8959 18.2986 25.8959 18.1263C25.8959 17.9539 25.7562 17.8142 25.5838 17.8142C25.4114 17.8142 25.2717 17.9539 25.2717 18.1263C25.2717 18.2986 25.4114 18.4384 25.5838 18.4384Z" fill="#D7E8F0"/>
<path d="M24.7112 19.5397C24.7039 19.4208 24.7209 19.3016 24.7614 19.1894C24.8019 19.0773 24.8649 18.9746 24.9466 18.8878C25.0282 18.801 25.1268 18.7318 25.2362 18.6845C25.3456 18.6372 25.4635 18.6128 25.5827 18.6128C25.7019 18.6128 25.8198 18.6372 25.9292 18.6845C26.0386 18.7318 26.1372 18.801 26.2189 18.8878C26.3005 18.9746 26.3635 19.0773 26.404 19.1894C26.4445 19.3016 26.4616 19.4208 26.4542 19.5397H24.7112Z" fill="#D7E8F0"/>
<path d="M25.6479 23.4225C25.315 23.4225 24.9895 23.5212 24.7128 23.706C24.4359 23.891 24.2202 24.1537 24.0928 24.4611C23.9654 24.7685 23.932 25.1068 23.997 25.4332C24.062 25.7595 24.2222 26.0593 24.4577 26.2946C24.6931 26.5299 24.9929 26.6901 25.3195 26.755C25.646 26.82 25.9844 26.7866 26.292 26.6593C26.5996 26.5319 26.8625 26.3163 27.0474 26.0397C27.2324 25.7629 27.3311 25.4377 27.3311 25.1049C27.3312 24.884 27.2878 24.6652 27.2032 24.461C27.1186 24.2568 26.9946 24.0713 26.8383 23.915C26.682 23.7588 26.4964 23.6349 26.2922 23.5504C26.0879 23.4658 25.8689 23.4224 25.6479 23.4225ZM25.6479 26.3806C25.5896 26.371 25.5367 26.341 25.4985 26.2961C25.4603 26.2511 25.4393 26.194 25.4393 26.135C25.4393 26.0759 25.4603 26.0188 25.4985 25.9739C25.5367 25.9289 25.5896 25.8989 25.6479 25.8893C25.6835 25.8834 25.72 25.8854 25.7549 25.895C25.7897 25.9046 25.822 25.9217 25.8496 25.9451C25.8772 25.9685 25.8993 25.9976 25.9145 26.0304C25.9297 26.0632 25.9375 26.0989 25.9375 26.135C25.9375 26.1711 25.9297 26.2068 25.9145 26.2396C25.8993 26.2724 25.8772 26.3015 25.8496 26.3249C25.822 26.3482 25.7897 26.3653 25.7549 26.3749C25.72 26.3846 25.6835 26.3865 25.6479 26.3806ZM25.9593 24.4891C25.9192 24.8612 25.8507 25.2297 25.7542 25.5913C25.744 25.6106 25.7288 25.6267 25.7102 25.638C25.6915 25.6493 25.6701 25.6553 25.6483 25.6553C25.6265 25.6553 25.6051 25.6493 25.5864 25.638C25.5677 25.6267 25.5526 25.6106 25.5424 25.5913C25.4656 25.3247 25.4067 25.0532 25.3664 24.7787C25.3323 24.5795 25.2161 24.2558 25.3273 24.0616C25.4253 23.8881 25.7027 23.8674 25.863 23.9579C26.0598 24.0699 25.9825 24.3073 25.9593 24.4891Z" fill="#D7E8F0"/>
<path d="M21.4194 21.5343H29.6413" stroke="#CCDDE2" stroke-width="0.3" stroke-miterlimit="10"/>
<path d="M21.4194 22.3435H29.6413" stroke="#CCDDE2" stroke-width="0.3" stroke-miterlimit="10"/>
<path d="M21.4194 27.5518H29.6413" stroke="#CCDDE2" stroke-width="0.3" stroke-miterlimit="10"/>
<path d="M23.3294 28.3173H27.7314" stroke="#CCDDE2" stroke-width="0.3" stroke-miterlimit="10"/>
<path d="M72.2128 29.4468H59.6097C58.5604 29.4468 57.7098 30.2971 57.7098 31.3459V52.8603C57.7098 53.9092 58.5604 54.7593 59.6097 54.7593H72.2128C73.2621 54.7593 74.1128 53.9092 74.1128 52.8603V31.3459C74.1128 30.2971 73.2621 29.4468 72.2128 29.4468Z" fill="#3FBDF1"/>
<path d="M54.9852 29.4468H46.2095C45.1602 29.4468 44.3096 30.2971 44.3096 31.3459V52.8603C44.3096 53.9092 45.1602 54.7593 46.2095 54.7593H54.9852C56.0345 54.7593 56.8852 53.9092 56.8852 52.8603V31.3459C56.8852 30.2971 56.0345 29.4468 54.9852 29.4468Z" fill="#3FBDF1"/>
<path d="M45.0362 67.631H74.0223C74.5231 67.6307 75.0034 67.4319 75.3575 67.078C75.7118 66.724 75.911 66.2441 75.9114 65.7436V29.7805C75.9115 29.5325 75.8628 29.2869 75.7678 29.0577C75.6729 28.8286 75.5338 28.6204 75.3584 28.445C75.1829 28.2696 74.9746 28.1306 74.7454 28.0358C74.5161 27.9409 74.2704 27.8921 74.0223 27.8922H54.3234L49.1749 27.923H49.1599L46.5566 28.0242H46.5483L45.8632 28.0508H45.8026L45.752 28.4583L45.6523 29.2161C45.6534 29.2175 45.654 29.2192 45.654 29.2211C45.654 29.2228 45.6534 29.2246 45.6523 29.2261L44.8418 30.4262L44.6758 30.6694L44.2182 33.596V33.6101C44.2082 33.606 44.1983 33.6002 44.1858 33.5935C44.1759 33.5877 44.1664 33.5811 44.1576 33.5736C44.0036 33.4577 43.888 33.2984 43.8254 33.1163C43.6735 32.7311 43.6369 32.2207 43.6353 31.8157L43.5356 34.0392V34.0475L43.3969 37.0181L43.3629 37.8157C43.4277 37.7004 43.5207 37.5344 43.6286 37.336L43.284 39.5371L43.2126 41.1233L43.0349 45.1313L43.0282 45.2807V45.338L42.9817 46.3141V46.3365C42.9817 46.3365 42.8489 49.2008 42.8489 49.205L42.8364 49.4706L42.6828 50.6301L42.2344 53.8746V65.7436C42.2345 66.0817 42.3256 66.4136 42.4984 66.7044C42.6711 66.9951 42.919 67.2341 43.2159 67.3961C43.7781 67.7007 44.4001 67.66 45.0179 67.6393C45.184 67.6343 45.3501 67.6268 45.5161 67.6177" fill="#3FBDF1"/>
<path d="M43.9359 67.0119C43.9243 67.0119 43.9118 67.0011 43.8977 66.9969C43.7398 66.9404 43.5906 66.8621 43.4542 66.7645C43.215 66.5946 43.0201 66.3698 42.8858 66.1089C42.7516 65.8481 42.682 65.5589 42.6828 65.2656V49.4258L42.2344 49.6408L42.2061 49.6549L42.1455 49.5047L41.8457 48.7577L41.7627 48.551L41.0045 46.6594C41.0045 46.6594 42.4445 40.8362 43.3969 37.0182C43.7457 35.6163 44.0297 34.4842 44.1493 34.0086C44.1858 33.8667 44.2074 33.7837 44.2116 33.7695C44.2119 33.7662 44.2119 33.7629 44.2116 33.7596C44.2141 33.7313 44.2097 33.7029 44.1991 33.6766C44.1873 33.646 44.1731 33.6162 44.1568 33.5878C44.1549 33.5819 44.152 33.5762 44.1485 33.5712C44.0497 33.4033 43.9387 33.2429 43.8163 33.0914L43.6585 31.1384L43.6843 31.1185L43.8038 31.0231L44.621 30.3757L44.8111 29.8727L45.184 28.8949L45.3501 28.4592H45.7453H45.8466H46.5616L49.204 28.4509H49.4307L54.4438 28.421H73.6253C73.8669 28.421 74.106 28.4686 74.3292 28.561C74.5523 28.6535 74.755 28.789 74.9256 28.9599C75.0963 29.1307 75.2317 29.3334 75.3238 29.5566C75.416 29.7797 75.4633 30.0189 75.463 30.2603V65.2656C75.4633 65.507 75.416 65.746 75.3238 65.9692C75.2317 66.1923 75.0963 66.3951 74.9256 66.566C74.755 66.7368 74.5523 66.8723 74.3292 66.9647C74.106 67.0572 73.8669 67.1048 73.6253 67.1048H45.071" fill="#3FBDF1"/>
<path d="M45.8549 27.9412L46.5342 27.9371H46.5483L49.1558 27.923H49.174L54.3226 27.8922H74.0222C74.5232 27.8924 75.0036 28.0914 75.3579 28.4455C75.7121 28.7996 75.9112 29.2798 75.9114 29.7805V65.7436C75.911 66.2441 75.7118 66.724 75.3575 67.078C75.0034 67.4319 74.5231 67.6307 74.0222 67.631H44.072C43.584 67.631 43.1159 67.4372 42.7709 67.0922C42.4258 66.7473 42.2319 66.2795 42.2319 65.7917V61.865" stroke="black" stroke-width="0.3" stroke-miterlimit="10"/>
<path d="M72.2128 56.6183H46.2095C45.1602 56.6183 44.3096 57.4685 44.3096 58.5173V63.797C44.3096 64.8458 45.1602 65.696 46.2095 65.696H72.2128C73.2621 65.696 74.1128 64.8458 74.1128 63.797V58.5173C74.1128 57.4685 73.2621 56.6183 72.2128 56.6183Z" fill="white"/>
<path d="M63.6156 58.6405H46.8182C46.4628 58.6405 46.1746 58.9285 46.1746 59.2838V63.1615C46.1746 63.5168 46.4628 63.8048 46.8182 63.8048H63.6156C63.971 63.8048 64.2592 63.5168 64.2592 63.1615V59.2838C64.2592 58.9285 63.971 58.6405 63.6156 58.6405Z" fill="#3FBDF1"/>
<path d="M60.6018 60.8157C60.8971 60.8157 61.1363 60.5765 61.1363 60.2812C61.1363 59.986 60.8971 59.7467 60.6018 59.7467C60.3066 59.7467 60.0673 59.986 60.0673 60.2812C60.0673 60.5765 60.3066 60.8157 60.6018 60.8157Z" fill="white"/>
<path d="M59.109 62.698C59.109 62.3019 59.2665 61.9218 59.5468 61.6416C59.8271 61.3615 60.2073 61.204 60.6037 61.204C61.0002 61.204 61.3803 61.3615 61.6607 61.6416C61.941 61.9218 62.0985 62.3019 62.0985 62.698H59.109Z" fill="white"/>
<path d="M68.8214 58.6411C68.3007 58.6406 67.7914 58.7945 67.3582 59.0834C66.9249 59.3722 66.5871 59.783 66.3876 60.2638C66.188 60.7445 66.1356 61.2737 66.2369 61.7843C66.3383 62.2949 66.5889 62.7639 66.957 63.1321C67.3251 63.5003 67.7942 63.751 68.305 63.8526C68.8157 63.9543 69.3452 63.9022 69.8263 63.703C70.3074 63.5039 70.7186 63.1665 71.0079 62.7336C71.2972 62.3008 71.4515 61.7919 71.4513 61.2714C71.4514 60.9261 71.3835 60.5841 71.2513 60.265C71.1193 59.946 70.9256 59.6561 70.6814 59.4118C70.4371 59.1676 70.1472 58.9738 69.8281 58.8416C69.509 58.7094 69.1669 58.6412 68.8214 58.6411ZM68.8214 63.2667C68.7694 63.2691 68.7174 63.2609 68.6685 63.2427C68.6198 63.2245 68.5752 63.1965 68.5375 63.1606C68.4998 63.1246 68.4698 63.0814 68.4493 63.0335C68.4288 62.9856 68.4183 62.9341 68.4183 62.882C68.4183 62.8299 68.4288 62.7784 68.4493 62.7305C68.4698 62.6826 68.4998 62.6394 68.5375 62.6034C68.5752 62.5675 68.6198 62.5395 68.6685 62.5213C68.7174 62.503 68.7694 62.4948 68.8214 62.4973C68.9204 62.5019 69.0138 62.5444 69.0822 62.6161C69.1507 62.6877 69.1889 62.7829 69.1889 62.882C69.1889 62.981 69.1507 63.0762 69.0822 63.1479C69.0138 63.2196 68.9204 63.2621 68.8214 63.2667ZM69.3055 60.3078C69.2225 60.8788 69.1552 61.4781 68.985 62.0309C68.9468 62.1645 68.6952 62.1645 68.6528 62.0309C68.5322 61.6143 68.44 61.19 68.3772 60.761C68.324 60.4497 68.1421 59.9434 68.3165 59.6413C68.4702 59.3699 68.9036 59.3375 69.1528 59.4753C69.4633 59.6513 69.3388 60.0239 69.3055 60.3078Z" fill="#3FBDF1"/>
<path d="M71.6166 47.7449C71.489 48.8447 71.0335 49.8807 70.3093 50.7184C69.5851 51.5561 68.6257 52.1568 67.5556 52.4426C66.4854 52.7282 65.3541 52.6857 64.3084 52.3205C63.2628 51.9553 62.3512 51.2843 61.6919 50.3946C61.0327 49.5049 60.6564 48.4376 60.6117 47.3314C60.5671 46.2253 60.8564 45.1312 61.4418 44.1914C62.0273 43.2515 62.882 42.5094 63.8948 42.0612C64.9076 41.6131 66.0319 41.4797 67.1216 41.6784C67.1695 41.6877 67.215 41.7067 67.2553 41.7341C67.2956 41.7616 67.3299 41.7971 67.3559 41.8382C67.382 41.8795 67.3994 41.9256 67.4069 41.9738C67.4144 42.022 67.412 42.0712 67.3998 42.1183L67.291 42.5425L66.3161 46.3472C66.3006 46.4079 66.3012 46.4716 66.3181 46.5319C66.3349 46.5922 66.3674 46.6471 66.4122 46.6909C66.4569 46.7346 66.5124 46.7659 66.5731 46.7815C66.6338 46.7971 66.6975 46.7965 66.7579 46.7796L70.542 45.7222L71.0594 45.5778C71.1055 45.5648 71.1537 45.5613 71.2012 45.5673C71.2486 45.5734 71.2945 45.5889 71.3358 45.613C71.3772 45.637 71.4133 45.6692 71.4419 45.7075C71.4707 45.7458 71.4913 45.7895 71.5028 45.8359C71.6518 46.4608 71.6903 47.1069 71.6166 47.7449Z" fill="white"/>
<path d="M71.7469 43.824C71.7649 43.8703 71.7728 43.92 71.7703 43.9697C71.7678 44.0193 71.7549 44.0679 71.7324 44.1123C71.71 44.1566 71.6784 44.1958 71.6399 44.2271C71.6014 44.2586 71.5566 44.2815 71.5086 44.2946L71.1524 44.3942L68.0707 45.2549C68.0104 45.2717 67.9467 45.2724 67.886 45.2568C67.8253 45.2412 67.7698 45.2099 67.725 45.1661C67.6803 45.1223 67.6478 45.0674 67.631 45.0072C67.6141 44.9468 67.6134 44.8832 67.629 44.8225L68.4253 41.7249L68.5017 41.4278C68.5138 41.3806 68.5354 41.3362 68.5652 41.2977C68.5951 41.2592 68.6326 41.2274 68.6754 41.2039C68.7182 41.1806 68.7653 41.1663 68.8139 41.1619C68.8625 41.1576 68.9114 41.1634 68.9576 41.1788C69.5846 41.395 70.1579 41.743 70.639 42.1993C71.1202 42.6556 71.4979 43.2096 71.7469 43.824Z" fill="white"/>
<path d="M66.0537 34.3968C66.8921 34.3968 67.5717 33.7175 67.5717 32.8795C67.5717 32.0417 66.8921 31.3623 66.0537 31.3623C65.2153 31.3623 64.5357 32.0417 64.5357 32.8795C64.5357 33.7175 65.2153 34.3968 66.0537 34.3968Z" fill="#D7E8F0"/>
<path d="M71.6531 36.2327H60.6029V36.5365H71.6531V36.2327Z" fill="#D7E8F0"/>
<path d="M71.6531 37.3565H60.6029V37.6603H71.6531V37.3565Z" fill="#D7E8F0"/>
<path d="M71.6531 38.381H60.6029V38.6848H71.6531V38.381Z" fill="#D7E8F0"/>
<path d="M54.9504 42.579H46.2942V42.8828H54.9504V42.579Z" fill="#D7E8F0"/>
<path d="M54.9504 43.8049H46.2942V44.1087H54.9504V43.8049Z" fill="#D7E8F0"/>
<path d="M54.9504 45.0301H46.2942V45.3339H54.9504V45.0301Z" fill="#D7E8F0"/>
<path d="M54.9504 46.256H46.2942V46.5598H54.9504V46.256Z" fill="#D7E8F0"/>
<path d="M54.9504 47.4818H46.2942V47.7856H54.9504V47.4818Z" fill="#D7E8F0"/>
<path d="M45.1067 33.9472C45.1067 33.9472 47.7375 38.088 50.7352 39.3895C53.733 40.6909 54.6697 41.2661 55.8165 40.8005C56.9632 40.3348 59.1646 39.6825 60.7158 35.0735C62.267 30.4645 63.0061 28.0384 63.0609 26.9221C63.1157 25.8057 60.0316 26.7229 60.0316 26.7229C60.0316 26.7229 58.3708 31.6157 54.7319 33.7994L49.5494 28.3281L45.1067 33.9472Z" fill="white"/>
<path d="M42.0326 40.3108L44.1501 40.8852C44.1501 40.8852 41.6913 44.274 43.8777 47.8223C46.0642 51.3705 50.5666 58.5293 50.5666 58.5293L59.1846 72.2243L51.1247 71.1013L45.1067 64.5128L42.0342 61.4509L38.1837 49.4366L42.0326 40.3108Z" fill="white"/>
<path d="M7.45788 57.8238C7.64827 57.9267 7.86866 57.9599 8.08094 57.9176C8.29323 57.8753 8.48408 57.7602 8.62043 57.5922L11.7544 53.7518L14.283 50.5795L12.2128 49.4175C11.9984 49.2964 11.7446 49.2655 11.5073 49.3313C11.27 49.3971 11.0685 49.5544 10.9472 49.7686L7.08918 56.5414C7.02772 56.6495 6.98848 56.7687 6.97377 56.8921C6.95907 57.0155 6.96918 57.1407 7.00353 57.2601C7.03787 57.3796 7.09576 57.491 7.17379 57.5878C7.25181 57.6846 7.34839 57.7648 7.45788 57.8238Z" fill="#2E2E2E"/>
<path d="M55.1613 75.9385L57.7696 78.5032C57.9947 78.7251 58.298 78.8497 58.6141 78.8502H65.1369C65.3393 78.851 65.5374 78.7929 65.7073 78.6831C65.8772 78.5732 66.0114 78.4163 66.0936 78.2314C66.1757 78.0467 66.2023 77.8419 66.17 77.6423C66.1377 77.4427 66.048 77.2567 65.9117 77.1072C65.7402 76.9154 65.5033 76.7947 65.2474 76.7685L61.6293 76.3975L55.1613 75.9385Z" fill="#2E2E2E"/>
<path d="M31.342 43.8603C31.342 43.8603 36.3867 45.263 39.7498 45.6814C43.1129 46.0997 42.8771 44.7053 42.8771 44.7053L43.2882 42.944C44.3677 41.1861 44.9946 37.4461 44.9946 37.4461L45.4281 34.5203L46.0609 35.6334L48.1062 37.6926L48.1311 37.7125C48.0688 36.729 48.1161 35.347 48.3453 33.4646C48.8735 29.1071 50.6223 29.6126 50.6223 29.6126L50.3657 29.3312C49.1575 27.3218 45.3002 25.1978 44.0679 24.6898C42.8356 24.1819 43.3629 24.9015 43.5198 25.4368C43.6768 25.9722 43.2284 27.4786 41.4322 26.7117C39.636 25.9448 39.5455 24.2765 39.5455 24.2765H38.711C33.5915 24.8915 30.9882 27.6206 30.9882 27.6206C36.4265 28.9029 35.1784 33.5136 35.1784 33.5136L34.6852 33.9642C32.7545 35.6375 32.6199 37.251 32.7869 37.9233C32.9538 38.5956 34.1446 39.5003 36.2945 40.0249C38.4444 40.5495 38.8355 40.5503 39.3213 39.6215C39.8071 38.6928 40.3734 38.5782 41.1482 38.4388C41.923 38.2993 42.8721 38.8496 42.6554 39.2829C42.4386 39.7161 42.2817 39.3377 42.8215 40.508C43.3612 41.6783 43.1104 42.2734 41.6589 43.3515C40.2074 44.4297 33.7535 43.8246 33.7535 43.8246C30.6668 42.9714 31.342 43.8603 31.342 43.8603Z" fill="#2E2E2E"/>
<path d="M43.1412 24.3041V24.4809V24.5257C44.5841 24.8861 45.943 25.5238 47.1421 26.4032C47.3364 26.5451 47.5257 26.6896 47.7126 26.8414C47.7175 26.2314 47.6652 25.6189 47.4684 25.0412C47.309 24.5454 47.0086 24.1068 46.604 23.7787C46.2477 23.4949 45.8267 23.3131 45.4032 23.1488C44.9797 22.9844 44.5637 22.84 44.175 22.6184C43.8475 22.4394 43.5614 22.1933 43.3355 21.8963C43.2563 21.7889 43.2069 21.6625 43.1923 21.5299C43.1777 21.3972 43.1985 21.2631 43.2525 21.141C43.2143 21.1383 43.1766 21.1309 43.1404 21.1186L43.1412 24.3041Z" fill="#3FBDF1"/>
<path d="M43.1412 24.3041V24.4809V24.5257C44.5841 24.8861 45.943 25.5238 47.1421 26.4032C47.3364 26.5451 47.5257 26.6896 47.7126 26.8414C47.7175 26.2314 47.6652 25.6189 47.4684 25.0412C47.309 24.5454 47.0086 24.1068 46.604 23.7787C46.2477 23.4949 45.8267 23.3131 45.4032 23.1488C44.9797 22.9844 44.5637 22.84 44.175 22.6184C43.8475 22.4394 43.5614 22.1933 43.3355 21.8963C43.2563 21.7889 43.2069 21.6625 43.1923 21.5299C43.1777 21.3972 43.1985 21.2631 43.2525 21.141C43.2143 21.1383 43.1766 21.1309 43.1404 21.1186L43.1412 24.3041Z" fill="#3FBDF1"/>
<path d="M23.2057 38.0839C23.7478 38.4716 24.3505 38.767 24.9894 38.9579C25.2641 39.0425 25.5433 39.1123 25.8256 39.167C24.7103 36.5401 25.5449 33.0839 29.0642 29.3987C29.6667 28.7667 30.3083 28.1729 30.9849 27.6209C32.0785 26.732 33.0501 26.0696 34.1961 25.5368C34.7091 25.3001 35.236 25.0948 35.7738 24.9217C36.7275 24.6044 37.712 24.3882 38.711 24.2768C38.9377 24.2494 39.1619 24.2295 39.3886 24.2171C39.3333 23.8279 39.3442 23.4322 39.421 23.0468C39.6302 21.9885 39.9948 21.3801 40.6574 20.546C41.0726 20.0206 41.7212 18.7656 40.8567 18.3324C40.3112 18.0609 40.2613 17.5024 40.5179 17.1704C40.7347 16.8815 41.1731 16.7495 41.7137 17.0874C42.0874 17.3264 42.5308 17.3413 42.9593 17.2243C43.2921 17.0305 43.5806 16.7693 43.8063 16.4574C44.4341 15.5585 44.4565 14.1965 43.4742 13.5366C42.9386 13.1756 42.256 13.0884 41.6157 13.1581C41.3291 13.1896 41.0465 13.2513 40.7729 13.3424C40.7717 13.3418 40.7704 13.3416 40.7691 13.3416C40.7678 13.3416 40.7666 13.3418 40.7654 13.3424C39.6028 13.9674 38.7766 15.1228 38.378 16.425C38.1438 17.1944 37.8797 17.9564 37.5708 18.7034C37.3167 19.3159 37.1398 20.0604 36.5743 20.4787C36.338 20.6535 36.0697 20.7804 35.7846 20.8522C34.7159 21.5295 33.2336 21.1386 32.0652 20.9942C31.1311 20.8665 30.1801 20.962 29.29 21.273C28.2935 21.7769 27.4366 22.5811 26.7415 23.6269C25.5931 25.3575 26.8088 27.8525 24.8881 29.217C24.3068 29.6278 23.6424 29.8768 23.0072 30.1955C22.1004 30.6562 21.368 31.3111 21.0973 32.3195C20.5625 34.3538 21.5141 36.8563 23.2057 38.0839Z" fill="#3FBDF1"/>
<path d="M70.1692 78.85H24.7261" stroke="black" stroke-width="0.3" stroke-miterlimit="10"/>
<path d="M44.8078 15.6379C44.9245 15.8798 45.0243 16.1294 45.1066 16.3849C45.2261 16.7999 45.0966 17.0572 45.2784 17.4532C45.3407 17.5901 45.4303 17.8217 45.5274 18.0557C45.5548 18.001 45.5797 17.9561 45.5946 17.9213C46.3068 16.3351 45.3705 15.5707 44.9198 15.3093C44.8911 15.4216 44.8537 15.5315 44.8078 15.6379Z" fill="#3FBDF1"/>
<path d="M44.8078 15.6379C44.9245 15.8798 45.0243 16.1294 45.1066 16.3849C45.2261 16.7999 45.0966 17.0572 45.2784 17.4532C45.3407 17.5901 45.4303 17.8217 45.5274 18.0557C45.5548 18.001 45.5797 17.9561 45.5946 17.9213C46.3068 16.3351 45.3705 15.5707 44.9198 15.3093C44.8911 15.4216 44.8537 15.5315 44.8078 15.6379Z" fill="#3FBDF1"/>
<path d="M29.0201 42.3965C28.585 45.826 28.9371 51.7755 35.964 56.3272C37.2287 57.1464 38.3672 58.3034 39.4824 59.3036C42.5241 62.051 45.4177 64.9578 48.151 68.0119C49.8243 69.8662 51.5324 71.815 53.2289 73.6925C54.0986 74.6519 54.9778 75.6025 55.8663 76.5443C56.5206 77.2341 57.5587 78.8493 58.6108 78.8493H65.0763C65.6576 78.8493 66.1857 78.3737 66.1774 77.7902C66.1727 77.538 66.0772 77.2961 65.9084 77.1087C65.7369 76.917 65.5 76.7963 65.244 76.7701L61.626 76.3991L44.1451 48.6124C43.2433 47.1781 42.4436 44.8176 43.1412 43.2713C45.7985 37.3899 45.5701 31.6895 45.5701 31.6895" stroke="black" stroke-width="0.3" stroke-miterlimit="10"/>
<path d="M38.0707 58.1149C37.3084 60.7917 36.0778 63.5099 35.0613 65.2214C34.6931 65.8462 34.2075 66.3941 33.6314 66.8349C31.5487 68.4294 28.6049 68.2592 26.6078 66.5602L16.6754 58.11L11.7552 53.7516L8.62127 57.592C8.47312 57.7722 8.2627 57.8903 8.03164 57.923C7.80059 57.9557 7.56566 57.9007 7.37324 57.7688C7.18082 57.6368 7.04489 57.4374 6.9923 57.2102C6.93971 56.983 6.97428 56.7443 7.08917 56.5413L10.9481 49.7701C11.0694 49.5559 11.2708 49.3986 11.5082 49.3328C11.7454 49.267 11.9992 49.2979 12.2136 49.419L14.2838 50.581L26.1453 57.221C26.3426 57.3313 26.5633 57.3933 26.7893 57.4018C27.0153 57.4103 27.24 57.365 27.445 57.2697C27.6501 57.1744 27.8296 57.0318 27.9687 56.8537C28.1079 56.6755 28.2027 56.4669 28.2454 56.245L29.6504 48.8812" stroke="black" stroke-width="0.3" stroke-miterlimit="10"/>
<path d="M43.1412 20.6254V24.2774V24.4542V24.499C43.5173 25.0468 43.7067 25.827 43.3479 26.408C42.8671 27.1874 41.8059 27.0579 41.1332 26.6222C40.9353 26.4942 40.7463 26.3527 40.5677 26.1989C39.969 25.6789 39.5815 24.9579 39.4782 24.172C39.4229 23.7828 39.4339 23.3871 39.5106 23.0017C39.7216 21.9443 40.0853 21.3367 40.7488 20.5001C41.164 19.9772 41.8117 18.7206 40.9464 18.2873C39.9325 17.7818 40.635 16.3028 41.8034 17.0423C42.7102 17.6175 44.0131 16.9004 44.5512 16.1293C45.179 15.2304 45.2014 13.8684 44.219 13.2085C43.6834 12.8475 43.0008 12.7603 42.3606 12.83C40.41 13.0442 39.0215 14.5681 38.466 16.3808C38.2318 17.1502 37.9677 17.9121 37.6588 18.6591C37.4047 19.2717 37.2279 20.0162 36.6623 20.4345C35.5828 21.2388 34.0266 20.818 32.8084 20.6686C30.2724 20.3573 28.2271 21.4803 26.8295 23.5827C25.6811 25.3132 26.8968 27.8082 24.9761 29.1727C24.3948 29.5836 23.7305 29.8326 23.0952 30.1513C22.1884 30.612 21.456 31.2668 21.1894 32.2753C20.6513 34.3071 21.6046 36.8096 23.2945 38.0371C24.0693 38.5999 24.9761 38.936 25.9177 39.1203" stroke="black" stroke-width="0.3" stroke-miterlimit="10"/>
<path d="M48.1477 27.3145C48.1527 27.268 48.1543 27.2232 48.1568 27.1792C48.1992 26.3766 48.1942 25.5449 47.9326 24.7722C47.7721 24.277 47.4716 23.8388 47.0673 23.5106C46.7102 23.2276 46.2892 23.0441 45.8674 22.8798C45.4455 22.7155 45.027 22.5727 44.6392 22.3503C44.311 22.172 44.0246 21.9255 43.7997 21.6273C43.7209 21.5203 43.6716 21.3943 43.6571 21.262C43.6425 21.1299 43.6631 20.9962 43.7166 20.8745" stroke="black" stroke-width="0.3" stroke-miterlimit="10"/>
<path d="M42.3548 19.8021C42.6487 20.222 43.0473 20.6752 43.5497 20.8387C44.1999 21.0504 44.6375 20.4984 44.8709 19.9614C45.0104 19.6419 45.1067 19.3016 45.2197 18.9712C45.2562 18.8625 45.2786 18.8102 45.4032 18.8052C45.5277 18.8002 45.6589 18.8251 45.7868 18.8251C45.796 18.8249 45.8048 18.8222 45.8126 18.8175C45.8203 18.8128 45.8267 18.8061 45.831 18.798C45.8352 18.7899 45.8374 18.781 45.8371 18.7719C45.8367 18.7628 45.834 18.7539 45.8292 18.7463C45.6573 18.4848 45.4007 17.7719 45.2711 17.4864C45.0909 17.0904 45.2213 16.834 45.1001 16.4181C45.0175 16.1628 44.9183 15.9133 44.8028 15.6711" stroke="black" stroke-width="0.3" stroke-miterlimit="10"/>
<path d="M44.9946 14.9034C44.9946 14.9034 46.7667 15.5832 45.8512 17.6258C45.7947 17.7495 45.6561 18.0076 45.5906 18.1238" stroke="black" stroke-width="0.3" stroke-miterlimit="10"/>
<path d="M64.118 9.07945C64.118 9.07945 64.128 9.08443 64.1479 9.0919L64.118 9.07945Z" fill="#3FBDF1"/>
<path d="M44.8963 19.9025C44.7545 19.922 44.6104 19.889 44.491 19.8099C44.3717 19.7307 44.2854 19.6108 44.2481 19.4725" stroke="black" stroke-width="0.3" stroke-miterlimit="10"/>
<path d="M45.1959 17.167C44.8291 16.8682 44.4265 17.25 44.1808 17.5272" stroke="black" stroke-width="0.3" stroke-miterlimit="10"/>
<path d="M39.4807 24.1728C38.2498 24.2507 37.034 24.4869 35.8635 24.8758C33.9536 25.5016 32.6382 26.3092 31.0779 27.5749C30.4014 28.128 29.7599 28.7227 29.1572 29.3553C25.6346 33.0405 24.8017 36.4983 25.9186 39.1244C26.8262 41.2641 28.9188 42.5913 31.0629 43.2677C32.4655 43.7093 33.927 43.8994 35.3935 43.9417C37.1415 43.9915 38.9044 43.9251 40.625 43.5931C41.35 43.4537 42.1854 43.3391 42.618 42.666C43.0507 41.9929 43.0872 41.0848 42.7658 40.3636C42.4644 39.6921 41.6506 38.97 40.9149 39.4971C40.8333 39.5559 40.7662 39.6325 40.7185 39.7211C40.671 39.8097 40.6441 39.9079 40.64 40.0083" stroke="black" stroke-width="0.3" stroke-miterlimit="10"/>
<path d="M38.1513 28.6133C38.2426 31.3655 35.9092 32.9002 35.9092 32.9002C35.1352 33.5269 34.3829 34.2 33.7501 34.9711C33.3457 35.4632 32.9704 36.0144 32.7844 36.6311C32.6453 37.0516 32.6477 37.506 32.791 37.925C32.9495 38.3125 33.2115 38.649 33.5483 38.8978C34.1778 39.39 34.9434 39.6448 35.7024 39.8656C36.5387 40.1048 37.3905 40.2861 38.2517 40.4084C38.75 40.4798 38.9601 40.3254 39.1876 39.8946C39.3935 39.5045 39.5621 39.053 39.9433 38.7982C40.4714 38.4438 41.1806 38.3616 41.7918 38.5077C42.7343 38.7318 42.9751 39.4788 42.207 39.6298" stroke="black" stroke-width="0.3" stroke-miterlimit="10"/>
<path d="M37.5758 47.2858L23.2555 43.8272L19.8475 57.924L33.7709 61.3834L34.2177 61.1784L37.5758 47.2858Z" fill="white"/>
<path d="M30.9683 45.304C31.6475 40.5514 33.1198 39.3761 34.0781 39.1412L34.015 39.1064C31.1219 37.9809 29.1156 43.5494 28.6896 44.8516L30.9683 45.304Z" fill="#D7E8F0"/>
<path d="M30.9284 45.6806C31.6077 40.928 33.1199 39.3726 34.0781 39.141L34.015 39.1062C31.1219 37.9807 29.0326 43.8173 28.6049 45.1187L30.9284 45.6806Z" fill="#D7E8F0"/>
<path d="M34.015 39.1062C30.7432 37.8346 28.6049 45.1187 28.6049 45.1187L30.9301 45.6806C32.2811 38.3766 35.1801 39.7046 35.1801 39.7046C35.078 39.6739 34.015 39.1062 34.015 39.1062Z" stroke="black" stroke-width="0.3" stroke-miterlimit="10"/>
<path d="M23.096 44.4991L19.848 57.9285L31.1457 60.6583L34.3937 47.2289L23.096 44.4991Z" fill="#3FBDF1"/>
<path d="M23.2684 43.7882L19.8483 57.9291L31.744 60.8035L35.1641 46.6625L23.2684 43.7882Z" fill="white"/>
<path d="M23.3244 44.8638L20.3788 57.0426C20.2953 57.3879 20.5077 57.7355 20.8531 57.819L30.8998 60.2465C31.2453 60.33 31.5931 60.1177 31.6766 59.7724L34.6221 47.5935C34.7057 47.2482 34.4933 46.9006 34.1478 46.8172L24.1012 44.3897C23.7557 44.3062 23.4079 44.5184 23.3244 44.8638Z" fill="#3FBDF1"/>
<path d="M23.2578 43.8323L19.8484 57.9289L31.7443 60.8032L35.1536 46.7066L23.2578 43.8323Z" stroke="black" stroke-width="0.3" stroke-miterlimit="10"/>
<path d="M35.2036 46.7178L31.7942 60.8144L34.1689 61.3881L37.5782 47.2916L35.2036 46.7178Z" fill="white"/>
<path d="M35.2036 46.7178L31.7942 60.8144L34.1689 61.3881L37.5782 47.2916L35.2036 46.7178Z" stroke="black" stroke-width="0.3" stroke-miterlimit="10"/>
<path d="M34.1678 61.3836L33.403 59.4173L31.7929 60.81" stroke="black" stroke-width="0.3" stroke-miterlimit="10"/>
<path d="M36.3891 46.9998L33.403 59.4174" stroke="black" stroke-width="0.3" stroke-miterlimit="10"/>
<path d="M62.5851 24.1323C62.5402 24.1397 62.502 24.1472 62.453 24.1572C62.0038 24.2355 61.578 24.4143 61.2074 24.6801C60.8014 24.9938 60.4327 25.5391 60.2533 26.0081C59.982 26.7202 59.6839 27.4207 59.359 28.1096C58.8684 29.1716 58.2848 30.1881 57.6151 31.1474C56.9201 32.1235 56.0855 33.1129 55.0342 33.7204C54.9023 33.8001 54.7633 33.8677 54.619 33.9221C54.4421 33.9968 51.9534 31.135 51.6794 30.8163C50.5808 29.5389 49.4448 28.274 48.1568 27.1809C47.8305 26.902 47.4925 26.6331 47.1454 26.3816C45.9454 25.5014 44.5857 24.8629 43.142 24.5016" stroke="black" stroke-width="0.3" stroke-miterlimit="10"/>
<path d="M67.0626 24.0275C67.0675 24.0287 67.0727 24.0287 67.0776 24.0275C68.2285 24.162 67.7776 25.402 66.968 25.3621C66.0736 25.3173 65.1818 25.3621 64.2899 25.3771C64.044 25.369 63.7993 25.414 63.5724 25.509C63.124 25.7232 63.0817 26.2013 63.0144 26.6345C62.9247 27.2022 62.8226 27.77 62.7022 28.3327C62.468 29.4482 62.179 30.5488 61.8477 31.6394C61.6334 32.3466 61.3968 33.0504 61.1477 33.7468C60.4202 35.7986 59.5035 37.9748 57.9614 39.5568C57.1094 40.4333 55.9933 41.0807 54.7353 40.9861C52.964 40.8541 51.26 39.9652 49.7578 38.9542C49.7515 38.9499 49.7456 38.9449 49.7404 38.9393C49.1797 38.562 48.6423 38.1513 48.1311 37.7092C48.1311 37.7092 46.0609 35.8666 45.4281 34.517" stroke="black" stroke-width="0.3" stroke-miterlimit="10"/>
<path d="M70.3352 22.9123V23.0285C70.3352 23.8303 69.6892 23.9681 69.1312 23.9814L58.3301 24.2304C57.8568 24.2428 57.459 23.8286 57.449 23.3116V23.29C57.449 22.7828 57.8211 22.3612 58.2886 22.3496C58.2886 22.3496 64.3306 22.1794 69.0099 22.0508C69.0988 22.3338 69.3163 22.5529 69.5862 22.7239C69.8118 22.8595 70.0724 22.925 70.3352 22.9123Z" stroke="black" stroke-width="0.3" stroke-miterlimit="10"/>
<path d="M76.0733 11.4888C76.0733 11.6209 76.042 11.7511 75.982 11.8689L71.1549 21.7667C71.0981 21.881 71.0173 21.9818 70.918 22.062C70.8187 22.1422 70.7032 22.2 70.5794 22.2315C70.3799 22.2819 70.169 22.2601 69.984 22.17C69.8361 22.0973 69.7116 21.9847 69.6246 21.8449C69.5375 21.7051 69.4915 21.5437 69.4916 21.3791C69.4923 21.2473 69.5224 21.1175 69.5796 20.9989L74.4092 11.1003C74.497 10.9235 74.6419 10.7816 74.8205 10.6975C74.9991 10.6134 75.2009 10.592 75.3932 10.6369C75.5854 10.6818 75.7569 10.7902 75.8797 10.9447C76.0026 11.0992 76.0696 11.2906 76.07 11.4879L76.0733 11.4888Z" stroke="black" stroke-width="0.3" stroke-miterlimit="10"/>
<path d="M62.938 9.45304C64.4028 9.45304 65.5903 8.26611 65.5903 6.80199C65.5903 5.33787 64.4028 4.15097 62.938 4.15097C61.4732 4.15097 60.2857 5.33787 60.2857 6.80199C60.2857 8.26611 61.4732 9.45304 62.938 9.45304Z" fill="#3FBDF1"/>
<path d="M62.0952 7.71409C62.0072 7.68119 61.9249 7.635 61.851 7.57714C61.7209 7.47903 61.6314 7.33654 61.5995 7.17676C61.5677 7.01698 61.5957 6.85108 61.6783 6.71062C61.7321 6.6194 61.8064 6.54194 61.8954 6.48433C61.9843 6.42671 62.0854 6.39052 62.1906 6.37862C62.1323 6.24156 62.1202 6.08924 62.1561 5.94469C62.1921 5.80014 62.2741 5.67122 62.3899 5.57744C62.5057 5.48366 62.6489 5.43012 62.7978 5.42492C62.9467 5.41972 63.0933 5.46314 63.2154 5.54862C63.472 5.72707 63.6497 6.04164 63.7585 6.32882C63.8146 6.47962 63.8558 6.63558 63.8814 6.79445C63.8938 6.87745 63.9785 7.33395 63.9121 7.38043C63.4736 7.68421 62.6573 7.92823 62.0952 7.71409Z" fill="white"/>
<g opacity="0.72">
<path opacity="0.72" d="M60.7001 14.9831C61.5063 14.9831 62.1599 14.3299 62.1599 13.5239C62.1599 12.7181 61.5063 12.0648 60.7001 12.0648C59.8938 12.0648 59.2402 12.7181 59.2402 13.5239C59.2402 14.3299 59.8938 14.9831 60.7001 14.9831Z" fill="#3FBDF1"/>
<path opacity="0.72" d="M60.9885 14.1431C60.9534 14.1813 60.9125 14.2137 60.8674 14.2394C60.79 14.2845 60.6989 14.3 60.6111 14.2827C60.5232 14.2655 60.4446 14.2167 60.3901 14.1456C60.3544 14.099 60.33 14.0448 60.319 13.9872C60.3079 13.9296 60.3104 13.8701 60.3262 13.8136C60.2445 13.8141 60.1649 13.7881 60.0992 13.7396C60.0335 13.6909 59.9854 13.6224 59.962 13.5441C59.9386 13.4658 59.9413 13.382 59.9696 13.3054C59.9978 13.2287 60.0501 13.1633 60.1187 13.1189C60.2744 13.0327 60.4517 12.9936 60.6292 13.006C60.7179 13.0085 60.806 13.0202 60.8923 13.0409C60.9363 13.0508 61.1869 13.104 61.1969 13.1471C61.2608 13.4351 61.2151 13.9024 60.9885 14.1431Z" fill="white"/>
</g>
<path d="M68.9185 10.3395L67.4859 11.1028C66.9662 11.3796 66.7696 12.0252 67.0465 12.5445L67.8102 13.9765C68.0872 14.4959 68.733 14.6925 69.2527 14.4156L70.6853 13.6523C71.2049 13.3755 71.4017 12.73 71.1246 12.2106L70.361 10.7786C70.084 10.2593 69.4382 10.0627 68.9185 10.3395Z" fill="#3FBDF1"/>
<path d="M69.4924 14.0087L70.5296 13.456C70.7458 13.3399 70.9074 13.1431 70.9789 12.9085C71.0505 12.6738 71.0263 12.4204 70.9116 12.2035L70.2472 10.9585C70.1313 10.7422 69.9344 10.5806 69.6996 10.509C69.4647 10.4375 69.211 10.4618 68.9941 10.5767L68.9244 10.614C68.6653 10.9734 68.3207 11.5885 68.8414 11.7819C69.5887 12.0616 69.3703 12.4807 69.0905 13.0177C68.853 13.4684 68.7924 13.9955 69.4924 14.0087Z" fill="white"/>
<path d="M67.8771 12.5014C68.0934 12.5014 68.2688 12.326 68.2688 12.1097C68.2688 11.8933 68.0934 11.7179 67.8771 11.7179C67.6607 11.7179 67.4853 11.8933 67.4853 12.1097C67.4853 12.326 67.6607 12.5014 67.8771 12.5014Z" fill="white"/>
<path d="M63.0493 19.0401C63.1945 19.1107 63.3491 19.1599 63.5085 19.1862C63.8011 19.231 64.1002 19.1992 64.3767 19.0939C64.6533 18.9886 64.8978 18.8134 65.0863 18.5853C65.2316 18.4043 65.3404 18.1777 65.4932 17.9951C65.5976 17.8619 65.7375 17.7607 65.8967 17.703C65.9514 17.6914 66.0024 17.6665 66.0454 17.6308C66.15 17.5229 65.9723 17.4316 65.9366 17.3444C65.883 17.2038 65.883 17.0484 65.9366 16.9078C66.073 16.5382 66.0768 16.1328 65.9475 15.7606C65.8181 15.3884 65.5637 15.0726 65.2275 14.867C64.8913 14.6614 64.4941 14.5787 64.1037 14.633C63.7134 14.6873 63.3539 14.8753 63.0867 15.1648C62.8226 15.4495 62.664 15.8131 62.4996 16.1608C62.3534 16.4704 62.1981 16.7784 62.1176 17.1112C61.9307 17.8997 62.3526 18.7006 63.0493 19.0401Z" fill="#3FBDF1"/>
<path d="M64.5322 16.2389C64.7362 16.2389 64.9016 16.0736 64.9016 15.8696C64.9016 15.6656 64.7362 15.5002 64.5322 15.5002C64.3282 15.5002 64.1629 15.6656 64.1629 15.8696C64.1629 16.0736 64.3282 16.2389 64.5322 16.2389Z" fill="white"/>
<path d="M64.0481 17.2583C64.2521 17.2583 64.4174 17.0929 64.4174 16.8889C64.4174 16.685 64.2521 16.5196 64.0481 16.5196C63.8441 16.5196 63.6787 16.685 63.6787 16.8889C63.6787 17.0929 63.8441 17.2583 64.0481 17.2583Z" fill="white"/>
<path d="M63.5939 18.2144C63.7979 18.2144 63.9632 18.049 63.9632 17.8451C63.9632 17.6411 63.7979 17.4757 63.5939 17.4757C63.3898 17.4757 63.2245 17.6411 63.2245 17.8451C63.2245 18.049 63.3898 18.2144 63.5939 18.2144Z" fill="white"/>
<g opacity="0.54">
<path opacity="0.54" d="M54.7237 20.5449C54.8359 20.53 54.947 20.5071 55.0558 20.476L56.3064 20.1241C56.6892 20.0162 57.092 19.8967 57.3635 19.6053C57.8667 19.065 57.704 18.2068 57.5088 17.4947C57.35 16.912 57.1908 16.3293 57.0313 15.7467C56.9217 15.3449 56.8088 14.9366 56.5904 14.5847C56.372 14.2327 56.0266 13.9306 55.6147 13.8659C55.3116 13.8186 55.0043 13.8999 54.7079 13.9804L53.5079 14.3124C53.1143 14.4195 52.6991 14.5398 52.4234 14.8411C51.9335 15.3765 52.0913 16.2165 52.2789 16.9161L52.7581 18.7048C53.0521 19.7796 53.6026 20.686 54.7237 20.5449Z" fill="#3FBDF1"/>
<path opacity="0.54" d="M54.6406 18.1056C54.7147 18.1779 54.8065 18.2294 54.9068 18.2549C55.0072 18.2805 55.1124 18.2792 55.2121 18.2512C55.3117 18.2231 55.4023 18.1694 55.4745 18.0953C55.5467 18.0213 55.5983 17.9295 55.6238 17.8292L55.7633 17.2831L55.902 16.7361C55.9275 16.6358 55.9261 16.5306 55.8979 16.4311C55.8699 16.3315 55.8161 16.2411 55.7419 16.169C55.6677 16.0968 55.5759 16.0454 55.4756 16.0199C55.3753 15.9945 55.27 15.9958 55.1704 16.024L54.6282 16.1767L54.0851 16.3294C53.9856 16.3577 53.8954 16.4117 53.8234 16.4859C53.7514 16.5601 53.7003 16.652 53.675 16.7523C53.6498 16.8525 53.6514 16.9576 53.6796 17.0571C53.7079 17.1565 53.7618 17.2467 53.8359 17.3188L54.2404 17.7122L54.6406 18.1056Z" fill="white"/>
</g>
</svg>
