<svg width="85" height="83" viewBox="0 0 85 83" fill="none" xmlns="http://www.w3.org/2000/svg">
<path d="M22.2564 45.304C22.2564 45.304 20.9667 33.186 29.7455 31.5542C38.5243 29.9224 40.1561 31.2911 46.2707 27.1477C52.3852 23.0044 71.7041 35.2344 67.7931 52.437C67.3318 54.4771 66.7465 56.488 66.0402 58.4586" stroke="#CCDDE2" stroke-width="0.3" stroke-miterlimit="10"/>
<path d="M60.1173 37.282H56.9243V78.4491H60.1173V37.282Z" stroke="#CCDDE2" stroke-width="0.3" stroke-miterlimit="10"/>
<path d="M31.5505 68.9655V37.282H56.9243V78.45H52.6492V65.8066C52.6481 65.2997 52.4433 64.8141 52.0799 64.4562C51.7164 64.0982 51.2239 63.8973 50.7105 63.8976H37.9484C37.4351 63.8976 36.9427 64.0985 36.5793 64.4564C36.2159 64.8142 36.0111 65.2998 36.0097 65.8066V78.45H31.849M34.5948 58.7117C34.568 58.7116 34.5415 58.7062 34.5168 58.696C34.4921 58.6857 34.4697 58.6708 34.4509 58.652C34.432 58.6332 34.4171 58.6109 34.4071 58.5864C34.397 58.5618 34.3919 58.5356 34.3922 58.5092V56.889C34.3922 56.8359 34.4135 56.7851 34.4515 56.7476C34.4895 56.7101 34.5411 56.689 34.5948 56.689H37.9038C37.9307 56.6888 37.9572 56.6937 37.982 56.7037C38.0068 56.7137 38.0295 56.7284 38.0485 56.7469C38.0675 56.7655 38.0828 56.7876 38.0931 56.812C38.1034 56.8364 38.1089 56.8626 38.109 56.889V58.5092C38.1091 58.5358 38.1039 58.5622 38.0936 58.5868C38.0833 58.6115 38.0682 58.6338 38.0491 58.6526C38.03 58.6715 38.0074 58.6863 37.9825 58.6965C37.9576 58.7067 37.9308 58.7118 37.9038 58.7117H34.5948ZM40.4117 61.3412C40.4113 61.3945 40.3894 61.4457 40.351 61.4833C40.3126 61.5209 40.2607 61.542 40.2066 61.542H36.8975C36.8434 61.542 36.7915 61.5209 36.7531 61.4833C36.7147 61.4457 36.6928 61.3945 36.6924 61.3412V59.7193C36.693 59.6661 36.7149 59.6152 36.7533 59.5777C36.7917 59.5403 36.8435 59.5193 36.8975 59.5193H40.2066C40.2606 59.5193 40.3123 59.5403 40.3508 59.5777C40.3892 59.6152 40.411 59.6661 40.4117 59.7193V61.3412ZM38.7572 58.5092V56.889C38.7573 56.8626 38.7627 56.8364 38.7731 56.812C38.7834 56.7876 38.7986 56.7655 38.8176 56.7469C38.8367 56.7284 38.8593 56.7137 38.8841 56.7037C38.9089 56.6937 38.9355 56.6888 38.9623 56.689H42.2714C42.3254 56.689 42.3771 56.71 42.4156 56.7474C42.454 56.7849 42.4758 56.8358 42.4765 56.889V58.5092C42.4763 58.5628 42.4546 58.6142 42.4162 58.6521C42.3777 58.6901 42.3257 58.7115 42.2714 58.7117H38.9615C38.9346 58.7117 38.9079 58.7065 38.8831 58.6963C38.8582 58.6861 38.8357 58.6711 38.8167 58.6523C38.7977 58.6335 38.7827 58.6112 38.7725 58.5866C38.7623 58.5621 38.7571 58.5358 38.7572 58.5092ZM44.7616 61.3412C44.7617 61.3675 44.7565 61.3935 44.7464 61.4179C44.7363 61.4423 44.7214 61.4644 44.7026 61.4831C44.6837 61.5018 44.6614 61.5166 44.6367 61.5267C44.6121 61.5368 44.5856 61.542 44.559 61.542H41.2465C41.2199 61.542 41.1935 61.5368 41.1688 61.5267C41.1441 61.5166 41.1218 61.5018 41.103 61.4831C41.0841 61.4644 41.0692 61.4423 41.0592 61.4179C41.049 61.3935 41.0439 61.3675 41.0439 61.3412V59.7193C41.0439 59.6663 41.0653 59.6154 41.1033 59.5779C41.1413 59.5404 41.1928 59.5193 41.2465 59.5193H44.5581C44.6119 59.5193 44.6634 59.5404 44.7014 59.5779C44.7394 59.6154 44.7607 59.6663 44.7607 59.7193L44.7616 61.3412ZM46.8398 58.5092C46.8399 58.5358 46.8347 58.5622 46.8245 58.5868C46.8142 58.6115 46.7991 58.6338 46.78 58.6526C46.7609 58.6715 46.7383 58.6863 46.7133 58.6965C46.6884 58.7067 46.6617 58.7118 46.6347 58.7117H43.3256C43.2988 58.7116 43.2723 58.7062 43.2475 58.696C43.2228 58.6858 43.2003 58.6708 43.1815 58.652C43.1625 58.6332 43.1476 58.611 43.1374 58.5864C43.1272 58.5619 43.1221 58.5357 43.1222 58.5092V56.889C43.1222 56.8626 43.1275 56.8366 43.1377 56.8123C43.1479 56.7879 43.163 56.7659 43.1818 56.7473C43.2007 56.7287 43.2232 56.714 43.2479 56.704C43.2725 56.694 43.299 56.6888 43.3256 56.689H46.6339C46.6607 56.6888 46.6873 56.6937 46.7121 56.7037C46.7369 56.7137 46.7595 56.7284 46.7786 56.7469C46.7976 56.7655 46.8128 56.7876 46.8231 56.812C46.8335 56.8364 46.8389 56.8626 46.839 56.889L46.8398 58.5092ZM51.204 58.5092C51.2043 58.5356 51.1991 58.5618 51.1891 58.5864C51.179 58.6109 51.1642 58.6332 51.1453 58.652C51.1265 58.6708 51.1041 58.6857 51.0794 58.696C51.0547 58.7062 51.0282 58.7116 51.0014 58.7117H47.6915C47.6645 58.7118 47.6378 58.7067 47.6129 58.6965C47.5879 58.6863 47.5653 58.6715 47.5462 58.6526C47.5271 58.6338 47.512 58.6115 47.5017 58.5868C47.4915 58.5622 47.4863 58.5358 47.4864 58.5092V56.889C47.4864 56.8626 47.4919 56.8364 47.5022 56.812C47.5126 56.7876 47.5278 56.7655 47.5468 56.7469C47.5659 56.7284 47.5885 56.7137 47.6133 56.7037C47.6381 56.6937 47.6647 56.6888 47.6915 56.689H51.0006C51.0543 56.689 51.1058 56.7101 51.1438 56.7476C51.1818 56.7851 51.2032 56.8359 51.2032 56.889L51.204 58.5092ZM54.2676 52.4261C54.2683 52.6772 54.2188 52.926 54.1219 53.1582C54.025 53.3903 53.8826 53.6014 53.7031 53.7792C53.5234 53.957 53.31 54.0981 53.0751 54.1943C52.8401 54.2906 52.5883 54.3401 52.3339 54.3401H36.1787C35.6646 54.3399 35.1716 54.1382 34.8081 53.7793C34.4445 53.4204 34.2402 52.9337 34.24 52.4261V45.6774C34.24 45.1698 34.4443 44.6829 34.8078 44.324C35.1714 43.965 35.6645 43.7634 36.1787 43.7634H52.3306C52.585 43.7634 52.8368 43.813 53.0718 43.9092C53.3067 44.0055 53.52 44.1465 53.6997 44.3243C53.8793 44.5021 54.0216 44.7131 54.1185 44.9453C54.2154 45.1775 54.2649 45.4262 54.2642 45.6774L54.2676 52.4261ZM53.9843 41.5282C53.8953 41.6172 53.7892 41.6878 53.6723 41.7358C53.5554 41.7838 53.4299 41.8084 53.3033 41.8079H35.3565C35.1008 41.8077 34.8557 41.7073 34.6748 41.5288C34.4941 41.3504 34.3924 41.1083 34.3922 40.8559C34.3931 40.6037 34.4949 40.3621 34.6756 40.1837C34.8562 40.0053 35.101 39.9048 35.3565 39.9039H53.3016C53.4283 39.9038 53.5537 39.9283 53.6708 39.9761C53.7878 40.0239 53.8941 40.0941 53.9837 40.1825C54.0733 40.2709 54.1443 40.3759 54.1928 40.4915C54.2412 40.607 54.266 40.7309 54.2659 40.8559C54.2664 40.9808 54.2417 41.1047 54.1932 41.2201C54.1448 41.3356 54.0734 41.4403 53.9834 41.5282H53.9843ZM31.5505 73.6841V71.5385V73.6841Z" stroke="#CCDDE2" stroke-width="0.3" stroke-miterlimit="10"/>
<path d="M37.9038 58.7117H34.5948C34.568 58.7116 34.5415 58.7063 34.5168 58.696C34.4921 58.6858 34.4697 58.6708 34.4508 58.652C34.432 58.6332 34.4171 58.6109 34.407 58.5864C34.397 58.5619 34.3919 58.5357 34.3922 58.5092V56.889C34.3922 56.836 34.4135 56.7851 34.4515 56.7476C34.4895 56.7101 34.5411 56.689 34.5948 56.689H37.9038C37.9307 56.6888 37.9572 56.6938 37.982 56.7038C38.0068 56.7137 38.0294 56.7283 38.0485 56.7469C38.0675 56.7655 38.0827 56.7877 38.0931 56.812C38.1034 56.8364 38.1089 56.8626 38.109 56.889V58.5092C38.1091 58.5358 38.1039 58.5622 38.0936 58.5868C38.0833 58.6114 38.0682 58.6339 38.0491 58.6526C38.03 58.6715 38.0074 58.6864 37.9825 58.6965C37.9576 58.7067 37.9308 58.7118 37.9038 58.7117Z" stroke="#CCDDE2" stroke-width="0.3" stroke-miterlimit="10"/>
<path d="M36.8975 59.5195H40.2065C40.2605 59.5195 40.3123 59.5404 40.3507 59.5779C40.3891 59.6153 40.411 59.6662 40.4117 59.7195V61.3413C40.4112 61.3947 40.3894 61.4458 40.351 61.4834C40.3125 61.521 40.2607 61.5422 40.2065 61.5422H36.8975C36.8433 61.5422 36.7914 61.521 36.753 61.4834C36.7146 61.4458 36.6927 61.3947 36.6923 61.3413V59.7195C36.693 59.6662 36.7149 59.6153 36.7533 59.5779C36.7917 59.5404 36.8435 59.5195 36.8975 59.5195Z" stroke="#CCDDE2" stroke-width="0.3" stroke-miterlimit="10"/>
<path d="M42.4756 56.889V58.5092C42.4754 58.5628 42.4537 58.6142 42.4153 58.6521C42.3768 58.6901 42.3248 58.7115 42.2705 58.7117H38.9614C38.9344 58.7118 38.9077 58.7067 38.8828 58.6965C38.8578 58.6864 38.8352 58.6715 38.8161 58.6526C38.7971 58.6339 38.7819 58.6114 38.7717 58.5868C38.7614 58.5622 38.7562 58.5358 38.7563 58.5092V56.889C38.7564 56.8626 38.7618 56.8364 38.7722 56.812C38.7825 56.7877 38.7977 56.7655 38.8167 56.7469C38.8358 56.7283 38.8584 56.7137 38.8832 56.7038C38.908 56.6938 38.9346 56.6888 38.9614 56.689H42.2705C42.3245 56.689 42.3763 56.71 42.4147 56.7474C42.4531 56.7849 42.475 56.8357 42.4756 56.889Z" stroke="#CCDDE2" stroke-width="0.3" stroke-miterlimit="10"/>
<path d="M44.5581 59.5195H41.2465C41.1346 59.5195 41.0439 59.609 41.0439 59.7195V61.3422C41.0439 61.4526 41.1346 61.5422 41.2465 61.5422H44.5581C44.67 61.5422 44.7607 61.4526 44.7607 61.3422V59.7195C44.7607 59.609 44.67 59.5195 44.5581 59.5195Z" stroke="#CCDDE2" stroke-width="0.3" stroke-miterlimit="10"/>
<path d="M43.3257 58.7117C43.2988 58.7116 43.2723 58.7063 43.2475 58.696C43.2227 58.6858 43.2003 58.6709 43.1815 58.652C43.1625 58.6333 43.1476 58.611 43.1374 58.5865C43.1272 58.5619 43.1221 58.5357 43.1222 58.5092V56.889C43.1222 56.8627 43.1275 56.8367 43.1377 56.8123C43.1479 56.7879 43.163 56.7659 43.1818 56.7473C43.2007 56.7287 43.2232 56.714 43.2479 56.704C43.2725 56.694 43.299 56.6889 43.3257 56.689H46.6339C46.6607 56.6888 46.6873 56.6938 46.7121 56.7038C46.7369 56.7137 46.7595 56.7283 46.7786 56.7469C46.7976 56.7655 46.8128 56.7877 46.8231 56.812C46.8335 56.8364 46.8389 56.8626 46.839 56.889V58.5092C46.8391 58.5358 46.8339 58.5622 46.8236 58.5868C46.8134 58.6114 46.7982 58.6339 46.7792 58.6526C46.7601 58.6715 46.7375 58.6864 46.7125 58.6965C46.6876 58.7067 46.6609 58.7118 46.6339 58.7117H43.3257Z" stroke="#CCDDE2" stroke-width="0.3" stroke-miterlimit="10"/>
<path d="M47.6915 58.7117C47.6645 58.7118 47.6377 58.7067 47.6129 58.6965C47.5879 58.6864 47.5653 58.6715 47.5462 58.6526C47.5271 58.6339 47.512 58.6114 47.5017 58.5868C47.4915 58.5622 47.4862 58.5358 47.4863 58.5092V56.889C47.4864 56.8626 47.4919 56.8364 47.5022 56.812C47.5126 56.7877 47.5278 56.7655 47.5468 56.7469C47.5659 56.7283 47.5885 56.7137 47.6133 56.7038C47.6381 56.6938 47.6646 56.6888 47.6915 56.689H51.0005C51.0543 56.689 51.1058 56.7101 51.1438 56.7476C51.1818 56.7851 51.2031 56.836 51.2031 56.889V58.5092C51.2034 58.5357 51.1983 58.5619 51.1883 58.5864C51.1782 58.6109 51.1633 58.6332 51.1445 58.652C51.1256 58.6708 51.1033 58.6858 51.0785 58.696C51.0538 58.7063 51.0274 58.7116 51.0005 58.7117H47.6915Z" stroke="#CCDDE2" stroke-width="0.3" stroke-miterlimit="10"/>
<path d="M52.6492 65.8067V78.4501H36.0097V65.8067C36.011 65.2999 36.2158 64.8144 36.5793 64.4565C36.9427 64.0986 37.4351 63.8977 37.9484 63.8977H50.7105C51.2239 63.8975 51.7163 64.0983 52.0799 64.4563C52.4433 64.8142 52.6481 65.2998 52.6492 65.8067Z" stroke="#CCDDE2" stroke-width="0.3" stroke-miterlimit="10"/>
<path d="M34.3922 40.8559C34.3931 40.6037 34.4949 40.362 34.6756 40.1837C34.8562 40.0053 35.101 39.9047 35.3565 39.9039H53.3016C53.4283 39.9037 53.5537 39.9283 53.6708 39.9761C53.7878 40.0239 53.8941 40.0941 53.9838 40.1825C54.0733 40.2708 54.1443 40.3758 54.1928 40.4915C54.2412 40.607 54.266 40.7308 54.2659 40.8559C54.2651 41.1081 54.1632 41.3498 53.9825 41.528C53.8018 41.7064 53.5571 41.807 53.3016 41.8079H35.3565C35.1008 41.8077 34.8556 41.7073 34.6749 41.5288C34.494 41.3503 34.3924 41.1083 34.3922 40.8559Z" stroke="#CCDDE2" stroke-width="0.3" stroke-miterlimit="10"/>
<path d="M43.2869 46.6212V51.4908C43.2872 51.6677 43.252 51.843 43.1836 52.0066C43.1152 52.1701 43.0148 52.3189 42.8882 52.4441C42.7616 52.5694 42.6112 52.6687 42.4456 52.7366C42.28 52.8044 42.1025 52.8395 41.9233 52.8395H37.1404C36.7785 52.8391 36.4315 52.6968 36.1758 52.4439C35.9201 52.191 35.7765 51.8481 35.7768 51.4908V46.6212C35.7767 46.4443 35.8119 46.2691 35.8804 46.1056C35.9488 45.9422 36.0492 45.7936 36.1759 45.6684C36.3025 45.5433 36.4528 45.4439 36.6184 45.3761C36.7838 45.3083 36.9613 45.2733 37.1404 45.2733H41.9233C42.1025 45.2733 42.28 45.3081 42.4455 45.3759C42.6111 45.4437 42.7615 45.5429 42.8881 45.6682C43.0148 45.7933 43.1152 45.9419 43.1836 46.1055C43.252 46.269 43.2872 46.4442 43.2869 46.6212Z" stroke="#CCDDE2" stroke-width="0.3" stroke-miterlimit="10"/>
<path d="M52.6786 46.6152V51.4973C52.6789 51.6742 52.6437 51.8495 52.5753 52.0131C52.5069 52.1766 52.4065 52.3253 52.2799 52.4506C52.1532 52.5758 52.0028 52.6752 51.8373 52.7431C51.6717 52.8109 51.4942 52.8459 51.315 52.846H46.5229C46.3435 52.8459 46.1661 52.8109 46.0004 52.7431C45.8348 52.6753 45.6844 52.5758 45.5577 52.4506C45.431 52.3253 45.3305 52.1767 45.262 52.0131C45.1935 51.8496 45.1583 51.6743 45.1584 51.4973V46.6152C45.1583 46.4382 45.1935 46.2629 45.262 46.0993C45.3305 45.9358 45.431 45.7871 45.5577 45.6619C45.6844 45.5366 45.8348 45.4372 46.0004 45.3694C46.1661 45.3016 46.3435 45.2665 46.5229 45.2664H51.315C51.4942 45.2665 51.6717 45.3016 51.8373 45.3694C52.0028 45.4373 52.1532 45.5366 52.2799 45.6619C52.4065 45.7871 52.5069 45.9358 52.5753 46.0994C52.6437 46.2629 52.6789 46.4382 52.6786 46.6152Z" stroke="#CCDDE2" stroke-width="0.3" stroke-miterlimit="10"/>
<path d="M52.3306 43.7634H36.1787C35.6645 43.7634 35.1714 43.965 34.8078 44.324C34.4443 44.6829 34.24 45.1697 34.24 45.6774V52.4261C34.2402 52.9337 34.4445 53.4203 34.8081 53.7792C35.1716 54.1381 35.6646 54.3398 36.1787 54.3401H52.3306C52.585 54.3401 52.8368 54.2905 53.0718 54.1943C53.3067 54.098 53.52 53.957 53.6997 53.7792C53.8793 53.6014 54.0216 53.3903 54.1185 53.1582C54.2154 52.9259 54.2649 52.6772 54.2642 52.4261V45.6774C54.2649 45.4262 54.2154 45.1775 54.1185 44.9452C54.0216 44.7131 53.8793 44.502 53.6997 44.3242C53.52 44.1464 53.3067 44.0054 53.0718 43.9091C52.8368 43.8129 52.585 43.7634 52.3306 43.7634ZM43.287 51.4907C43.2872 51.6677 43.2521 51.8429 43.1836 52.0065C43.1152 52.17 43.0148 52.3187 42.8882 52.4439C42.7616 52.5692 42.6112 52.6686 42.4457 52.7364C42.28 52.8043 42.1026 52.8393 41.9233 52.8394H37.1405C36.7785 52.8389 36.4316 52.6966 36.1758 52.4437C35.9201 52.1908 35.7766 51.848 35.7768 51.4907V46.6211C35.7767 46.4441 35.8119 46.2689 35.8804 46.1055C35.9488 45.942 36.0492 45.7934 36.1759 45.6682C36.3025 45.5431 36.4528 45.4438 36.6184 45.376C36.7838 45.3082 36.9613 45.2733 37.1405 45.2732H41.9233C42.1026 45.2732 42.28 45.308 42.4456 45.3758C42.6111 45.4435 42.7615 45.5428 42.8881 45.668C43.0148 45.7932 43.1152 45.9418 43.1836 46.1053C43.2521 46.2688 43.2872 46.4441 43.287 46.6211V51.4907ZM52.6786 51.4973C52.6789 51.6743 52.6437 51.8496 52.5753 52.0131C52.5069 52.1767 52.4065 52.3253 52.2799 52.4506C52.1533 52.5758 52.0029 52.6753 51.8373 52.7431C51.6717 52.811 51.4942 52.8459 51.315 52.8461H46.5229C46.3436 52.8459 46.1661 52.811 46.0005 52.7431C45.8348 52.6753 45.6844 52.5759 45.5577 52.4507C45.431 52.3254 45.3305 52.1768 45.262 52.0132C45.1935 51.8496 45.1583 51.6743 45.1584 51.4973V46.6153C45.1583 46.4382 45.1935 46.2629 45.262 46.0993C45.3305 45.9358 45.431 45.7871 45.5577 45.6619C45.6844 45.5366 45.8348 45.4373 46.0005 45.3694C46.1661 45.3016 46.3436 45.2666 46.5229 45.2665H51.315C51.4942 45.2666 51.6717 45.3016 51.8373 45.3694C52.0029 45.4373 52.1533 45.5367 52.2799 45.6619C52.4065 45.7872 52.5069 45.9358 52.5753 46.0994C52.6437 46.263 52.6789 46.4382 52.6786 46.6153V51.4973Z" stroke="#CCDDE2" stroke-width="0.3" stroke-miterlimit="10"/>
<path d="M43.2869 46.6212V51.4908C43.2872 51.6677 43.252 51.843 43.1836 52.0066C43.1152 52.1701 43.0148 52.3189 42.8882 52.4441C42.7616 52.5694 42.6112 52.6687 42.4456 52.7366C42.28 52.8044 42.1025 52.8395 41.9233 52.8395H37.1404C36.7785 52.8391 36.4315 52.6968 36.1758 52.4439C35.9201 52.191 35.7765 51.8481 35.7768 51.4908V46.6212C35.7767 46.4443 35.8119 46.2691 35.8804 46.1056C35.9488 45.9422 36.0492 45.7936 36.1759 45.6684C36.3025 45.5433 36.4528 45.4439 36.6184 45.3761C36.7838 45.3083 36.9613 45.2733 37.1404 45.2733H41.9233C42.1025 45.2733 42.28 45.3081 42.4455 45.3759C42.6111 45.4437 42.7615 45.5429 42.8881 45.6682C43.0148 45.7933 43.1152 45.9419 43.1836 46.1055C43.252 46.269 43.2872 46.4442 43.2869 46.6212Z" stroke="#CCDDE2" stroke-width="0.3" stroke-miterlimit="10"/>
<path d="M52.6786 46.6152V51.4973C52.6789 51.6742 52.6437 51.8495 52.5753 52.0131C52.5069 52.1766 52.4065 52.3253 52.2799 52.4506C52.1532 52.5758 52.0028 52.6752 51.8373 52.7431C51.6717 52.8109 51.4942 52.8459 51.315 52.846H46.5229C46.3435 52.8459 46.1661 52.8109 46.0004 52.7431C45.8348 52.6753 45.6844 52.5758 45.5577 52.4506C45.431 52.3253 45.3305 52.1767 45.262 52.0131C45.1935 51.8496 45.1583 51.6743 45.1584 51.4973V46.6152C45.1583 46.4382 45.1935 46.2629 45.262 46.0993C45.3305 45.9358 45.431 45.7871 45.5577 45.6619C45.6844 45.5366 45.8348 45.4372 46.0004 45.3694C46.1661 45.3016 46.3435 45.2665 46.5229 45.2664H51.315C51.4942 45.2665 51.6717 45.3016 51.8373 45.3694C52.0028 45.4373 52.1532 45.5366 52.2799 45.6619C52.4065 45.7871 52.5069 45.9358 52.5753 46.0994C52.6437 46.2629 52.6789 46.4382 52.6786 46.6152Z" stroke="#CCDDE2" stroke-width="0.3" stroke-miterlimit="10"/>
<path d="M52.6786 46.6152V51.4973C52.6789 51.6742 52.6437 51.8495 52.5753 52.0131C52.5069 52.1766 52.4065 52.3253 52.2799 52.4506C52.1532 52.5758 52.0028 52.6752 51.8373 52.7431C51.6717 52.8109 51.4942 52.8459 51.315 52.846H46.5229C46.3435 52.8459 46.1661 52.8109 46.0004 52.7431C45.8348 52.6753 45.6844 52.5758 45.5577 52.4506C45.431 52.3253 45.3305 52.1767 45.262 52.0131C45.1935 51.8496 45.1583 51.6743 45.1584 51.4973V46.6152C45.1583 46.4382 45.1935 46.2629 45.262 46.0993C45.3305 45.9358 45.431 45.7871 45.5577 45.6619C45.6844 45.5366 45.8348 45.4372 46.0004 45.3694C46.1661 45.3016 46.3435 45.2665 46.5229 45.2664H51.315C51.4942 45.2665 51.6717 45.3016 51.8373 45.3694C52.0028 45.4373 52.1532 45.5366 52.2799 45.6619C52.4065 45.7871 52.5069 45.9358 52.5753 46.0994C52.6437 46.2629 52.6789 46.4382 52.6786 46.6152Z" stroke="#CCDDE2" stroke-width="0.3" stroke-miterlimit="10"/>
<path d="M43.2869 46.6212V51.4908C43.2872 51.6677 43.252 51.843 43.1836 52.0066C43.1152 52.1701 43.0148 52.3189 42.8882 52.4441C42.7616 52.5694 42.6112 52.6687 42.4456 52.7366C42.28 52.8044 42.1025 52.8395 41.9233 52.8395H37.1404C36.7785 52.8391 36.4315 52.6968 36.1758 52.4439C35.9201 52.191 35.7765 51.8481 35.7768 51.4908V46.6212C35.7767 46.4443 35.8119 46.2691 35.8804 46.1056C35.9488 45.9422 36.0492 45.7936 36.1759 45.6684C36.3025 45.5433 36.4528 45.4439 36.6184 45.3761C36.7838 45.3083 36.9613 45.2733 37.1404 45.2733H41.9233C42.1025 45.2733 42.28 45.3081 42.4455 45.3759C42.6111 45.4437 42.7615 45.5429 42.8881 45.6682C43.0148 45.7933 43.1152 45.9419 43.1836 46.1055C43.252 46.269 43.2872 46.4442 43.2869 46.6212Z" stroke="#CCDDE2" stroke-width="0.3" stroke-miterlimit="10"/>
<path d="M52.6492 65.8067V78.4501H36.0097V65.8067C36.011 65.2999 36.2158 64.8144 36.5793 64.4565C36.9427 64.0986 37.4351 63.8977 37.9484 63.8977H50.7105C51.2239 63.8975 51.7163 64.0983 52.0799 64.4563C52.4433 64.8142 52.6481 65.2998 52.6492 65.8067Z" stroke="#CCDDE2" stroke-width="0.3" stroke-miterlimit="10"/>
<path d="M38.109 56.889V58.5092C38.1091 58.5358 38.1039 58.5622 38.0936 58.5868C38.0833 58.6114 38.0682 58.6339 38.0491 58.6526C38.03 58.6715 38.0074 58.6864 37.9825 58.6965C37.9576 58.7067 37.9308 58.7118 37.9038 58.7117H34.5948C34.568 58.7116 34.5415 58.7063 34.5168 58.696C34.4921 58.6858 34.4697 58.6708 34.4508 58.652C34.432 58.6332 34.4171 58.6109 34.407 58.5864C34.397 58.5619 34.3919 58.5357 34.3922 58.5092V56.889C34.3922 56.836 34.4135 56.7851 34.4515 56.7476C34.4895 56.7101 34.5411 56.689 34.5948 56.689H37.9038C37.9307 56.6888 37.9572 56.6938 37.982 56.7038C38.0068 56.7137 38.0294 56.7283 38.0485 56.7469C38.0675 56.7655 38.0827 56.7877 38.0931 56.812C38.1034 56.8364 38.1089 56.8626 38.109 56.889Z" stroke="#CCDDE2" stroke-width="0.3" stroke-miterlimit="10"/>
<path d="M42.4756 56.889V58.5092C42.4754 58.5628 42.4537 58.6142 42.4153 58.6521C42.3768 58.6901 42.3248 58.7115 42.2705 58.7117H38.9614C38.9344 58.7118 38.9077 58.7067 38.8828 58.6965C38.8578 58.6864 38.8352 58.6715 38.8161 58.6526C38.7971 58.6339 38.7819 58.6114 38.7717 58.5868C38.7614 58.5622 38.7562 58.5358 38.7563 58.5092V56.889C38.7564 56.8626 38.7618 56.8364 38.7722 56.812C38.7825 56.7877 38.7977 56.7655 38.8167 56.7469C38.8358 56.7283 38.8584 56.7137 38.8832 56.7038C38.908 56.6938 38.9346 56.6888 38.9614 56.689H42.2705C42.3245 56.689 42.3763 56.71 42.4147 56.7474C42.4531 56.7849 42.475 56.8357 42.4756 56.889Z" stroke="#CCDDE2" stroke-width="0.3" stroke-miterlimit="10"/>
<path d="M46.839 56.889V58.5092C46.8391 58.5358 46.8339 58.5622 46.8236 58.5868C46.8134 58.6114 46.7982 58.6339 46.7792 58.6526C46.7601 58.6715 46.7375 58.6864 46.7125 58.6965C46.6876 58.7067 46.6609 58.7118 46.6339 58.7117H43.3257C43.2988 58.7116 43.2723 58.7063 43.2475 58.696C43.2227 58.6858 43.2003 58.6709 43.1815 58.652C43.1625 58.6333 43.1476 58.611 43.1374 58.5865C43.1272 58.5619 43.1221 58.5357 43.1222 58.5092V56.889C43.1222 56.8627 43.1275 56.8367 43.1377 56.8123C43.1479 56.7879 43.163 56.7659 43.1818 56.7473C43.2007 56.7287 43.2232 56.714 43.2479 56.704C43.2725 56.694 43.299 56.6889 43.3257 56.689H46.6339C46.6607 56.6888 46.6873 56.6938 46.7121 56.7038C46.7369 56.7137 46.7595 56.7283 46.7786 56.7469C46.7976 56.7655 46.8128 56.7877 46.8231 56.812C46.8335 56.8364 46.8389 56.8626 46.839 56.889Z" stroke="#CCDDE2" stroke-width="0.3" stroke-miterlimit="10"/>
<path d="M51.1998 56.889V58.5092C51.2 58.5357 51.1949 58.5619 51.1849 58.5864C51.1748 58.6109 51.1599 58.6332 51.1411 58.652C51.1223 58.6708 51.0998 58.6858 51.0752 58.696C51.0505 58.7063 51.024 58.7116 50.9972 58.7117H47.6915C47.6645 58.7118 47.6377 58.7067 47.6129 58.6965C47.5879 58.6864 47.5653 58.6715 47.5462 58.6526C47.5271 58.6339 47.512 58.6114 47.5017 58.5868C47.4915 58.5622 47.4862 58.5358 47.4863 58.5092V56.889C47.4864 56.8626 47.4919 56.8364 47.5022 56.812C47.5126 56.7877 47.5278 56.7655 47.5468 56.7469C47.5659 56.7283 47.5885 56.7137 47.6133 56.7038C47.6381 56.6938 47.6646 56.6888 47.6915 56.689H51.0005C51.0537 56.6899 51.1044 56.7113 51.1416 56.7488C51.1789 56.7862 51.1998 56.8366 51.1998 56.889Z" stroke="#CCDDE2" stroke-width="0.3" stroke-miterlimit="10"/>
<path d="M40.4117 59.7195V61.3413C40.4112 61.3947 40.3894 61.4458 40.351 61.4834C40.3125 61.521 40.2607 61.5422 40.2065 61.5422H36.8975C36.8433 61.5422 36.7914 61.521 36.753 61.4834C36.7146 61.4458 36.6927 61.3947 36.6923 61.3413V59.7195C36.693 59.6662 36.7149 59.6153 36.7533 59.5779C36.7917 59.5404 36.8435 59.5195 36.8975 59.5195H40.2065C40.2605 59.5195 40.3123 59.5404 40.3507 59.5779C40.3891 59.6153 40.411 59.6662 40.4117 59.7195Z" stroke="#CCDDE2" stroke-width="0.3" stroke-miterlimit="10"/>
<path d="M44.5581 59.5195H41.2465C41.1346 59.5195 41.0439 59.609 41.0439 59.7195V61.3422C41.0439 61.4526 41.1346 61.5422 41.2465 61.5422H44.5581C44.67 61.5422 44.7607 61.4526 44.7607 61.3422V59.7195C44.7607 59.609 44.67 59.5195 44.5581 59.5195Z" stroke="#CCDDE2" stroke-width="0.3" stroke-miterlimit="10"/>
<path d="M54.2667 40.8559C54.2659 41.1082 54.1638 41.35 53.983 41.5284C53.8022 41.7067 53.5573 41.8073 53.3016 41.8079H35.3565C35.1008 41.8077 34.8556 41.7073 34.6749 41.5288C34.494 41.3503 34.3924 41.1083 34.3922 40.8559C34.3931 40.6037 34.4949 40.362 34.6756 40.1837C34.8562 40.0053 35.101 39.9047 35.3565 39.9039H53.3016C53.4284 39.9037 53.5539 39.9281 53.671 39.9759C53.7881 40.0236 53.8946 40.0937 53.9843 40.1822C54.0739 40.2706 54.145 40.3756 54.1935 40.4912C54.2419 40.6068 54.2668 40.7307 54.2667 40.8559Z" stroke="#CCDDE2" stroke-width="0.3" stroke-miterlimit="10"/>
<path d="M50.6584 65.3599H37.9509C37.6496 65.3599 37.4053 65.601 37.4053 65.8986V65.9193C37.4053 66.2168 37.6496 66.458 37.9509 66.458H50.6584C50.9597 66.458 51.204 66.2168 51.204 65.9193V65.8986C51.204 65.601 50.9597 65.3599 50.6584 65.3599Z" stroke="#CCDDE2" stroke-width="0.3" stroke-miterlimit="10"/>
<path d="M50.6584 67.6259H37.9509C37.6496 67.6259 37.4053 67.867 37.4053 68.1646V68.1853C37.4053 68.4828 37.6496 68.724 37.9509 68.724H50.6584C50.9597 68.724 51.204 68.4828 51.204 68.1853V68.1646C51.204 67.867 50.9597 67.6259 50.6584 67.6259Z" stroke="#CCDDE2" stroke-width="0.3" stroke-miterlimit="10"/>
<path d="M50.6584 69.8918H37.9509C37.6496 69.8918 37.4053 70.133 37.4053 70.4305V70.4512C37.4053 70.7488 37.6496 70.9899 37.9509 70.9899H50.6584C50.9597 70.9899 51.204 70.7488 51.204 70.4512V70.4305C51.204 70.133 50.9597 69.8918 50.6584 69.8918Z" stroke="#CCDDE2" stroke-width="0.3" stroke-miterlimit="10"/>
<path d="M50.6584 72.1584H37.9509C37.6496 72.1584 37.4053 72.3996 37.4053 72.6971V72.7179C37.4053 73.0153 37.6496 73.2565 37.9509 73.2565H50.6584C50.9597 73.2565 51.204 73.0153 51.204 72.7179V72.6971C51.204 72.3996 50.9597 72.1584 50.6584 72.1584Z" stroke="#CCDDE2" stroke-width="0.3" stroke-miterlimit="10"/>
<path d="M50.6584 74.4244H37.9509C37.6496 74.4244 37.4053 74.6656 37.4053 74.9631V74.9839C37.4053 75.2813 37.6496 75.5225 37.9509 75.5225H50.6584C50.9597 75.5225 51.204 75.2813 51.204 74.9839V74.9631C51.204 74.6656 50.9597 74.4244 50.6584 74.4244Z" stroke="#CCDDE2" stroke-width="0.3" stroke-miterlimit="10"/>
<path d="M29.204 33.532H61.6625C62.1713 33.532 62.6593 33.7315 63.0191 34.0868C63.3789 34.4419 63.581 34.9238 63.581 35.4261V37.2521H27.2855V35.4261C27.2855 34.9238 27.4876 34.4419 27.8475 34.0868C28.2072 33.7315 28.6952 33.532 29.204 33.532Z" stroke="#CCDDE2" stroke-width="0.3" stroke-miterlimit="10"/>
<path d="M60.1165 63.1057H63.6063V66.2406H66.9179V69.8411H70.1429V72.6606H73.3166V75.1415H79.8683V78.4482H60.1165V63.1057Z" stroke="#CCDDE2" stroke-width="0.3" stroke-miterlimit="10"/>
<path d="M60.7747 56.1644H63.629H63.7156L66.9229 59.3317L70.1563 62.5231L73.3174 65.6439L74.8122 67.1196" stroke="#CCDDE2" stroke-width="0.3" stroke-miterlimit="10"/>
<path d="M63.629 66.2406V56.1644" stroke="#CCDDE2" stroke-width="0.3" stroke-miterlimit="10"/>
<path d="M73.3174 72.6616V65.644" stroke="#CCDDE2" stroke-width="0.3" stroke-miterlimit="10"/>
<path d="M66.9229 67.6515V59.3307" stroke="#CCDDE2" stroke-width="0.3" stroke-miterlimit="10"/>
<path d="M70.1429 62.523V70.1166" stroke="#CCDDE2" stroke-width="0.3" stroke-miterlimit="10"/>
<path d="M31.5379 71.5567V73.684" stroke="#CCDDE2" stroke-width="0.3" stroke-miterlimit="10"/>
<path d="M28.3448 73.6842V72.3761C28.4802 72.7595 28.8442 73.094 29.3134 73.2592C29.1612 72.1636 28.8636 70.4372 28.3448 68.8926" stroke="#CCDDE2" stroke-width="0.3" stroke-miterlimit="10"/>
<path d="M31.5379 67.2964V49.053H28.3448V66.4764" stroke="#CCDDE2" stroke-width="0.3" stroke-miterlimit="10"/>
<path d="M28.3448 72.3777V73.6841" stroke="#CCDDE2" stroke-width="0.3" stroke-miterlimit="10"/>
<path d="M28.3448 66.4764V49.053H8.46857V78.45H28.0867H28.3448" stroke="#CCDDE2" stroke-width="0.3" stroke-miterlimit="10"/>
<path d="M14.5142 53.3583V64.8447C14.5142 65.8811 15.3652 66.7213 16.415 66.7213H20.8708C21.9206 66.7213 22.7717 65.8811 22.7717 64.8447V53.3583C22.7717 52.3219 21.9206 51.4817 20.8708 51.4817H16.415C15.3652 51.4817 14.5142 52.3219 14.5142 53.3583Z" stroke="#CCDDE2" stroke-width="0.3" stroke-miterlimit="10"/>
<path d="M15.6887 54.0123V57.0933C15.6887 57.8235 16.2883 58.4155 17.0279 58.4155H20.2664C21.006 58.4155 21.6056 57.8235 21.6056 57.0933V54.0123C21.6056 53.2821 21.006 52.6901 20.2664 52.6901H17.0279C16.2883 52.6901 15.6887 53.2821 15.6887 54.0123Z" stroke="#CCDDE2" stroke-width="0.3" stroke-miterlimit="10"/>
<path d="M15.6937 61.1578V64.2297C15.6937 64.9599 16.2933 65.5518 17.033 65.5518H20.2614C21.001 65.5518 21.6006 64.9599 21.6006 64.2297V61.1578C21.6006 60.4276 21.001 59.8356 20.2614 59.8356H17.033C16.2933 59.8356 15.6937 60.4276 15.6937 61.1578Z" stroke="#CCDDE2" stroke-width="0.3" stroke-miterlimit="10"/>
<path d="M14.8261 68.4601H11.5103C11.3993 68.4601 11.3094 68.5489 11.3094 68.6585V70.2853C11.3094 70.3948 11.3993 70.4836 11.5103 70.4836H14.8261C14.9371 70.4836 15.027 70.3948 15.027 70.2853V68.6585C15.027 68.5489 14.9371 68.4601 14.8261 68.4601Z" stroke="#CCDDE2" stroke-width="0.3" stroke-miterlimit="10"/>
<path d="M19.1911 68.4601H15.8753C15.7643 68.4601 15.6744 68.5489 15.6744 68.6585V70.2853C15.6744 70.3948 15.7643 70.4836 15.8753 70.4836H19.1911C19.3021 70.4836 19.392 70.3948 19.392 70.2853V68.6585C19.392 68.5489 19.3021 68.4601 19.1911 68.4601Z" stroke="#CCDDE2" stroke-width="0.3" stroke-miterlimit="10"/>
<path d="M23.5561 68.4601H20.2403C20.1293 68.4601 20.0394 68.5489 20.0394 68.6585V70.2853C20.0394 70.3948 20.1293 70.4836 20.2403 70.4836H23.5561C23.6671 70.4836 23.757 70.3948 23.757 70.2853V68.6585C23.757 68.5489 23.6671 68.4601 23.5561 68.4601Z" stroke="#CCDDE2" stroke-width="0.3" stroke-miterlimit="10"/>
<path d="M17.128 71.2912H13.8122C13.7012 71.2912 13.6113 71.38 13.6113 71.4896V73.1164C13.6113 73.2259 13.7012 73.3147 13.8122 73.3147H17.128C17.239 73.3147 17.3289 73.2259 17.3289 73.1164V71.4896C17.3289 71.38 17.239 71.2912 17.128 71.2912Z" stroke="#CCDDE2" stroke-width="0.3" stroke-miterlimit="10"/>
<path d="M21.4778 71.2912H18.1621C18.0511 71.2912 17.9611 71.38 17.9611 71.4896V73.1164C17.9611 73.2259 18.0511 73.3147 18.1621 73.3147H21.4778C21.5888 73.3147 21.6788 73.2259 21.6788 73.1164V71.4896C21.6788 71.38 21.5888 71.2912 21.4778 71.2912Z" stroke="#CCDDE2" stroke-width="0.3" stroke-miterlimit="10"/>
<path d="M6.15913 45.3037H31.5488V49.0213H4.20361V47.2351C4.20383 46.7231 4.40991 46.2321 4.77656 45.8699C5.14322 45.5078 5.64049 45.3041 6.15913 45.3037Z" stroke="#CCDDE2" stroke-width="0.3" stroke-miterlimit="10"/>
<path d="M29.9716 69.7252C30.1457 69.5857 30.3474 69.4571 30.487 69.3035C30.8788 68.8711 30.7283 68.3183 30.9796 67.8435C31.2857 67.2625 32.2475 66.86 33.1933 66.9131C33.1037 67.1863 33.0423 67.4677 33.01 67.7531C32.9822 68.0071 33.0495 68.2893 32.9755 68.5358C32.8553 68.9308 32.213 69.1707 32.1348 69.5766C32.0659 69.9351 32.4913 70.2705 32.4206 70.6357C32.3458 71.0274 31.7363 71.2441 31.5118 71.5902C31.3285 71.8724 31.4151 72.1944 31.3201 72.494C31.205 72.8559 30.8065 73.1755 30.2844 73.324L30.2322 73.339C30.0405 73.1765 29.8759 72.9852 29.7446 72.7721" stroke="#CCDDE2" stroke-width="0.3" stroke-miterlimit="10"/>
<path d="M32.6199 67.3678C31.2101 68.7879 30.5467 71.7817 30.2886 73.3255C30.2676 73.4558 30.2483 73.5745 30.2323 73.6832" stroke="#CCDDE2" stroke-width="0.3" stroke-miterlimit="10"/>
<path d="M32.746 74.5531L32.097 78.1337C32.079 78.2342 32.0258 78.3252 31.9466 78.3908C31.8674 78.4563 31.7673 78.4923 31.664 78.4923H28.2734C28.1691 78.4923 28.0681 78.4556 27.9887 78.3889C27.9092 78.3221 27.8563 78.2296 27.8396 78.1279L27.2393 74.5531H32.746Z" stroke="#CCDDE2" stroke-width="0.3" stroke-miterlimit="10"/>
<path d="M33.3622 74.1538C33.3532 74.2627 33.303 74.3641 33.2217 74.438C33.1405 74.512 33.0339 74.5531 32.9234 74.5531H27.0711C26.9616 74.5532 26.856 74.5128 26.775 74.4401C26.694 74.3673 26.6434 74.2673 26.6331 74.1597C26.6272 74.0994 26.6342 74.0386 26.6536 73.981C26.6729 73.9236 26.7043 73.8707 26.7454 73.8258C26.7867 73.781 26.8369 73.7452 26.8931 73.7206C26.9492 73.696 27.0098 73.6833 27.0711 73.6832H32.92C32.9812 73.6828 33.0418 73.6949 33.0979 73.7189C33.1541 73.7428 33.2045 73.7781 33.2461 73.8223C33.2878 73.8667 33.3195 73.919 33.3395 73.9761C33.3596 74.0331 33.3673 74.0937 33.3622 74.1538Z" stroke="#CCDDE2" stroke-width="0.3" stroke-miterlimit="10"/>
<path d="M28.3448 72.3761C28.3349 72.3489 28.3265 72.3212 28.3196 72.2931C28.2263 71.9461 28.3095 71.5702 28.1338 71.2448C27.9177 70.8439 27.3343 70.5932 27.2603 70.1384C27.1947 69.7168 27.6033 69.3267 27.5352 68.9108C27.4612 68.4419 26.8441 68.1638 26.7273 67.7048C26.6575 67.421 26.7214 67.0931 26.6962 66.7985C26.6648 66.4698 26.6052 66.1444 26.5179 65.8257C27.2157 65.7784 27.9219 66.0432 28.3448 66.4731C28.4716 66.5973 28.5734 66.744 28.645 66.9056C28.8862 67.4542 28.7425 68.0949 29.1191 68.5963C29.3243 68.8677 29.6648 69.0702 29.8396 69.3541C29.8981 69.4468 29.9391 69.5491 29.9607 69.6562C29.9615 69.6641 29.963 69.6718 29.9649 69.6794C29.9691 69.6944 29.9708 69.7085 29.9733 69.7209C30.0364 70.1409 29.8741 70.5957 29.9262 71.0282C29.9733 71.3867 30.17 71.7461 30.0574 72.0964C29.9784 72.3319 29.8736 72.5582 29.7446 72.7712C29.64 72.9547 29.5114 73.1238 29.3621 73.2741C29.3453 73.27 29.3301 73.2634 29.3133 73.2575C29.1612 72.1619 28.8635 70.4355 28.3448 68.8909" stroke="#CCDDE2" stroke-width="0.3" stroke-miterlimit="10"/>
<path d="M29.3688 73.6823C29.3537 73.5544 29.3344 73.415 29.3134 73.2606C29.1612 72.165 28.8636 70.4386 28.3448 68.894C28.0178 67.9104 27.6008 66.9966 27.0745 66.3575" stroke="#CCDDE2" stroke-width="0.3" stroke-miterlimit="10"/>
<path d="M29.1191 68.5986C29.1191 68.5986 29.2125 67.1693 29.9935 66.7344C30.7745 66.2995 30.7577 68.7364 30.7577 68.7364" stroke="#CCDDE2" stroke-width="0.3" stroke-miterlimit="10"/>
<path d="M29.9716 69.725C29.8834 69.1825 29.9245 68.6271 30.0919 68.1031" stroke="#CCDDE2" stroke-width="0.3" stroke-miterlimit="10"/>
<path d="M41.735 42.985C41.8434 43.101 41.906 43.2516 41.9114 43.4095C41.9168 43.5673 41.8646 43.7218 41.7644 43.8448L39.8215 47.1441L39.7534 47.8081L39.1489 53.8048L38.1888 63.3291C38.1829 63.3897 38.1703 63.4503 38.1594 63.5109C38.1535 63.559 38.1468 63.6072 38.1384 63.6553C38.1258 63.7175 38.1106 63.7765 38.0963 63.8362C38.082 63.896 38.0728 63.935 38.0577 63.9831C38.0425 64.0313 38.0223 64.0977 38.0013 64.1541L37.95 64.296C37.9273 64.3525 37.9038 64.4064 37.8803 64.462C37.8567 64.5177 37.8357 64.5525 37.813 64.5982C37.7903 64.6438 37.76 64.7027 37.7289 64.7525C37.6978 64.8023 37.6777 64.8405 37.6507 64.882C37.6238 64.9235 37.5894 64.98 37.5549 65.0281C37.5204 65.0762 37.4961 65.1111 37.4666 65.1493C37.4027 65.2323 37.3397 65.3103 37.2699 65.385C37.2338 65.4265 37.1959 65.468 37.1581 65.5078C37.1203 65.5477 37.074 65.585 37.0353 65.6232C36.9967 65.6614 36.9588 65.6938 36.9185 65.727C36.8781 65.7602 36.8344 65.7983 36.7882 65.8315C36.7419 65.8647 36.7041 65.8963 36.6612 65.9253C36.6183 65.9544 36.5696 65.9884 36.5233 66.02C36.4771 66.0515 36.4325 66.0756 36.3863 66.103C36.3401 66.1303 36.2905 66.1577 36.2425 66.186C36.1946 66.2142 36.145 66.2341 36.0946 66.2565C36.0441 66.2789 35.9971 66.3046 35.9466 66.3254C35.8962 66.3461 35.8382 66.3677 35.7835 66.386C35.7289 66.4042 35.686 66.4233 35.6372 66.4383C35.5448 66.4673 35.4497 66.4922 35.3539 66.5138C35.2993 66.5263 35.2463 66.5362 35.1916 66.5445C35.137 66.5528 35.0857 66.5653 35.0311 66.5744H35.0395L35.7894 68.1514L36.4914 68.158C36.2648 68.1897 36.0356 68.1995 35.8071 68.1871L36.9185 70.5269C37.097 70.902 37.1766 71.3157 37.15 71.7294C37.1234 72.143 36.9915 72.5433 36.7665 72.8933C36.5415 73.2433 36.2306 73.5315 35.8627 73.7312C35.4948 73.931 35.0818 74.0358 34.662 74.0361H33.3168C33.2648 74.0362 33.2133 74.0465 33.1652 74.0662C33.1171 74.0861 33.0735 74.115 33.0368 74.1515C33.0001 74.1879 32.9711 74.2311 32.9513 74.2788C32.9315 74.3263 32.9215 74.3772 32.9217 74.4287V74.6229C33.3808 74.7765 33.7698 75.0862 34.0192 75.4967C34.2686 75.9071 34.3622 76.3916 34.2833 76.8639C34.2045 77.3362 33.9582 77.7655 33.5887 78.0751C33.219 78.3848 32.7499 78.5548 32.2651 78.5548C31.7803 78.5548 31.3112 78.3848 30.9416 78.0751C30.572 77.7655 30.3257 77.3362 30.2469 76.8639C30.168 76.3916 30.2616 75.9071 30.511 75.4967C30.7604 75.0862 31.1494 74.7765 31.6085 74.6229V74.4287C31.6086 74.3771 31.5984 74.3261 31.5786 74.2785C31.5587 74.2309 31.5295 74.1876 31.4926 74.1511C31.4557 74.1147 31.4119 74.0857 31.3638 74.066C31.3155 74.0462 31.2639 74.0361 31.2117 74.0361H16.3688C16.3166 74.0361 16.265 74.0462 16.2167 74.066C16.1685 74.0857 16.1247 74.1147 16.0879 74.1511C16.051 74.1876 16.0218 74.2309 16.0019 74.2785C15.9821 74.3261 15.9719 74.3771 15.972 74.4287V74.6229C16.4318 74.7765 16.8214 75.0865 17.0713 75.4975C17.3212 75.9084 17.4151 76.3936 17.3361 76.8666C17.2573 77.3394 17.0108 77.7694 16.6407 78.0795C16.2705 78.3897 15.8009 78.5599 15.3154 78.5599C14.8299 78.5599 14.3602 78.3897 13.9901 78.0795C13.62 77.7694 13.3735 77.3394 13.2946 76.8666C13.2157 76.3936 13.3096 75.9084 13.5594 75.4975C13.8093 75.0865 14.1989 74.7765 14.6588 74.6229V74.4287C14.6588 74.3245 14.6169 74.2247 14.5423 74.1511C14.4678 74.0774 14.3665 74.0361 14.2611 74.0361H11.9542C11.848 74.0358 11.7443 74.0045 11.6562 73.9461C11.568 73.8877 11.4994 73.8049 11.459 73.7079C11.4185 73.6111 11.408 73.5046 11.4288 73.4017C11.4496 73.299 11.5008 73.2046 11.5759 73.1306C11.6255 73.0814 11.6844 73.0424 11.7494 73.0159C11.8143 72.9895 11.8839 72.9759 11.9542 72.9762H34.1786C34.4591 72.9759 34.7351 72.9059 34.9809 72.7725C35.2268 72.6392 35.4347 72.447 35.5855 72.2134C35.7363 71.9799 35.825 71.7126 35.8436 71.4363C35.8622 71.1599 35.8101 70.8834 35.6919 70.6323L33.7809 66.5611L14.6285 65.0323C14.6139 65.0289 14.5989 65.0267 14.5839 65.0256C14.4999 65.0173 14.4158 65.0065 14.3317 64.9924C14.3035 64.9888 14.2754 64.9839 14.2477 64.9775C14.1527 64.9609 14.0619 64.9401 13.9702 64.9169L13.892 64.8945C13.808 64.8687 13.7239 64.8422 13.6398 64.8115L13.5742 64.7866C13.4977 64.7575 13.4221 64.7243 13.3481 64.6886C13.3167 64.6757 13.2861 64.661 13.2565 64.6446C13.1892 64.6114 13.1219 64.5758 13.0564 64.5359C12.5045 64.2158 12.047 63.7589 11.7291 63.2105C11.4112 62.662 11.2439 62.0412 11.2438 61.4093V53.2131C11.2439 52.3387 11.5634 51.4938 12.1435 50.8332C12.7237 50.1726 13.5257 49.7407 14.4024 49.6167L38.3923 46.2137L40.7555 42.9825C40.8186 42.9167 40.8946 42.8643 40.9789 42.8286C41.0632 42.7929 41.154 42.7746 41.2457 42.7748C41.3376 42.7751 41.4283 42.7938 41.5123 42.83C41.5965 42.8661 41.6722 42.9188 41.735 42.985Z" fill="white"/>
<path d="M69.0373 70.9284C67.4862 67.7512 64.2932 62.0798 59.908 58.6544L59.4809 51.0441C59.8045 51.0283 60.1247 50.9725 60.4343 50.8781C60.7857 50.8216 61.0228 50.7337 61.1069 50.6042C61.1714 50.4965 61.2166 50.3785 61.2405 50.2556C61.3109 50.104 61.3444 49.9383 61.338 49.7717C61.338 49.6887 61.3313 49.5899 61.3296 49.4895C61.3607 48.6529 61.2784 47.4502 61.1792 46.0226C61.0774 43.9642 60.9639 41.9556 60.9614 41.9373V41.9332C60.9614 41.9041 60.974 40.1005 61.0589 38.1094C61.1682 39.239 61.6424 39.9462 62.2637 40.3802C62.9363 40.9272 63.8182 41.0758 64.5748 41.0758C65.128 41.0746 65.6788 41.0029 66.2134 40.8625C67.1138 40.5853 67.8545 40.1429 68.4043 39.5121C68.9087 39.0323 69.3291 38.4206 69.4443 37.6686C69.5491 37.0603 69.5158 36.4367 69.3467 35.8426C69.1982 35.1517 68.8013 34.5373 68.2294 34.1129C68.095 34.0007 67.9467 33.9059 67.788 33.8307C67.5215 33.678 67.2466 33.5303 66.986 33.3609C66.6342 33.1181 66.3279 32.8167 66.0805 32.4703C65.9177 32.1743 65.8184 31.8482 65.7888 31.5125C65.8153 30.9518 65.8074 30.3899 65.7653 29.8301C65.7653 29.7131 65.7527 29.5961 65.7401 29.4815C65.7081 29.0806 65.6787 28.8034 65.6787 28.8034C65.3336 27.9263 64.7443 27.1635 63.9787 26.6031C63.9317 26.5657 63.8837 26.53 63.8367 26.4943C63.1647 26.01 62.3843 25.6928 61.5617 25.5697C61.486 25.5589 61.4095 25.5506 61.3355 25.5448C61.0928 25.5057 60.8475 25.4842 60.6016 25.4801C60.2874 25.3502 60.0175 25.1342 59.8239 24.8576C59.6539 24.5523 59.5334 24.2227 59.4666 23.8807C59.3716 23.3213 59.3632 22.6498 59.3161 21.8754C59.3234 21.0978 59.1185 20.3325 58.7226 19.6601C58.7208 19.6549 58.7179 19.6501 58.7142 19.646C58.5453 19.3658 58.3404 19.1083 58.1046 18.8799C57.4262 18.0864 56.4812 17.5901 55.3059 17.8798C55.295 17.8798 55.284 17.8864 55.2714 17.8906C55.2227 17.8906 55.1747 17.8906 55.126 17.8989C55.1246 17.8985 55.1231 17.8985 55.1218 17.8989C54.6618 17.9366 54.2161 18.075 53.817 18.3039C53.67 18.388 53.5313 18.4852 53.4025 18.5944C52.6248 19.2584 52.1784 20.2851 52.0574 21.3019C52.0515 21.3434 52.0489 21.3849 52.0473 21.4264C51.9111 21.5885 51.8304 21.7889 51.8169 21.9991C51.8036 22.2034 51.8506 22.4073 51.9522 22.5858C52.0538 22.7643 52.2057 22.91 52.3894 23.005V23.0573C52.4025 23.4163 52.482 23.77 52.624 24.1006C52.8628 24.66 53.2898 25.2967 54.0129 25.3987C54.0389 25.3987 54.0642 25.4029 54.0869 25.407L54.6157 26.3383L54.7426 26.8786L55.0369 28.1311L55.1377 28.0747C55.2546 28.0099 55.3706 27.946 55.4908 27.8829L55.5674 28.0207C55.1156 28.2757 54.6842 28.5642 54.2768 28.8839C53.2369 29.6583 51.9598 30.8419 51.0611 32.4612C50.5323 33.3676 50.1582 34.3528 50.0421 35.3986C50.0415 35.4125 50.04 35.4263 50.0379 35.4401C50.0228 35.5339 50.0102 35.6277 50.0001 35.7239V35.2666C49.9816 35.2666 49.964 35.2583 49.9455 35.2567V35.2484C49.8807 35.2391 49.8163 35.2264 49.7529 35.2102L44.907 32.3616C44.6895 32.1691 44.5322 31.9191 44.4539 31.6412C44.3196 31.1054 44.016 30.6258 43.5871 30.2717C43.2209 29.9902 42.7895 29.8031 42.3319 29.7272C42.3042 29.7206 42.2747 29.7164 42.2478 29.7123C42.2663 29.6723 42.2759 29.6288 42.2761 29.5849C42.2763 29.5409 42.2668 29.4974 42.2487 29.4573C42.2304 29.4171 42.2038 29.3813 42.1704 29.3521C42.1371 29.323 42.0979 29.3012 42.0553 29.2881L38.4739 28.1718C38.3991 28.1483 38.3182 28.1533 38.247 28.1856C38.1757 28.2181 38.1193 28.2756 38.0888 28.3469L37.2641 30.2733C37.2473 30.3132 37.239 30.356 37.2399 30.3992C37.2409 30.4422 37.2509 30.4847 37.2694 30.5238C37.2879 30.5629 37.3145 30.5977 37.3475 30.626C37.3804 30.6544 37.419 30.6756 37.4608 30.6883L37.5541 30.7174V30.7257L39.671 31.3739L39.7097 31.3864C39.7097 31.4279 39.7097 31.4694 39.7139 31.5109C39.7197 31.7092 39.7408 31.9067 39.777 32.1018C39.7921 32.1848 39.8106 32.2678 39.8316 32.3508C39.8442 32.3965 39.8552 32.4405 39.872 32.4845L39.8787 32.5077C39.8913 32.5467 39.9039 32.5907 39.9207 32.628C39.9249 32.6436 39.9299 32.6588 39.9359 32.6737C39.9372 32.6742 39.9387 32.6742 39.9401 32.6737C39.9925 32.8079 40.0584 32.9366 40.1368 33.058C40.3214 33.3427 40.5911 33.5637 40.9086 33.6904C41.2087 33.8066 41.5299 33.7842 41.8334 33.9029C42.067 33.9994 42.2811 34.1366 42.4656 34.308L42.5799 34.4308C42.5186 34.5213 41.967 35.3621 42.3647 35.6268L42.3496 35.6335L42.7514 35.8825L47.6823 39.0971C47.731 39.1344 47.7815 39.1701 47.8302 39.205L47.4754 39.5909C46.4968 39.9329 45.3417 40.3064 44.4261 40.5653C43.8772 40.7031 43.3231 40.8243 42.7649 40.9222C41.9082 41.0683 41.0347 41.075 40.183 41.2185C39.5634 41.319 39.0388 41.8892 38.922 42.5275C38.8244 43.047 38.8009 43.6065 39.3827 43.8737C40.0485 44.1792 40.3806 43.2437 40.7842 42.9117C41.4063 42.3922 42.0251 43.0122 42.6724 43.3649C42.7313 43.7069 42.833 44.0364 42.9112 44.3725C42.9318 44.4917 42.9786 44.605 43.0482 44.7045C43.1668 44.8548 43.2912 44.8705 43.4013 44.8149L43.3736 44.8382C43.5854 44.7828 43.799 44.7275 44.0142 44.6722C44.216 44.6412 44.4148 44.5937 44.6086 44.5302C46.0529 44.1916 47.5923 43.8762 49.1317 43.4944H49.1375C49.2098 43.4761 49.2838 43.4571 49.3553 43.4405C49.3793 43.4397 49.4033 43.4436 49.4257 43.452C49.4483 43.4604 49.4688 43.4731 49.4864 43.4893C49.5038 43.5057 49.5179 43.5252 49.5277 43.5469C49.5376 43.5685 49.5429 43.5918 49.5436 43.6156C49.5352 43.7243 49.5243 43.8347 49.5142 43.9476C49.4024 44.434 49.2182 45.747 49.0097 46.8069C48.8954 47.2767 48.7769 47.715 48.6625 48.1034C48.4767 48.5184 48.2951 48.9276 48.3523 49.2654C48.3585 49.416 48.4176 49.5599 48.5195 49.6723C48.6213 49.7846 48.7596 49.8585 48.9105 49.8813L49.1762 49.9211C49.3586 49.9643 49.6672 50.0165 50.0539 50.0713C50.1069 50.4423 50.1641 50.8183 50.2271 51.1835L50.2422 51.2757C50.2868 51.5172 50.333 51.7637 50.3793 52.0077V52.0144V52.0227L50.4171 52.2227L50.4575 52.4385L50.1506 55.1227L50.059 55.9419L47.7251 76.2595L45.2702 76.9044L43.4307 77.3891C43.3637 77.4032 43.2998 77.4294 43.2424 77.4663C43.157 77.519 43.0867 77.5925 43.0383 77.6797C42.9899 77.7668 42.9649 77.8649 42.9658 77.9643C42.966 78.0617 42.9915 78.1574 43.0398 78.2424C43.0663 78.2926 43.0997 78.339 43.139 78.3801C43.2203 78.4594 43.323 78.5138 43.4349 78.537C43.4766 78.5467 43.5192 78.5514 43.5619 78.5511H50.7315L51.32 76.2611L54.8342 62.5329L55.0184 62.6989C55.0184 62.6989 55.0184 62.7056 55.0251 62.7072V62.7114L60.4141 67.7694L60.478 67.825L60.5621 67.908L61.6844 68.9596L61.7685 69.0368L61.8021 69.07C65.9931 73.0673 66.1428 73.5894 66.0494 73.6442H65.9965L64.0628 77.6049C64.0025 77.7293 63.9882 77.8706 64.022 78.0044C64.056 78.1382 64.1361 78.256 64.2486 78.3378L64.384 78.4357C64.5056 78.5226 64.6559 78.5608 64.8049 78.543C64.9539 78.5251 65.0906 78.4525 65.1877 78.3395L70.0967 72.6747C70.0967 72.6747 69.7326 72.3435 69.0373 70.9284ZM43.5493 44.6904C43.5747 44.66 43.598 44.6278 43.6191 44.5942C43.62 44.6046 43.6238 44.6147 43.63 44.6232L43.5493 44.6904ZM47.71 39.5079C47.7377 39.4955 47.7646 39.4847 47.7941 39.4739L48.0841 39.3618L48.0967 39.3676C47.9723 39.4133 47.8428 39.4614 47.71 39.5079ZM49.6781 35.1919C49.4272 35.1143 49.1959 34.9847 48.9997 34.8118L48.7315 34.6532L49.7252 35.2002C49.7084 35.201 49.6933 35.201 49.6781 35.1969V35.1919Z" fill="white"/>
<path d="M48.3548 39.4175L48.2085 39.3636C48.1981 39.3581 48.1879 39.3519 48.1782 39.3453C47.414 38.8573 46.8171 38.1684 46.3068 37.4363C45.7687 36.6636 43.9225 35.8684 43.3256 35.1364C42.9431 34.6732 42.5429 34.1404 41.9569 33.9096C41.6551 33.7926 41.3323 33.815 41.0321 33.6972C40.7144 33.5712 40.4448 33.3499 40.2612 33.0647C40.1816 32.9431 40.1147 32.8138 40.0619 32.6787C40.0555 32.6633 40.0502 32.6475 40.046 32.6314C40.0262 32.5845 40.0102 32.5362 39.998 32.487C39.9821 32.4422 39.9703 32.399 39.9585 32.3534C39.9355 32.2715 39.9173 32.1883 39.9039 32.1044C39.8725 31.9167 39.8526 31.7274 39.8442 31.5375V31.5284C39.8375 31.3358 39.84 31.1466 39.8492 30.9615V30.9565H39.84L38.9816 30.6585C38.8632 30.6198 38.7575 30.5503 38.6758 30.4573C38.5941 30.3642 38.5394 30.251 38.5175 30.1298C38.5059 30.0623 38.5081 29.993 38.5243 29.9265C38.5439 29.8384 38.5827 29.7557 38.638 29.684C38.6933 29.6123 38.7638 29.5535 38.8446 29.5115C38.9192 29.4724 39.0011 29.449 39.0854 29.4427C39.1695 29.4364 39.2542 29.4474 39.3339 29.4749L41.0616 30.0941L41.4163 30.2203L41.4256 30.2253C41.4256 30.2253 41.4256 29.7057 41.93 29.7165C42.3966 29.7281 44.0873 29.8634 44.5884 31.6886C44.6666 31.966 44.8239 32.2155 45.0415 32.4073L49.1257 34.8218C49.4034 35.0702 49.7518 35.2282 50.1237 35.2742V35.7863C50.1232 35.7867 50.1227 35.7873 50.1224 35.7879C50.1221 35.7886 50.122 35.7893 50.122 35.79C50.122 35.7907 50.1221 35.7913 50.1224 35.792C50.1227 35.7927 50.1232 35.7932 50.1237 35.7937V36.1664L50.4482 38.4116L50.6769 39.9811C50.3785 40.0051 50.0783 39.9944 49.7823 39.9495L49.5881 39.8773H49.5831L48.3548 39.4175Z" fill="white"/>
<path d="M50.0699 35.7596V35.7663C49.9732 36.6071 49.8774 37.5832 49.8017 38.663C49.2569 38.912 48.7012 39.1278 48.1547 39.3428C48.1443 39.3373 48.1341 39.3312 48.1245 39.3245C47.7531 39.0837 47.4122 38.8001 47.1089 38.4796L42.4731 35.6393C42.76 35.496 43.0156 35.2987 43.2256 35.0583L43.2399 35.0442C44.1134 34.1179 44.8709 32.5542 44.965 32.3583L44.9852 32.3791L49.0694 34.7935C49.3471 35.0418 49.6956 35.1995 50.0674 35.245L50.0699 35.7596Z" fill="#2E2E2E"/>
<path d="M41.8468 30.9954L41.7535 31.2444L41.6644 31.486L41.6156 31.6229L41.6089 31.6437L41.5996 31.6686C41.5777 31.7308 41.5316 31.7819 41.4716 31.8107C41.4116 31.8394 41.3425 31.8436 41.2793 31.8221L39.8013 31.3739H39.7946L37.671 30.7298L38.2225 29.4425L38.4654 28.8756C38.4965 28.8043 38.5532 28.747 38.6247 28.7147C38.6962 28.6825 38.7773 28.6777 38.8522 28.7013L41.7787 29.6143C41.6839 29.593 41.5875 29.5794 41.4903 29.5736C41.4214 29.5696 41.3524 29.5807 41.2882 29.6061C41.2242 29.6315 41.1666 29.6706 41.1196 29.7205C41.0751 29.7704 41.0431 29.8299 41.026 29.8942C41.009 29.9584 41.0073 30.0257 41.0212 30.0907C41.065 30.2576 41.152 30.4103 41.2734 30.5339C41.2852 30.5472 41.297 30.5588 41.3104 30.5721C41.4191 30.6911 41.5449 30.7937 41.6837 30.8767C41.6837 30.8767 41.6879 30.8767 41.693 30.8834C41.698 30.89 41.693 30.8834 41.693 30.8834C41.7416 30.9242 41.793 30.9616 41.8468 30.9954Z" fill="#3FBDF1"/>
<path d="M39.8333 31.374C39.8333 31.4188 39.8333 31.467 39.8383 31.5118C39.8443 31.7104 39.8657 31.9082 39.9022 32.1036C39.9156 32.1875 39.9339 32.2706 39.9568 32.3526C39.9686 32.3974 39.9795 32.4405 39.9955 32.4854C40.0115 32.5302 40.0283 32.585 40.0485 32.6348C40.0549 32.6532 40.0625 32.6712 40.0712 32.6887" stroke="black" stroke-width="0.3" stroke-miterlimit="10"/>
<path d="M42.5194 31.1624C42.4353 31.1491 42.3513 31.1334 42.2672 31.1126C42.1831 31.0919 42.1209 31.0695 42.0503 31.0429C41.9377 30.9996 41.8296 30.9457 41.7274 30.8819C41.7274 30.8819 41.7207 30.8819 41.7182 30.8752C41.5646 30.7826 41.4265 30.6669 41.3088 30.5325C41.1871 30.4089 41.1002 30.2561 41.0565 30.0892C41.0412 30.0242 41.0421 29.9566 41.0592 29.892C41.0763 29.8275 41.1092 29.7681 41.1549 29.7191C41.202 29.6691 41.2596 29.6301 41.3236 29.6047C41.3878 29.5793 41.4567 29.5682 41.5257 29.5721C41.6551 29.5822 41.7835 29.6019 41.9099 29.6311C42.0906 29.6626 42.2714 29.6917 42.4505 29.7282C42.9081 29.8052 43.3394 29.9921 43.7065 30.2727C44.1345 30.6271 44.4379 31.1062 44.5733 31.6413C44.6506 31.919 44.807 32.169 45.0239 32.3618L50.1212 35.3581" stroke="black" stroke-width="0.3" stroke-miterlimit="10"/>
<path d="M39.8392 31.5108C39.8392 31.5108 40.0023 32.4163 41.2776 32.3914C41.3765 32.3878 41.4718 32.3545 41.5509 32.2959C41.63 32.2372 41.6889 32.156 41.7199 32.0633C41.7508 31.9705 41.7522 31.8707 41.724 31.7771C41.6957 31.6835 41.6392 31.6007 41.5618 31.5398L41.545 31.5274" stroke="black" stroke-width="0.3" stroke-miterlimit="10"/>
<path d="M40.0443 32.6274C40.0443 32.6274 40.669 33.269 41.2919 32.9918C41.8426 32.7428 41.466 32.2556 41.466 32.2556" stroke="black" stroke-width="0.3" stroke-miterlimit="10"/>
<path d="M41.7478 31.4985L41.703 31.4852" stroke="black" stroke-width="0.3" stroke-miterlimit="10"/>
<path d="M35.1538 66.5726C34.8888 66.6101 34.6202 66.6175 34.3535 66.595L33.9331 66.5618L35.1538 66.5726Z" fill="#D7E8F0"/>
<path d="M39.8787 47.8122L38.3107 63.3332C38.2285 64.1443 37.8724 64.9045 37.2997 65.4916C36.727 66.0787 35.9709 66.4586 35.153 66.5702C34.8879 66.6077 34.6194 66.6152 34.3526 66.5926L33.9323 66.5594L14.7496 65.0297C14.1937 64.9869 13.6552 64.8185 13.1758 64.5376C12.9439 64.0563 12.8241 63.5299 12.8252 62.9971V62.636L30.4492 64.047L30.8695 64.0811C31.1363 64.1028 31.4048 64.0952 31.6699 64.0586C32.4876 63.9466 33.2435 63.5666 33.8161 62.9796C34.3888 62.3925 34.745 61.6326 34.8277 60.8216L36.0887 48.3592L39.8787 47.8122Z" fill="#3FBDF1"/>
<path d="M36.087 48.3501L34.8259 60.8125C34.7433 61.6234 34.3871 62.3835 33.8144 62.9704C33.2418 63.5575 32.4859 63.9376 31.6682 64.0495C31.403 64.0862 31.1347 64.0937 30.8678 64.0719L30.4475 64.0379L12.8235 62.6269V54.7992C12.8239 53.9248 13.1433 53.0798 13.7231 52.4189C14.3031 51.758 15.1047 51.3254 15.9812 51.2003L36.087 48.3501Z" fill="#D7E8F0"/>
<path d="M36.6167 68.1587C36.3514 68.1961 36.0826 68.2037 35.8155 68.1811L35.3951 68.1479L36.6167 68.1587Z" fill="#D7E8F0"/>
<path d="M35.1639 66.5727L37.0438 70.5284C37.2218 70.9036 37.3012 71.3171 37.2744 71.7306C37.2476 72.1441 37.1156 72.5443 36.8905 72.894C36.6654 73.2438 36.3546 73.5318 35.9868 73.7314C35.619 73.931 35.2061 74.0358 34.7864 74.036H33.4413C33.3893 74.0359 33.3376 74.046 33.2895 74.0656C33.2414 74.0851 33.1977 74.1139 33.1608 74.1502C33.1239 74.1865 33.0947 74.2297 33.0747 74.2771C33.0547 74.3246 33.0445 74.3756 33.0445 74.4269V76.3559C33.0445 76.5278 32.9753 76.6927 32.8522 76.8143C32.729 76.9358 32.562 77.0041 32.3879 77.0041C32.2138 77.0041 32.0467 76.9358 31.9236 76.8143C31.8005 76.6927 31.7313 76.5278 31.7313 76.3559V74.4261C31.7314 74.3747 31.7212 74.3237 31.7013 74.2762C31.6813 74.2287 31.6522 74.1855 31.6153 74.1491C31.5783 74.1128 31.5345 74.0841 31.4864 74.0645C31.4382 74.0449 31.3866 74.0349 31.3345 74.0352H16.4924C16.4404 74.0351 16.3888 74.0451 16.3407 74.0647C16.2927 74.0843 16.2489 74.1131 16.2122 74.1495C16.1754 74.1857 16.1462 74.2289 16.1264 74.2764C16.1065 74.3239 16.0963 74.3747 16.0964 74.4261V76.355C16.0904 76.523 16.0185 76.6821 15.8959 76.7989C15.7733 76.9156 15.6097 76.9808 15.4394 76.9808C15.2691 76.9808 15.1055 76.9156 14.9829 76.7989C14.8604 76.6821 14.7884 76.523 14.7824 76.355V74.4261C14.7825 74.3747 14.7723 74.3239 14.7525 74.2764C14.7326 74.2289 14.7034 74.1857 14.6666 74.1495C14.6299 74.1131 14.5862 74.0843 14.5381 74.0647C14.49 74.0451 14.4384 74.0351 14.3864 74.0352H12.0795C11.9406 74.0298 11.8092 73.9714 11.7128 73.8725C11.6165 73.7736 11.5627 73.6417 11.5627 73.5044C11.5627 73.3671 11.6165 73.2352 11.7128 73.1363C11.8092 73.0374 11.9406 72.979 12.0795 72.9736H34.3014C34.5815 72.9733 34.8571 72.9033 35.1026 72.7703C35.3483 72.6372 35.556 72.4452 35.7067 72.2121C35.8574 71.9789 35.9464 71.7122 35.9652 71.4362C35.9841 71.1602 35.9323 70.884 35.8146 70.633L33.9037 66.566" fill="#2E2E2E"/>
<path d="M34.3526 66.5951L14.7496 65.0306C13.8276 64.9572 12.9674 64.5437 12.3403 63.8726C11.7131 63.2014 11.3648 62.3216 11.3649 61.4085V53.213C11.3651 52.3388 11.6845 51.4939 12.2644 50.8333C12.8445 50.1726 13.6461 49.7404 14.5226 49.6158L38.5117 46.2128L40.8766 42.98C40.9399 42.9139 41.0163 42.8614 41.1011 42.8256C41.1858 42.7898 41.2771 42.7717 41.3693 42.7722C41.4614 42.7728 41.5525 42.7921 41.6368 42.8287C41.7211 42.8655 41.7969 42.919 41.8594 42.9858C41.967 43.1022 42.0292 43.2527 42.0347 43.4102C42.0403 43.5678 41.9888 43.7222 41.8897 43.8457L39.9443 47.1482L38.3124 63.3332C38.2167 64.2806 37.7482 65.1531 37.0077 65.7631C36.2672 66.373 35.3139 66.6718 34.3526 66.5951Z" stroke="black" stroke-width="0.3" stroke-miterlimit="10"/>
<path d="M34.4384 76.5317C34.4391 76.9033 34.3361 77.268 34.1404 77.5855C33.9449 77.903 33.6643 78.1612 33.3297 78.3314C32.9951 78.5017 32.6195 78.5776 32.244 78.5507C31.8686 78.5238 31.5079 78.3952 31.2017 78.179C30.8955 77.9628 30.6556 77.6675 30.5085 77.3254C30.3614 76.9833 30.3127 76.6077 30.3678 76.2401C30.4229 75.8725 30.5796 75.527 30.8208 75.2416C31.0619 74.9563 31.3782 74.7421 31.7346 74.6227V76.3558C31.7346 76.5276 31.8038 76.6925 31.9269 76.8141C32.0501 76.9357 32.2171 77.004 32.3912 77.004C32.5653 77.004 32.7324 76.9357 32.8555 76.8141C32.9786 76.6925 33.0478 76.5276 33.0478 76.3558V74.6219C33.4531 74.7562 33.8054 75.0128 34.0549 75.3555C34.3045 75.6982 34.4385 76.1097 34.4384 76.5317Z" stroke="black" stroke-width="0.3" stroke-miterlimit="10"/>
<path d="M17.4869 76.5317C17.4876 76.9032 17.3845 77.2678 17.1889 77.5852C16.9933 77.9025 16.7128 78.1605 16.3782 78.3307C16.0437 78.5008 15.6681 78.5765 15.2928 78.5495C14.9174 78.5225 14.5569 78.3938 14.2509 78.1775C13.9448 77.9612 13.7052 77.6658 13.5583 77.3238C13.4114 76.9817 13.3629 76.6062 13.4182 76.2388C13.4735 75.8713 13.6304 75.5259 13.8717 75.2408C14.113 74.9557 14.4293 74.7418 14.7857 74.6227V76.3558C14.786 76.5277 14.8553 76.6926 14.9786 76.8142C15.1018 76.9357 15.269 77.004 15.4432 77.004C15.6173 77.004 15.7843 76.9357 15.9075 76.8141C16.0306 76.6925 16.0998 76.5276 16.0998 76.3558V74.6219C16.5047 74.7564 16.8564 75.0131 17.1053 75.3559C17.3543 75.6986 17.4878 76.1099 17.4869 76.5317Z" stroke="black" stroke-width="0.3" stroke-miterlimit="10"/>
<path d="M35.1639 66.5727L37.0438 70.5284C37.2218 70.9036 37.3012 71.3171 37.2744 71.7306C37.2476 72.1441 37.1156 72.5443 36.8905 72.894C36.6654 73.2438 36.3546 73.5318 35.9868 73.7314C35.619 73.931 35.2061 74.0358 34.7864 74.036H33.4413C33.3893 74.0359 33.3376 74.046 33.2895 74.0656C33.2414 74.0851 33.1977 74.1139 33.1608 74.1502C33.1239 74.1865 33.0947 74.2297 33.0747 74.2771C33.0547 74.3246 33.0445 74.3756 33.0445 74.4269V76.3559C33.0445 76.5278 32.9753 76.6927 32.8522 76.8143C32.729 76.9358 32.562 77.0041 32.3879 77.0041C32.2138 77.0041 32.0467 76.9358 31.9236 76.8143C31.8005 76.6927 31.7313 76.5278 31.7313 76.3559V74.4261C31.7314 74.3747 31.7212 74.3237 31.7013 74.2762C31.6813 74.2287 31.6522 74.1855 31.6153 74.1491C31.5783 74.1128 31.5345 74.0841 31.4864 74.0645C31.4382 74.0449 31.3866 74.0349 31.3345 74.0352H16.4924C16.4404 74.0351 16.3888 74.0451 16.3407 74.0647C16.2927 74.0843 16.2489 74.1131 16.2122 74.1495C16.1754 74.1857 16.1462 74.2289 16.1264 74.2764C16.1065 74.3239 16.0963 74.3747 16.0964 74.4261V76.355C16.0904 76.523 16.0185 76.6821 15.8959 76.7989C15.7733 76.9156 15.6097 76.9808 15.4394 76.9808C15.2691 76.9808 15.1055 76.9156 14.9829 76.7989C14.8604 76.6821 14.7884 76.523 14.7824 76.355V74.4261C14.7825 74.3747 14.7723 74.3239 14.7525 74.2764C14.7326 74.2289 14.7034 74.1857 14.6666 74.1495C14.6299 74.1131 14.5862 74.0843 14.5381 74.0647C14.49 74.0451 14.4384 74.0351 14.3864 74.0352H12.0795C11.9406 74.0298 11.8092 73.9714 11.7128 73.8725C11.6165 73.7736 11.5627 73.6417 11.5627 73.5044C11.5627 73.3671 11.6165 73.2352 11.7128 73.1363C11.8092 73.0374 11.9406 72.979 12.0795 72.9736H34.3014C34.5815 72.9733 34.8571 72.9033 35.1026 72.7703C35.3483 72.6372 35.556 72.4452 35.7067 72.2121C35.8574 71.9789 35.9464 71.7122 35.9652 71.4362C35.9841 71.1602 35.9323 70.884 35.8146 70.633L33.9037 66.566" stroke="black" stroke-width="0.3" stroke-miterlimit="10"/>
<path d="M41.8947 30.9724L41.6996 31.4854L41.6467 31.6232L41.6307 31.6688C41.6088 31.7298 41.5635 31.78 41.5046 31.8087C41.4457 31.8374 41.3779 31.8423 41.3154 31.8224L39.8332 31.3742L37.5801 30.6902C37.5384 30.6775 37.4998 30.6562 37.4669 30.6279C37.4339 30.5996 37.4073 30.5647 37.3888 30.5256C37.3703 30.4866 37.3602 30.4441 37.3593 30.401C37.3583 30.3579 37.3666 30.315 37.3834 30.2752L38.2073 28.348C38.2384 28.2768 38.2952 28.2195 38.3667 28.1873C38.4382 28.1551 38.5191 28.1503 38.594 28.1737L42.1746 29.29C42.2174 29.3028 42.257 29.3245 42.2906 29.3534C42.3243 29.3824 42.3514 29.4182 42.37 29.4582C42.3887 29.4983 42.3985 29.5419 42.3989 29.5859C42.3993 29.6301 42.3902 29.6737 42.3722 29.7142" stroke="black" stroke-width="0.3" stroke-miterlimit="10"/>
<path d="M41.1532 29.9306L37.9661 28.9122" stroke="black" stroke-width="0.3" stroke-miterlimit="10"/>
<path d="M45.0272 32.3615C45.0272 32.3615 43.8015 34.9935 42.6135 35.6185C42.6049 35.6228 42.5975 35.6292 42.5922 35.6372C42.5869 35.6452 42.5839 35.6544 42.5833 35.6639C42.5828 35.6735 42.5849 35.683 42.5892 35.6915C42.5937 35.7 42.6003 35.7072 42.6085 35.7123L48.1782 39.3418" stroke="black" stroke-width="0.3" stroke-miterlimit="10"/>
<path d="M42.7085 34.4285C42.7085 34.4285 42.0208 35.4179 42.5286 35.6602" stroke="black" stroke-width="0.3" stroke-miterlimit="10"/>
<path d="M43.0894 40.8859C43.0894 40.8859 42.8077 40.8983 43.3727 41.6005C43.9377 42.3027 44.1293 43.639 43.7451 44.5943C43.7451 44.5943 43.7283 44.8433 44.7338 44.5329C45.7393 44.2225 49.2661 43.4962 49.2661 43.4962C49.2661 43.4962 49.8168 43.2099 49.6461 43.9353C49.4755 44.6607 49.1417 47.3292 48.7928 48.0986C48.4439 48.868 48.1043 49.6308 49.3048 49.9196C50.5053 50.2084 57.0545 50.816 57.0545 50.816C57.0545 50.816 61.5104 51.7913 61.4633 49.771C61.4162 47.7508 61.0892 41.935 61.0892 41.935C61.0892 41.935 61.1161 37.4455 61.4162 34.7912C61.4162 34.7912 62.1997 28.0474 59.8701 27.4241C57.5405 26.8008 56.7494 27.464 56.1583 27.7785C55.5673 28.0931 50.3574 30.7815 50.0732 36.3275C50.0732 36.3275 50.0539 38.4706 49.6142 38.7901C49.1745 39.1097 44.0293 40.8668 43.0894 40.8859Z" fill="#2E2E2E"/>
<path d="M51.4411 76.2595L50.8526 78.5495H43.6871C43.5298 78.5484 43.3792 78.4871 43.2668 78.3785C43.1916 78.3039 43.138 78.2109 43.1116 78.1091C43.0852 78.0071 43.0869 77.9001 43.1166 77.7991C43.1463 77.698 43.2029 77.6067 43.2805 77.5347C43.358 77.4626 43.4537 77.4123 43.5577 77.3891L47.852 76.2595C47.852 76.2595 50.3381 77.1219 51.4411 76.2595Z" fill="#2E2E2E"/>
<path d="M59.7676 50.9428C59.7129 50.9428 59.6558 50.9478 59.5994 50.9478C59.3752 52.3771 59.1259 53.8016 58.8512 55.2215C55.6413 54.5118 51.2065 55.7701 51.2065 55.7701L51.2999 56.2681C50.5684 56.3071 50.344 56.0407 50.344 56.0407L50.1826 55.9419L50.5853 52.4335L50.5079 52.0185V52.0052C50.46 51.7612 50.4146 51.5147 50.3709 51.2707L50.3549 51.181C50.291 50.8034 50.2313 50.4241 50.1783 50.0464L50.2313 50.0539C50.2498 50.0539 50.2675 50.0605 50.2885 50.0622L50.3339 50.0697C50.3734 50.0738 50.4121 50.0804 50.4507 50.0854C50.5348 50.0962 50.6433 50.112 50.7643 50.1302C50.8122 50.1302 50.8627 50.1419 50.9157 50.151C52.7383 50.4008 57.4867 51.0109 59.7676 50.9428Z" fill="#3FBDF1"/>
<path d="M54.9671 62.4882L54.9561 62.5315L51.4411 76.2596L50.8526 78.5495H43.6871C43.5298 78.5485 43.3792 78.4872 43.2668 78.3786C43.1916 78.304 43.1381 78.2109 43.1117 78.109C43.0853 78.007 43.087 77.9 43.1167 77.7989C43.1464 77.6979 43.203 77.6065 43.2805 77.5343C43.3581 77.4621 43.4538 77.4118 43.5577 77.3885L47.8521 76.2596L50.1825 55.942L50.5852 52.4336" stroke="black" stroke-width="0.3" stroke-miterlimit="10"/>
<path d="M43.9292 43.556C43.677 43.5676 43.5358 43.5701 43.5358 43.5701C43.2836 43.5875 43.0389 43.4929 42.7968 43.3643C42.1494 43.0115 41.529 42.3932 40.9069 42.9127C40.5041 43.2447 40.1721 44.1793 39.5062 43.8747C38.9253 43.6083 38.948 43.0447 39.0438 42.5285C39.1632 41.8894 39.687 41.32 40.3049 41.2179C41.1557 41.076 42.0301 41.0693 42.8859 40.9224C44.6098 40.6112 46.297 40.1267 47.921 39.4765C49.7243 38.7669 51.6916 38.0357 53.0233 36.5782C54.6047 34.8526 55.6093 32.5942 56.1583 30.3482" stroke="black" stroke-width="0.3" stroke-miterlimit="10"/>
<path d="M52.8333 21.0686C52.8333 21.0686 52.9905 18.4848 55.4337 17.8797C57.8768 17.2746 59.3346 20.0767 59.4447 21.8753C59.5549 23.6739 59.4447 24.9148 60.7285 25.4808C60.7285 25.4808 64.4386 25.436 65.8056 28.8008C65.8056 28.8008 65.9906 30.45 65.9149 31.5116C65.8392 32.5732 67.181 33.5036 67.9116 33.8306C68.6422 34.1577 69.9134 35.4906 69.5678 37.6677C69.2223 39.8448 66.3378 40.8599 66.3378 40.8599C66.3378 40.8599 63.8728 41.5803 62.3864 40.3777C60.8084 39.102 61.2548 36.7688 61.2548 36.7688C61.2548 36.7688 62.1064 29.181 60.5562 27.9343C59.7028 27.2479 59.3153 27.3102 58.7125 26.9483C58.0777 26.5673 57.8507 26.4503 57.638 26.1822C57.2244 25.6568 56.4913 24.8633 57.0218 22.9917C57.5523 21.12 57.0218 22.0637 56.5173 21.7998C56.5173 21.7998 55.8986 20.8569 54.9645 21.5234C54.0305 22.1899 54.2583 20.5639 54.2583 20.5639L53.8481 21.1084C53.8481 21.1084 53.2066 21.2354 52.8333 21.0686Z" fill="#3FBDF1"/>
<path d="M52.2583 21.9619C52.2356 20.7559 52.6912 19.4013 53.6404 18.5979C53.7693 18.4883 53.9077 18.3903 54.054 18.3049C55.0797 17.7065 56.5047 17.7604 57.5254 18.3422C58.0681 18.6605 58.5209 19.1087 58.8419 19.6453L58.8503 19.6603C59.2458 20.3328 59.4511 21.0979 59.4447 21.8756C59.4498 22.8865 59.4556 24.2585 60.1131 25.0976C60.5284 25.6288 61.0808 25.4794 61.6886 25.5699C62.5117 25.692 63.2923 26.0095 63.9636 26.4953C64.8699 27.1535 65.6248 28.1354 65.8333 29.2443C66.0343 30.3117 65.6417 31.5152 66.2243 32.502C66.6514 33.2233 67.4635 33.5528 68.1512 33.9736C69.5317 34.8285 69.8158 36.4852 69.3786 37.9427C68.923 39.4624 67.8519 40.3962 66.3378 40.8618C66.3378 40.8618 61.2212 42.1068 61.1581 37.6796" stroke="black" stroke-width="0.3" stroke-miterlimit="10"/>
<path d="M54.1869 20.4877C54.1339 20.843 53.9153 21.1708 53.5261 21.2688C53.0872 21.3792 52.8535 21.8008 52.7308 22.2249C52.5551 22.8472 52.6005 23.5099 52.8594 24.1032C53.099 24.661 53.5269 25.2984 54.2499 25.4005C55.5732 25.5864 56.2315 25.0361 56.2315 25.0361" stroke="black" stroke-width="0.3" stroke-miterlimit="10"/>
<path d="M55.2891 22.3858C55.4149 22.3858 55.5169 22.2852 55.5169 22.1609C55.5169 22.0367 55.4149 21.936 55.2891 21.936C55.1632 21.936 55.0612 22.0367 55.0612 22.1609C55.0612 22.2852 55.1632 22.3858 55.2891 22.3858Z" fill="black"/>
<path d="M53.2906 22.2383C53.4165 22.2383 53.5185 22.1376 53.5185 22.0134C53.5185 21.8892 53.4165 21.7885 53.2906 21.7885C53.1648 21.7885 53.0628 21.8892 53.0628 22.0134C53.0628 22.1376 53.1648 22.2383 53.2906 22.2383Z" fill="black"/>
<path d="M54.1869 20.4877C54.1368 20.7012 54.1446 20.9239 54.2096 21.1335C54.2196 21.1674 54.2325 21.2005 54.2482 21.2322C54.4063 21.5983 54.7737 21.8904 55.4252 21.8539C56.8402 21.7767 57.3446 21.6879 57.2294 22.3295C57.1818 22.5565 57.1131 22.7788 57.0243 22.9935C56.8688 23.401 56.7603 24.1007 56.92 24.8627C57.1042 25.7533 57.5413 26.6629 59.0151 27.1692" stroke="black" stroke-width="0.3" stroke-miterlimit="10"/>
<path d="M54.3104 22.2158C54.3104 22.2158 54.0717 23.0773 54.096 23.2043C54.1204 23.3313 54.4256 23.2325 54.4256 23.2325" stroke="black" stroke-width="0.3" stroke-miterlimit="10"/>
<path d="M54.4786 24.022C54.9351 24.2652 55.4647 24.1117 55.6716 23.705" stroke="black" stroke-width="0.3" stroke-miterlimit="10"/>
<path d="M56.4078 23.0552C56.8004 22.6445 56.7733 21.9897 56.3472 21.5926C55.9212 21.1954 55.2574 21.2065 54.8647 21.6171C54.472 22.0278 54.4991 22.6826 54.9253 23.0797C55.3513 23.4769 56.0151 23.4658 56.4078 23.0552Z" stroke="black" stroke-width="0.3" stroke-miterlimit="10"/>
<path d="M53.7571 22.815C54.1498 22.4043 54.1227 21.7495 53.6965 21.3523C53.2705 20.9553 52.6067 20.9662 52.214 21.3769C51.8214 21.7876 51.8485 22.4424 52.2746 22.8395C52.7006 23.2366 53.3644 23.2256 53.7571 22.815Z" stroke="black" stroke-width="0.3" stroke-miterlimit="10"/>
<path d="M52.9653 21.3792C52.988 21.378 53.0107 21.378 53.0334 21.3792C53.2274 21.3969 53.4068 21.4885 53.5337 21.6347C53.6605 21.7808 53.7247 21.9698 53.7127 22.1619C53.7019 22.3382 53.623 22.5036 53.4922 22.6241C53.3614 22.7446 53.1888 22.8109 53.0099 22.8093C52.9872 22.8093 52.9645 22.8093 52.9418 22.8093C52.7479 22.7911 52.5687 22.6993 52.442 22.5533C52.3152 22.4073 52.2509 22.2185 52.2625 22.0266C52.2732 21.8503 52.3522 21.6848 52.483 21.5644C52.6138 21.4439 52.7864 21.3775 52.9653 21.3792ZM52.9653 21.2257C52.7472 21.2245 52.5369 21.3058 52.3773 21.4526C52.2178 21.5994 52.121 21.8009 52.1069 22.0158C52.0925 22.2478 52.1701 22.4762 52.3233 22.6528C52.4764 22.8294 52.6931 22.9402 52.9275 22.962C52.9552 22.962 52.9829 22.9662 53.0115 22.9662C53.2298 22.967 53.44 22.8857 53.5996 22.7387C53.7591 22.5917 53.8558 22.3901 53.8699 22.1752C53.884 21.9432 53.8064 21.7149 53.6533 21.5383C53.5002 21.3619 53.2837 21.2509 53.0494 21.229C53.0216 21.229 52.9939 21.229 52.9653 21.229V21.2257Z" fill="white"/>
<path d="M54.5887 22.2408L54.0322 22.1902" stroke="black" stroke-width="0.3" stroke-miterlimit="10"/>
<path d="M55.6128 21.5974H55.6825C55.8825 21.616 56.0672 21.7105 56.1979 21.861C56.3285 22.0115 56.3949 22.2063 56.3829 22.4042C56.3708 22.5853 56.289 22.755 56.1543 22.8784C56.0195 23.0019 55.842 23.0698 55.6582 23.0682C55.6346 23.0682 55.6119 23.0682 55.5884 23.0682C55.3884 23.0496 55.2037 22.9551 55.073 22.8045C54.9424 22.654 54.876 22.4593 54.8881 22.2614C54.8999 22.0802 54.9816 21.9103 55.1164 21.7868C55.2512 21.6633 55.4288 21.5955 55.6128 21.5974ZM55.6128 21.4439C55.3888 21.4423 55.1728 21.5254 55.0088 21.6759C54.8448 21.8265 54.7454 22.0333 54.7308 22.254C54.7162 22.4916 54.7957 22.7256 54.9526 22.9065C55.1095 23.0874 55.3314 23.201 55.5716 23.2234C55.6001 23.2234 55.6279 23.2275 55.6556 23.2275C55.8793 23.2284 56.0948 23.145 56.2583 22.9942C56.4217 22.8436 56.5206 22.6369 56.535 22.4166C56.5509 22.1786 56.4718 21.9439 56.3148 21.7628C56.1576 21.5816 55.9349 21.4684 55.6943 21.4472C55.6657 21.4472 55.638 21.4472 55.6102 21.4472L55.6128 21.4439Z" fill="white"/>
<path d="M53.6477 22.713C53.9846 22.3607 53.9612 21.7988 53.5956 21.4581C53.23 21.1173 52.6604 21.1267 52.3235 21.479C51.9866 21.8313 52.0099 22.3932 52.3755 22.734C52.7413 23.0748 53.3108 23.0654 53.6477 22.713Z" fill="#3FBDF1"/>
<path d="M56.3022 22.9556C56.6407 22.6016 56.6173 22.0372 56.25 21.6948C55.8826 21.3524 55.3104 21.3619 54.9719 21.7159C54.6335 22.0699 54.6568 22.6343 55.0241 22.9767C55.3915 23.3191 55.9637 23.3096 56.3022 22.9556Z" fill="#3FBDF1"/>
<path d="M55.289 28.2025L54.9797 26.8811L54.6434 25.456" stroke="black" stroke-width="0.3" stroke-miterlimit="10"/>
<path d="M70.2227 72.6782L65.3146 78.343C65.2174 78.4558 65.0807 78.5284 64.9317 78.5461C64.7827 78.5637 64.6325 78.5253 64.5109 78.4384L64.3764 78.3413C64.2636 78.26 64.183 78.1424 64.1488 78.0087C64.1145 77.875 64.1287 77.7337 64.1889 77.6092L66.1175 73.6468C66.1175 73.6468 69.1861 73.734 69.1609 70.9261C69.8562 72.3446 70.2227 72.6782 70.2227 72.6782Z" fill="#2E2E2E"/>
<path d="M61.9282 69.0733L61.8937 69.0392L60.6032 67.8283L60.541 67.7718L55.1503 62.7088V62.7038L55.1428 62.6972L54.9603 62.5312L53.3218 60.9932C52.4244 60.1497 51.8205 59.0474 51.5966 57.8442L51.2998 56.2738L51.2057 55.7758L50.5852 52.4417L50.5079 52.0267V52.0134C50.4599 51.7694 50.4145 51.5229 50.3708 51.2789L50.3549 51.1892" stroke="black" stroke-width="0.3" stroke-miterlimit="10"/>
<path d="M50.1758 50.049C50.2287 50.4267 50.2884 50.806 50.3523 51.1836L50.3683 51.2733C50.412 51.5173 50.4574 51.7638 50.5053 52.0078V52.0211" stroke="black" stroke-width="0.3" stroke-linejoin="round"/>
<path d="M55.1378 62.7007L55.1443 62.7072L55.1492 62.7122" stroke="black" stroke-width="0.3" stroke-linejoin="round"/>
<path d="M60.5402 67.7719L60.6024 67.8283C61.0687 68.2599 61.4988 68.6636 61.8929 69.0393L61.9265 69.0733C67.0961 74.0044 66.1166 73.6466 66.1166 73.6466L64.1872 77.6091C64.1273 77.7336 64.1133 77.875 64.1477 78.0086C64.1821 78.1423 64.2627 78.2599 64.3755 78.3411L64.51 78.4382C64.6316 78.5251 64.7818 78.5636 64.9308 78.5459C65.0798 78.5282 65.2166 78.4557 65.3138 78.3428L70.221 72.678C70.221 72.678 69.8553 72.346 69.1601 70.9259C67.4895 67.508 63.9224 61.2008 59.0117 57.914C58.829 57.7929 58.6866 57.6211 58.6026 57.4202C58.5187 57.2193 58.497 56.9983 58.5401 56.7852C58.6343 56.3353 58.7234 55.8855 58.8108 55.4339C58.8243 55.3642 58.8377 55.2937 58.8495 55.224C59.1235 53.803 59.373 52.3785 59.5977 50.9503" stroke="black" stroke-width="0.3" stroke-linejoin="round"/>
<path d="M49.8546 38.6838C49.9303 37.6048 50.0228 36.6279 50.1228 35.7788C50.1363 35.6502 50.1522 35.5232 50.1657 35.3987C50.3708 33.5486 51.3872 31.8786 52.6374 30.5249C53.8732 29.1869 55.4462 27.8863 57.2311 27.3593C57.806 27.1804 58.4113 27.1158 59.0117 27.1692C59.4238 27.2182 59.8177 27.3653 60.1594 27.5979C60.5011 27.8306 60.7803 28.1418 60.9731 28.5047C61.2124 28.9687 61.3651 29.4713 61.4237 29.9887C61.4237 29.9954 61.4237 30.002 61.4237 30.0095C61.5288 30.8395 61.4691 31.7101 61.4784 32.5343C61.4944 34.2541 61.3456 35.9705 61.153 37.6803" stroke="black" stroke-width="0.3" stroke-linejoin="round"/>
<path d="M49.705 42.9849V42.9823" stroke="black" stroke-width="0.3" stroke-linejoin="round"/>
<path d="M42.8885 40.919C43.6846 41.8386 44.1806 43.1808 43.8393 44.3809C43.7552 44.6656 43.4509 45.0516 43.1743 44.7005C43.1043 44.6011 43.0575 44.4878 43.0373 44.3685C42.9591 44.0307 42.8565 43.6987 42.7968 43.3559" stroke="black" stroke-width="0.3" stroke-miterlimit="10"/>
<path d="M43.4996 44.8366C50.0026 43.1401 59.211 42.5657 61.1942 33.615C61.4539 32.4232 61.5315 31.1998 61.4246 29.9854" stroke="black" stroke-width="0.3" stroke-miterlimit="10"/>
<path d="M49.6865 43.3892C49.5578 45.5306 48.8785 47.8712 48.5036 49.0332C48.4742 49.1233 48.4651 49.2186 48.4767 49.3126C48.4884 49.4065 48.5205 49.4968 48.5709 49.5773C48.6214 49.6578 48.6889 49.7266 48.7688 49.7788C48.8488 49.831 48.9393 49.8654 49.0341 49.8798C49.3409 49.9271 49.7293 49.9835 50.1758 50.0458L50.2287 50.0532C50.2472 50.0532 50.2649 50.0599 50.2859 50.0615L50.3313 50.069C50.3708 50.0732 50.4095 50.0798 50.4482 50.0848C50.549 50.1006 50.6541 50.1138 50.7617 50.1296C50.8097 50.1296 50.8601 50.1412 50.9131 50.1504C53.5193 50.5156 57.4018 50.9928 59.5985 50.9455C59.6557 50.9455 59.7129 50.9455 59.7667 50.9405L59.9348 50.9339L60.0979 50.9247C60.6982 50.8816 61.1068 50.7803 61.2237 50.6019C61.9803 49.4722 60.5763 42.98 61.2489 36.7658" stroke="black" stroke-width="0.3" stroke-miterlimit="10"/>
<path d="M67.176 78.5504H5.61603" stroke="black" stroke-width="0.3" stroke-linejoin="round"/>
<path d="M8.46856 59.5195C8.46856 59.5195 0.132834 69.1715 8.46856 78.4501" stroke="#CCDDE2" stroke-width="0.3" stroke-miterlimit="10"/>
</svg>
