<svg width="84" height="83" viewBox="0 0 84 83" fill="none" xmlns="http://www.w3.org/2000/svg">
<path d="M19.2762 35.2069C19.2762 35.2069 14.7648 21.9866 30.5009 23.6001C46.237 25.2137 38.7184 19.3622 44.6647 15.7309C50.611 12.0997 68.1314 23.3968 60.8014 34.293C53.4714 45.1893 72.5155 35.2218 76.4881 51.6077C78.9395 61.7195 72.8574 69.1622 67.8398 73.381" stroke="#CCDDE2" stroke-width="0.3" stroke-miterlimit="10"/>
<path d="M69.3743 60.7479C68.1918 53.966 64.0046 47.897 57.2018 45.7249C55.4616 45.1724 53.682 44.7492 51.8782 44.4591V44.4683C51.7842 45.0313 51.5614 45.5656 51.227 46.0303C50.518 46.9923 49.5408 47.7825 48.4093 48.1941C47.2544 48.6174 45.8238 48.6722 44.7519 48.0066C44.1065 47.6065 43.4805 46.9018 43.3673 46.1415C43.2383 45.285 43.6791 44.4741 44.2993 43.908C39.0428 43.9504 34.098 44.8069 30.1355 45.7822C30.2728 46.3516 30.463 46.9073 30.7037 47.4422C31.0405 48.1877 31.5165 48.8636 32.1067 49.4342C32.8428 48.712 33.4873 47.9037 34.0259 47.0272C34.5412 47.1942 34.9956 47.5076 35.3325 47.9283C35.6693 48.349 35.874 48.8585 35.9208 49.3935V49.4209C36.1287 51.3639 34.2396 52.8239 32.6523 53.7219C30.8185 54.7661 28.7744 55.5479 26.7663 56.1978C25.9383 56.4667 24.8622 56.6958 23.988 56.4153C23.8939 56.3856 23.802 56.3492 23.7131 56.3066C22.8415 55.8833 22.2582 54.996 21.8031 54.1851C20.5066 51.8818 19.6634 49.3711 19.0919 46.7939C15.1251 47.2961 14.6709 44.6359 14.4354 43.9835L11.0419 53.3783C10.8639 54.0536 10.8447 54.7604 10.9856 55.4442C11.1266 56.128 11.424 56.7708 11.8551 57.323C12.286 57.8752 12.8392 58.3221 13.4718 58.6296C14.1046 58.937 14.8 59.0966 15.5048 59.0962H29.553L35.9343 75.3061L37.7429 79.9068H48.0733C47.2352 79.9068 46.7767 79.7043 46.444 79.3739C46.1004 79.0335 45.9069 78.5721 45.9059 78.0907C45.9059 77.0947 46.7315 76.278 48.0733 76.278H48.168C48.0665 76.278 47.9693 76.2689 47.8679 76.2598C47.9308 76.253 47.9931 76.2427 48.0548 76.229C47.9884 76.2275 47.9221 76.2225 47.8562 76.2141C48.4614 76.1433 49.0222 75.8642 49.4406 75.4254C49.859 74.9866 50.1083 74.4162 50.145 73.8137C50.1467 73.7825 50.1467 73.7512 50.145 73.72V73.6718C50.1306 73.0542 49.8922 72.4623 49.4735 72.0044C49.0548 71.5464 48.4837 71.253 47.8646 71.1777C47.935 71.1719 48.002 71.166 48.0699 71.166C48.0087 71.1511 47.9408 71.142 47.8771 71.1328C47.9777 71.1237 48.0791 71.1171 48.1763 71.1171L55.7343 71.1569L57.1247 71.1627H58.7749C58.8512 71.1627 58.9283 71.1627 59.0012 71.1719L61.4526 71.1843L63.0903 71.1934C63.7748 71.1991 64.429 71.473 64.91 71.9552C65.3911 72.4374 65.6598 73.0886 65.6574 73.7664C65.6565 74.1497 65.5668 74.5276 65.395 74.8712C66.0977 74.7821 66.7492 74.4603 67.2439 73.9582C68.4231 72.7655 68.931 70.9801 69.2821 69.3932C69.9032 66.5662 69.8663 63.5873 69.3743 60.7479ZM50.2791 60.9388C48.8552 63.1092 46.4306 62.9142 46.4306 62.9142C46.4306 62.9142 46.2294 63.1084 45.7601 62.2817C45.2908 61.455 43.954 60.8898 43.954 60.8898C43.8476 61.7198 43.6271 62.9814 41.4397 61.3463C39.2523 59.7112 39.9119 57.3275 40.0988 56.0683C40.2857 54.8092 41.0307 54.3917 41.0307 54.3917L41.9107 53.9319C41.9107 53.9319 39.3654 53.2837 39.2431 53.2596C39.1207 53.2356 36.8536 51.3556 39.1542 50.8593C41.4548 50.3629 45.041 52.3367 45.7341 52.7268C46.4272 53.1169 50.4778 56.5099 50.4778 56.5099C50.4778 56.5099 51.7106 58.7717 50.2791 60.9388Z" fill="#353642"/>
<path d="M19.0885 46.7954C19.0885 46.7954 21.0069 46.5647 21.7252 45.2084L21.0991 48.687C21.0991 48.687 28.7308 46.114 30.1304 45.782C30.1304 45.782 30.5813 48.6612 32.3765 49.434L34.2287 47.1017C34.2287 47.1017 36.5511 47.6827 35.9158 50.8167C35.2805 53.9508 26.4939 56.5703 25.0038 56.5097C23.5137 56.4491 21.9095 55.5411 20.2669 50.6615L19.0885 46.7954Z" fill="#353642"/>
<path d="M22.2138 39.0466C22.6999 39.8301 23.1885 40.612 23.693 41.3839C24.0039 41.8594 24.5705 42.5376 23.9679 43.0347C23.7718 43.1836 23.5349 43.2704 23.2882 43.2837C22.901 43.3178 22.4945 43.2256 22.259 42.8961L21.0857 40.9705C20.8519 40.5865 20.4805 40.3038 20.0457 40.1785C19.6108 40.0534 19.1443 40.0949 18.739 40.2949" stroke="black" stroke-width="0.3" stroke-miterlimit="10"/>
<path d="M26.6515 41.5828C26.9582 42.3049 26.7504 42.7705 26.3917 43.0046C25.805 43.3856 25.0197 43.203 24.604 42.6469L22.218 39.0505" stroke="black" stroke-width="0.3" stroke-miterlimit="10"/>
<path d="M24.2336 38.0008C25.1019 39.0466 26.1972 40.9888 26.8032 41.7997C27.4091 42.6106 28.3461 42.1218 28.3461 42.1218C29.1071 41.7159 28.9781 41.0428 28.6453 40.2252C27.8257 38.2183 26.6557 36.8836 25.3508 36.0088C21.307 33.2997 17.1584 35.2983 15.9239 39.9746L11.0419 53.3782C10.8639 54.0536 10.8447 54.7604 10.9856 55.4442C11.1266 56.128 11.424 56.7708 11.8551 57.323C12.286 57.8752 12.8392 58.3221 13.4718 58.6296C14.1046 58.9369 14.8 59.0965 15.5048 59.0961H29.553L37.7454 79.9075" stroke="black" stroke-width="0.3" stroke-miterlimit="10"/>
<path d="M29.2496 39.3046C30.2553 38.9593 30.2092 37.3707 28.7819 36.8345C27.2055 36.2419 24.4062 35.4036 23.7031 35.1945C23.6987 35.1911 23.6934 35.1892 23.688 35.1887C23.6385 35.1737 23.6042 35.1613 23.5774 35.1555L23.538 35.143" stroke="black" stroke-width="0.3" stroke-miterlimit="10"/>
<path d="M44.1091 55.1883C43.2291 54.1408 40.8204 53.5474 39.2481 53.2602C38.9838 53.211 38.7429 53.0782 38.5614 52.8816C38.3801 52.6851 38.2681 52.4355 38.2424 52.1704C38.2241 51.9916 38.245 51.811 38.3036 51.6408C38.3973 51.3796 38.5769 51.1572 38.8135 51.0091C39.0501 50.8611 39.3301 50.7959 39.6085 50.8241C42.2904 51.093 45.0561 51.9289 47.1019 53.7291C47.1019 53.7291 57.0191 61.224 58.2033 61.9536C58.6919 62.2474 59.1479 61.9005 58.8168 61.439L58.7129 61.263C58.13 60.2723 57.4401 59.3473 56.6554 58.5041" stroke="black" stroke-width="0.3" stroke-miterlimit="10"/>
<path d="M44.2926 43.907C31.82 44.0099 21.0991 48.6861 21.0991 48.6861L22.1693 42.745" stroke="black" stroke-width="0.3" stroke-miterlimit="10"/>
<path d="M63.6644 76.2412C63.6644 76.2412 62.3058 75.9366 61.9446 77.014C61.5834 78.0913 61.2062 79.8052 63.8035 79.9065C66.4008 80.0078 64.8754 79.5023 64.7254 78.6698C64.5754 77.8373 63.6644 76.2412 63.6644 76.2412Z" fill="#353642"/>
<path d="M42.9106 56.5554C42.9106 56.5554 41.4447 55.4548 40.1247 56.5704C40.0692 56.6188 40.0207 56.6747 39.9806 56.7364" stroke="black" stroke-width="0.3" stroke-miterlimit="10"/>
<g opacity="0.77">
<path opacity="0.77" d="M24.599 42.643C25.018 43.1999 25.8025 43.3817 26.3867 42.9999C26.7412 42.7675 26.949 42.3044 26.6498 41.5889C26.7043 41.6678 26.7537 41.7375 26.8023 41.8014C27.4075 42.6156 28.3453 42.1251 28.3453 42.1251C29.1063 41.7192 28.9781 41.0461 28.6453 40.2277C28.3197 39.4171 27.8925 38.6503 27.3739 37.9452C27.7134 37.6306 28.1165 37.3128 28.5414 37.4522C28.9998 37.6033 29.1281 38.1726 29.18 38.6474C29.2043 38.8682 29.2286 39.0865 29.2529 39.3072L29.62 42.5575C29.7424 43.6365 29.8648 44.7313 30.1304 45.7846C30.2678 46.354 30.458 46.9097 30.6987 47.4446C31.0355 48.1902 31.5114 48.866 32.1016 49.4366C32.8377 48.7144 33.4822 47.9061 34.0209 47.0296C34.5361 47.1966 34.9906 47.51 35.3275 47.9307C35.6643 48.3514 35.869 48.8609 35.9158 49.3959V49.4233C36.1237 51.3663 34.2346 52.8263 32.6472 53.7244C30.8135 54.7685 28.7694 55.5504 26.7613 56.2002C25.9332 56.4692 24.8571 56.6982 23.983 56.4177C23.8889 56.388 23.797 56.3516 23.7081 56.309C22.8365 55.8857 22.2532 54.9984 21.7981 54.1875C19.619 50.3072 18.7139 45.8518 18.237 41.4395C19.1908 41.3092 20.1412 41.164 21.0798 40.9639C21.0798 40.9639 21.0798 40.9706 21.0857 40.9731L22.1677 42.7501L22.2565 42.8978C22.4912 43.2298 22.8977 43.3186 23.2857 43.2854C23.5324 43.2733 23.7694 43.1864 23.9646 43.0364C24.5663 42.5384 24.0014 41.8628 23.6897 41.3872" fill="white"/>
<path opacity="0.77" d="M24.599 42.643C25.018 43.1999 25.8025 43.3817 26.3867 42.9999C26.7412 42.7675 26.949 42.3044 26.6498 41.5889C26.7043 41.6678 26.7537 41.7375 26.8023 41.8014C27.4075 42.6156 28.3453 42.1251 28.3453 42.1251C29.1063 41.7192 28.9781 41.0461 28.6453 40.2277C28.3197 39.4171 27.8925 38.6503 27.3739 37.9452C27.7134 37.6306 28.1165 37.3128 28.5414 37.4522C28.9998 37.6033 29.1281 38.1726 29.18 38.6474C29.2043 38.8682 29.2286 39.0865 29.2529 39.3072L29.62 42.5575C29.7424 43.6365 29.8648 44.7313 30.1304 45.7846C30.2678 46.354 30.458 46.9097 30.6987 47.4446C31.0355 48.1902 31.5114 48.866 32.1016 49.4366C32.8377 48.7144 33.4822 47.9061 34.0209 47.0296C34.5361 47.1966 34.9906 47.51 35.3275 47.9307C35.6643 48.3514 35.869 48.8609 35.9158 49.3959V49.4233C36.1237 51.3663 34.2346 52.8263 32.6472 53.7244C30.8135 54.7685 28.7694 55.5504 26.7613 56.2002C25.9332 56.4692 24.8571 56.6982 23.983 56.4177C23.8889 56.388 23.797 56.3516 23.7081 56.309C22.8365 55.8857 22.2532 54.9984 21.7981 54.1875C19.619 50.3072 18.7139 45.8518 18.237 41.4395C19.1908 41.3092 20.1412 41.164 21.0798 40.9639C21.0798 40.9639 21.0798 40.9706 21.0857 40.9731L22.1677 42.7501L22.2565 42.8978C22.4912 43.2298 22.8977 43.3186 23.2857 43.2854C23.5324 43.2733 23.7694 43.1864 23.9646 43.0364C24.5663 42.5384 24.0014 41.8628 23.6897 41.3872" fill="#3FBDF1"/>
<path opacity="0.77" d="M24.8563 42.9062C25.2276 43.4042 25.862 43.3411 26.3867 42.9999C26.7035 42.7924 26.9633 42.853 26.6959 42.2131C26.7454 42.2828 26.7521 42.0471 26.7957 42.0994C27.3362 42.8265 26.8024 41.7989 26.8024 41.7989C27.5566 42.7426 29.1985 41.8537 28.8976 41.1241C28.5791 40.3381 28.2439 39.1761 27.819 38.5951C28.1542 38.2814 28.0897 38.3279 28.5163 38.5777C28.6308 38.6506 28.7268 38.7489 28.7964 38.8649C28.8662 38.9808 28.9077 39.1112 28.9177 39.2459C28.9521 39.5621 28.9864 39.865 29.0208 40.1738L29.3477 43.0788C29.4574 44.0441 29.5664 45.0193 29.8036 45.9589C29.9262 46.4669 30.0962 46.9626 30.3115 47.4396C30.6115 48.0961 31.5753 49.1893 32.1016 49.6897C32.7562 49.0465 33.5407 47.8637 34.0209 47.0777C34.9428 47.3583 34.9026 48.2314 34.9679 49.1851V49.21C35.154 50.9439 33.4677 52.2461 32.0547 53.0488C30.4171 53.9808 28.5925 54.678 26.7998 55.259C26.0606 55.4997 25.1002 55.7072 24.3199 55.4533C24.2358 55.427 24.1536 55.3944 24.0743 55.3562C23.2966 54.9777 22.7753 54.1867 22.3688 53.4621C20.5895 50.2973 19.764 46.7042 19.3098 43.102C19.2764 42.8325 19.3501 42.5607 19.5152 42.3439C19.6803 42.1271 19.9239 41.9823 20.1948 41.94C20.7052 41.857 21.2139 41.774 21.7193 41.6628L21.7335 41.6695L22.699 43.2556C22.9094 43.5502 22.9438 43.3195 23.2899 43.2896C23.5086 43.2705 23.9327 43.2282 24.102 43.0879C24.6392 42.6447 24.3358 42.4613 24.0576 42.0371" fill="#3FBDF1"/>
</g>
<path d="M42.7337 58.1574C42.7337 58.1574 39.9504 57.2511 39.9085 58.7749" stroke="black" stroke-width="0.3" stroke-miterlimit="10"/>
<path opacity="0.54" d="M17.8196 73.6806L12.3611 59.8312C12.2935 59.5632 12.2884 59.2835 12.3463 59.0132C12.4042 58.7431 12.5235 58.4894 12.6952 58.2717C12.8669 58.054 13.0864 57.8779 13.3371 57.7568C13.5878 57.6357 13.8631 57.5728 14.1421 57.5728H35.8236C36.3105 57.5727 36.7832 57.7349 37.1656 58.0334C37.5479 58.3318 37.8177 58.749 37.9314 59.2178L43.9071 73.0639C43.9717 73.331 43.9743 73.6091 43.9148 73.8774C43.8552 74.1456 43.7351 74.397 43.5634 74.6127C43.3916 74.8284 43.1728 75.0027 42.9233 75.1226C42.6738 75.2425 42.4001 75.3048 42.1228 75.3049H19.9224C19.4392 75.3052 18.9697 75.1454 18.5887 74.8511C18.2077 74.5568 17.937 74.1448 17.8196 73.6806Z" fill="white"/>
<path d="M43.6397 60.4936C43.6397 60.4936 44.0914 60.9036 43.9196 61.4896C43.7922 61.9237 43.3564 62.1976 42.9248 62.049C41.5503 61.5784 40.3125 60.7791 40.0108 59.4204C39.8682 58.7325 39.8374 58.0264 39.9194 57.3288C39.9856 56.6822 40.082 55.9842 40.3016 55.3691C40.6368 54.4246 41.6635 53.7664 42.66 54.2213" stroke="black" stroke-width="0.3" stroke-miterlimit="10"/>
<path d="M17.8196 73.6806L12.3611 59.8312C12.2935 59.5632 12.2884 59.2835 12.3463 59.0132C12.4042 58.7431 12.5235 58.4894 12.6952 58.2717C12.8669 58.054 13.0864 57.8779 13.3371 57.7568C13.5878 57.6357 13.8631 57.5728 14.1421 57.5728H35.8236C36.3105 57.5727 36.7832 57.7349 37.1656 58.0334C37.5479 58.3318 37.8177 58.749 37.9314 59.2178L43.9071 73.0639C43.9717 73.331 43.9743 73.6091 43.9148 73.8774C43.8552 74.1456 43.7351 74.397 43.5634 74.6127C43.3916 74.8284 43.1728 75.0027 42.9233 75.1226C42.6738 75.2425 42.4001 75.3048 42.1228 75.3049H19.9224C19.4392 75.3052 18.9697 75.1454 18.5887 74.8511C18.2077 74.5568 17.937 74.1448 17.8196 73.6806Z" fill="#3FBDF1"/>
<path d="M17.8196 73.6806L12.3611 59.8312C12.2935 59.5632 12.2884 59.2835 12.3463 59.0132C12.4042 58.7431 12.5235 58.4894 12.6952 58.2717C12.8669 58.054 13.0864 57.8779 13.3371 57.7568C13.5878 57.6357 13.8631 57.5728 14.1421 57.5728H35.8236C36.3105 57.5727 36.7832 57.7349 37.1656 58.0334C37.5479 58.3318 37.8177 58.749 37.9314 59.2178L43.9071 73.0639C43.9717 73.331 43.9743 73.6091 43.9148 73.8774C43.8552 74.1456 43.7351 74.397 43.5634 74.6127C43.3916 74.8284 43.1728 75.0027 42.9233 75.1226C42.6738 75.2425 42.4001 75.3048 42.1228 75.3049H19.9224C19.4392 75.3052 18.9697 75.1454 18.5887 74.8511C18.2077 74.5568 17.937 74.1448 17.8196 73.6806Z" stroke="black" stroke-width="0.3" stroke-linecap="square" stroke-linejoin="round"/>
<path d="M18.6183 73.1228L13.5822 60.3408C13.5199 60.0935 13.5154 59.8355 13.5689 59.5863C13.6223 59.337 13.7325 59.103 13.891 58.9023C14.0494 58.7015 14.2519 58.539 14.4832 58.4273C14.7145 58.3156 14.9684 58.2575 15.2257 58.2575H35.2277C35.6768 58.2573 36.1128 58.407 36.4656 58.6822C36.8184 58.9574 37.0673 59.3423 37.1721 59.7747L42.686 72.5493C42.7455 72.7958 42.7478 73.0524 42.6928 73.2999C42.6379 73.5474 42.5269 73.7793 42.3684 73.9783C42.21 74.1772 42.008 74.3381 41.7778 74.4486C41.5476 74.5593 41.295 74.6168 41.0391 74.6168H20.5577C20.1126 74.6172 19.6801 74.4704 19.3289 74.1998C18.9775 73.9292 18.7275 73.5502 18.6183 73.1228Z" fill="#3FBDF1"/>
<path d="M61.4258 71.1177L65.2609 79.9066" stroke="black" stroke-width="0.3" stroke-miterlimit="10"/>
<path d="M79.6192 79.9066H4.19049" stroke="black" stroke-width="0.3" stroke-miterlimit="10"/>
<path d="M43.9473 40.2391C43.3254 40.8475 42.3968 40.8467 41.868 40.284" stroke="black" stroke-width="0.3" stroke-miterlimit="10"/>
<path d="M27.3739 37.9425C27.7134 37.628 28.1165 37.3101 28.5414 37.4495C28.9998 37.6006 29.1281 38.17 29.18 38.6447C29.327 39.9495 29.4736 41.2529 29.62 42.5549C29.8061 44.2149 30.0022 45.9147 30.6987 47.4402C31.0355 48.1858 31.5114 48.8617 32.1016 49.4322" stroke="black" stroke-width="0.3" stroke-miterlimit="10"/>
<path d="M35.9158 49.4223V49.3949C35.869 48.86 35.6643 48.3504 35.3275 47.9297C34.9906 47.5091 34.5361 47.1956 34.0209 47.0286C33.4822 47.9051 32.8377 48.7135 32.1016 49.4356C30.1717 51.336 27.6926 52.5946 25.008 53.0369C25.137 53.5457 25.4027 54.0089 25.5863 54.4986C25.7698 54.9883 25.8612 55.5552 25.6382 56.0274C25.3566 56.63 24.5487 56.5512 23.9872 56.4175C23.9813 56.4175 23.978 56.4175 23.9721 56.4175" stroke="black" stroke-width="0.3" stroke-miterlimit="10"/>
<path d="M21.0815 40.9631C20.1428 41.1631 19.1924 41.3084 18.2387 41.4387C18.7156 45.8509 19.6173 50.3064 21.7998 54.1866C22.2548 54.9975 22.8382 55.8848 23.7098 56.3081C23.7987 56.3509 23.8906 56.3872 23.9847 56.4168C24.8588 56.7015 25.9349 56.4683 26.763 56.1994C28.7744 55.5487 30.8152 54.7676 32.6489 53.7235C34.2321 52.8246 36.1212 51.3655 35.9175 49.4224C35.8978 49.2085 35.8536 48.9974 35.7859 48.7933" stroke="black" stroke-width="0.3" stroke-miterlimit="10"/>
<path d="M36.7774 32.1615C36.918 32.7424 37.2391 33.2648 37.6954 33.6552C38.1518 34.0457 38.7203 34.2844 39.321 34.3378C39.3709 34.0982 39.4791 33.8742 39.6361 33.6855C40.3066 32.9028 40.5924 34.3711 42.7371 33.317C45.709 31.8528 46.8371 32.6928 46.8371 32.6928C46.9359 32.7658 46.9209 33.4397 46.9376 33.5626C47.0214 34.2623 47.0969 34.9586 47.1798 35.6575C47.2301 36.0841 47.2796 36.5075 47.3265 36.9308C47.367 36.8587 47.4117 36.7891 47.4606 36.7224C47.7313 35.7737 48.2149 34.6533 49.2575 35.1355C49.4686 35.2374 49.6524 35.3872 49.7939 35.5728C50.4853 36.4725 49.9615 37.3416 49.2382 37.9848C49.0569 38.1844 48.8543 38.3639 48.6339 38.5202C48.7529 38.7643 49.239 39.7329 49.239 39.7362C49.2893 39.8341 50.9881 37.93 51.1147 37.7225C51.3038 37.2142 51.4052 36.6781 51.4147 36.1365C51.4424 33.9096 50.5272 31.3174 48.706 30.04C48.2543 29.7238 48.3984 29.4192 48.3708 28.9893C48.3688 28.966 48.3599 28.9439 48.345 28.9259C48.3301 28.9078 48.31 28.8946 48.2875 28.888C48.2648 28.8814 48.2408 28.8819 48.2184 28.8891C48.196 28.8964 48.1764 28.9102 48.1621 28.9288C47.5913 29.5795 46.1783 29.5147 46.1783 29.5147C41.2738 28.298 39.6252 30.4576 38.6354 30.8427C38.2316 30.9942 37.787 31.0015 37.3783 30.8635C37.3542 30.9974 37.2936 31.1224 37.2031 31.2248C37.1125 31.3272 36.9955 31.4032 36.8645 31.4445L36.8897 31.6693C36.9111 31.8414 36.8713 32.0154 36.7774 32.1615Z" fill="#3FBDF1"/>
<path d="M39.3244 34.3414C38.7237 34.288 38.1551 34.0493 37.6988 33.6588C37.2424 33.2684 36.9213 32.7459 36.7807 32.1652C36.7257 31.9424 36.6909 31.7151 36.6768 31.4862L36.7154 31.4821C36.7681 31.4782 36.82 31.467 36.8696 31.4489C37.0006 31.4075 37.1176 31.3316 37.2082 31.2292C37.2987 31.1268 37.3593 31.0018 37.3833 30.8679C37.3987 30.7936 37.4018 30.7173 37.3925 30.6421L37.2668 29.5432C37.2668 29.5432 38.1535 30.1964 39.1375 29.8146C40.1214 29.4328 41.7733 27.2731 46.6803 28.4866C46.6803 28.4866 47.7883 28.5513 48.3565 27.9006C48.3709 27.882 48.3905 27.8683 48.4128 27.861C48.4352 27.8537 48.4593 27.8534 48.4819 27.86C48.5044 27.8665 48.5246 27.8797 48.5394 27.8977C48.5543 27.9158 48.5633 27.938 48.5652 27.9612C48.5945 28.392 48.7555 28.6966 49.208 29.012C51.0292 30.2902 51.9444 32.8815 51.9159 35.1083C51.9075 36.0321 51.5974 36.9443 51.1189 37.727C50.9923 37.9345 49.2935 39.8385 49.2432 39.7406C49.2432 39.7406 48.7571 38.7686 48.6381 38.5246L48.6096 38.4707L48.6641 38.435C48.8664 38.299 49.0596 38.15 49.2424 37.9893C49.9648 37.346 50.4895 36.477 49.7981 35.5773C49.6565 35.3917 49.4728 35.2418 49.2617 35.1399C48.2157 34.6577 47.7355 35.7782 47.4648 36.7268C47.4122 36.9081 47.3799 37.0946 47.3684 37.2829C47.3558 37.1667 47.3433 37.0547 47.3307 36.9385C47.2838 36.5152 47.2343 36.0919 47.184 35.6653C47.1002 34.9664 47.0214 34.27 46.9418 33.5704C46.9292 33.4508 46.9418 32.7736 46.8412 32.7005C46.8412 32.7005 45.7123 31.8606 42.7413 33.3247C40.5966 34.3788 40.3108 32.9097 39.6403 33.6932C39.4833 33.882 39.3751 34.106 39.3252 34.3456C39.3099 34.4225 39.3 34.5005 39.2959 34.5788C39.2943 34.5889 39.2943 34.5993 39.2959 34.6095C39.2858 34.7813 39.2824 34.9523 39.2783 35.12C39.2623 36.7376 39.4417 38.4275 40.0828 39.9298C40.8623 41.7508 42.9248 43.547 45.0695 42.6979C45.74 42.4314 46.3409 42.0023 46.8907 41.5467" stroke="black" stroke-width="0.3" stroke-miterlimit="10"/>
<path d="M40.792 38.2868C41.0053 38.216 41.1082 37.9515 41.0219 37.696C40.9356 37.4403 40.6926 37.2904 40.4792 37.3611C40.2659 37.4318 40.163 37.6963 40.2494 37.9519C40.3358 38.2076 40.5787 38.3575 40.792 38.2868Z" fill="black"/>
<path d="M43.9832 38.1856C44.1965 38.1149 44.2994 37.8504 44.2131 37.5948C44.1267 37.3391 43.8838 37.1892 43.6704 37.2599C43.4571 37.3307 43.3542 37.5952 43.4405 37.8507C43.5268 38.1064 43.7698 38.2563 43.9832 38.1856Z" fill="black"/>
<path d="M42.7631 38.733C42.7631 38.733 41.7012 39.3297 41.6367 38.7105C41.6166 38.5196 41.3567 36.6497 41.3567 36.6497C41.3567 36.6497 40.4985 35.7491 39.1836 36.4148" stroke="black" stroke-width="0.3" stroke-miterlimit="10"/>
<path d="M42.5242 36.1257C42.5242 36.1257 44.239 35.2774 45.3737 36.5" stroke="black" stroke-width="0.3" stroke-miterlimit="10"/>
<path d="M44.0965 42.9061L44.2934 43.907C43.6724 44.4739 43.2332 45.2865 43.3615 46.1422C43.4754 46.9009 44.1023 47.6072 44.7452 48.0048C45.8196 48.6688 47.2486 48.6165 48.4051 48.194C49.5357 47.779 50.5138 46.9913 51.2228 46.0302C51.5567 45.5656 51.7791 45.0316 51.8732 44.469V44.459" stroke="black" stroke-width="0.3" stroke-miterlimit="10"/>
<path d="M44.2934 43.907L44.6773 45.7147" stroke="black" stroke-width="0.3" stroke-miterlimit="10"/>
<path d="M49.7218 39.3047L50.3017 43.1186C50.3589 43.4919 50.5495 43.8326 50.8388 44.0785C51.1281 44.3245 51.4969 44.4595 51.8782 44.459C53.6832 44.7487 55.4638 45.1715 57.2051 45.724C64.008 47.8969 68.1951 53.9659 69.3777 60.747C69.8696 63.5864 69.9065 66.5644 69.2888 69.3881C68.9377 70.9775 68.4298 72.7629 67.2506 73.9531C65.7194 75.5052 63.3694 74.8661 61.5599 74.1648C55.9421 72.0009 51.2697 68.1514 47.2351 63.7441C45.0779 61.3869 42.2904 59.4978 42.2904 59.4978" stroke="black" stroke-width="0.3" stroke-miterlimit="10"/>
<path d="M20.4747 70.2622C19.8445 70.2563 19.2955 69.7525 19.1539 69.0512C18.874 67.6717 18.8002 65.5386 20.8426 65.073C23.3946 64.492 25.3575 67.2443 26.3196 68.984C26.6431 69.565 26.2769 70.312 25.6743 70.312L20.4747 70.2622Z" fill="#D7E8F0"/>
<path d="M21.3173 63.9017C21.859 63.5446 21.8674 62.6139 21.3358 61.8228C20.8043 61.0317 19.9341 60.6797 19.3923 61.0368C18.8505 61.3939 18.8422 62.3246 19.3737 63.1157C19.9053 63.9069 20.7754 64.2588 21.3173 63.9017Z" fill="#D7E8F0"/>
<path d="M63.2571 76.2868C63.2177 76.2926 63.1732 76.2984 63.1347 76.3075H63.1196L57.1582 76.2768L48.2132 76.2312C48.1789 76.2312 48.1453 76.2312 48.1118 76.2312C48.0453 76.2296 47.9791 76.2246 47.9132 76.2162C48.5192 76.1465 49.081 75.8673 49.4997 75.4278C49.9183 74.9883 50.1671 74.4166 50.202 73.8134C50.2037 73.7822 50.2037 73.7509 50.202 73.7196V73.6714C50.1996 73.0812 49.9919 72.5099 49.6139 72.0534C49.236 71.5971 48.7109 71.2835 48.1269 71.1657C48.0657 71.1507 47.9987 71.1416 47.9341 71.1325C48.0355 71.1233 48.1361 71.1167 48.2342 71.1167L55.7913 71.1565L57.1825 71.1623L59.059 71.1715C59.7015 71.2296 60.2991 71.5229 60.7348 71.9942C61.1704 72.4654 61.413 73.0806 61.4149 73.7196C61.415 73.8402 61.4058 73.9606 61.3873 74.0798C61.2979 74.6881 60.9911 75.2445 60.5226 75.6476C60.0541 76.0508 59.4551 76.2741 58.8344 76.2768H63.3752C63.1137 76.2768 63.1867 76.2768 63.2571 76.2868Z" fill="white"/>
<path d="M51.165 79.3739C51.3353 79.5435 51.5379 79.6779 51.761 79.7694C51.9841 79.8609 52.2234 79.9075 52.4649 79.9068H48.0749C47.2368 79.9068 46.7792 79.7043 46.4457 79.3739C46.1029 79.033 45.9099 78.5718 45.9084 78.0907C45.9084 77.0947 46.7331 76.278 48.0749 76.278H52.4649C52.1025 76.2774 51.7481 76.3834 51.4465 76.5826C51.145 76.7817 50.9099 77.065 50.7712 77.3966C50.6324 77.7282 50.5961 78.0931 50.667 78.4451C50.7378 78.7971 50.9126 79.1204 51.1692 79.3739H51.165Z" fill="#D7E8F0"/>
<path d="M65.6632 73.7653C65.6621 74.1486 65.572 74.5266 65.4001 74.87C65.2772 75.1296 65.1087 75.3654 64.9022 75.5664C64.5619 75.9004 64.1345 76.134 63.6677 76.2412C63.4753 76.2851 63.2785 76.3075 63.0811 76.3075C63.1213 76.2984 63.1649 76.2926 63.2034 76.2868C63.133 76.2802 63.0601 76.2777 63.3224 76.2777H58.7808C59.4019 76.2753 60.0015 76.0521 60.4703 75.6487C60.9391 75.2453 61.2461 74.6886 61.3353 74.0798C61.3538 73.9606 61.363 73.8402 61.363 73.7196C61.361 73.0806 61.1184 72.4652 60.6825 71.994C60.2466 71.5227 59.6489 71.2294 59.0062 71.1715L61.4577 71.184L63.0953 71.1931C63.7797 71.1988 64.4339 71.4726 64.9151 71.9545C65.3963 72.4365 65.6652 73.0875 65.6632 73.7653Z" fill="#3FBDF1"/>
<path d="M65.6632 73.7646C65.6581 74.4428 65.3819 75.0912 64.8949 75.5681C64.4079 76.0449 63.7499 76.3112 63.0651 76.3085L48.1537 76.2322C48.054 76.2322 47.9542 76.2247 47.8537 76.2147C48.4822 76.1442 49.0628 75.8478 49.4854 75.3816C49.908 74.9154 50.1433 74.312 50.1466 73.6855C50.1499 73.0591 49.921 72.4532 49.5034 71.9826C49.0857 71.5121 48.5083 71.2097 47.8805 71.1326C47.9801 71.1223 48.0803 71.1173 48.1805 71.1177L63.0919 71.1941C63.7767 71.1987 64.4316 71.4718 64.9136 71.9535C65.3955 72.4352 65.665 73.0865 65.6632 73.7646Z" stroke="black" stroke-width="0.3" stroke-linecap="square" stroke-linejoin="round"/>
<path d="M61.3613 73.7189C61.3599 74.3969 61.0874 75.0468 60.6032 75.5262C60.1191 76.0057 59.4629 76.2756 58.7783 76.2769H48.1688C48.0685 76.2764 47.9684 76.2708 47.8687 76.2603C48.4968 76.1865 49.0758 75.887 49.4959 75.4187C49.916 74.9503 50.1479 74.3457 50.1479 73.7193C50.1479 73.0929 49.916 72.4882 49.4959 72.0199C49.0758 71.5516 48.4968 71.2521 47.8687 71.1782C47.9685 71.1691 48.0691 71.1625 48.1688 71.1625H58.7783C59.4626 71.164 60.1184 71.4338 60.6025 71.9128C61.0865 72.3919 61.3593 73.0412 61.3613 73.7189Z" stroke="black" stroke-width="0.3" stroke-linecap="square" stroke-linejoin="round"/>
<path d="M45.9084 78.0912C45.9084 78.3293 45.9557 78.565 46.0477 78.7849C46.1398 79.0048 46.2747 79.2046 46.4448 79.3727C46.7801 79.7047 47.2352 79.9064 48.0741 79.9064H63.3216C63.0593 79.9064 63.1305 79.9014 63.2017 79.8948C62.7556 79.8428 62.3443 79.6304 62.0458 79.2979C61.7472 78.9655 61.5824 78.5361 61.5824 78.0912C61.5824 77.6463 61.7472 77.217 62.0458 76.8845C62.3443 76.5521 62.7556 76.3397 63.2017 76.2876C63.1305 76.281 63.0593 76.276 63.3216 76.276H48.0741C46.7315 76.2768 45.9084 77.0936 45.9084 78.0912Z" stroke="black" stroke-width="0.3" stroke-linecap="square" stroke-linejoin="round"/>
<path d="M50.6269 78.0912C50.628 78.5724 50.8215 79.0334 51.165 79.3736C51.5085 79.7138 51.9741 79.9053 52.4598 79.9064H62.9889C63.0593 79.9064 63.1305 79.9014 63.2017 79.8948C62.7556 79.8428 62.3443 79.6304 62.0457 79.2979C61.7472 78.9655 61.5824 78.5361 61.5824 78.0912C61.5824 77.6463 61.7472 77.217 62.0457 76.8845C62.3443 76.5521 62.7556 76.3397 63.2017 76.2876C63.1305 76.281 63.0593 76.276 62.9889 76.276H52.4598C51.9742 76.2773 51.5087 76.469 51.1652 76.8091C50.8218 77.1492 50.6283 77.6102 50.6269 78.0912Z" stroke="black" stroke-width="0.3" stroke-linecap="square" stroke-linejoin="round"/>
<path d="M33.5591 64.242H28.8557C28.6405 64.2417 28.43 64.1792 28.25 64.0625C28.07 63.9458 27.9281 63.7798 27.8416 63.5846C27.8082 63.512 27.7939 63.4322 27.8001 63.3526C27.8062 63.273 27.8326 63.1963 27.8768 63.1295C27.921 63.0627 27.9815 63.0081 28.0527 62.9707C28.1239 62.9333 28.2035 62.9144 28.2841 62.9156H33.2842C33.0487 63.3082 33.1685 63.8535 33.5591 64.242Z" fill="#D7E8F0"/>
<path d="M36.6005 63.7621C36.6003 63.889 36.5493 64.0107 36.4586 64.1004C36.368 64.1903 36.2452 64.2408 36.117 64.241H33.5591C33.1685 63.8534 33.0487 63.308 33.2842 62.913H35.5429C35.7578 62.913 35.9681 62.9749 36.1483 63.0909C36.3284 63.207 36.4707 63.3725 36.5578 63.567C36.5849 63.6287 36.5994 63.6949 36.6005 63.7621Z" fill="#3FBDF1"/>
<path d="M35.4238 64.2419C35.4106 64.2672 35.3952 64.2914 35.3778 64.3141C35.0425 64.7681 34.3142 64.8121 33.7485 64.4021C33.6816 64.3532 33.6183 64.2997 33.5591 64.2419C33.1685 63.8543 33.0487 63.309 33.2842 62.9139C33.2974 62.8886 33.3128 62.8644 33.3303 62.8417C33.6655 62.3844 34.3905 62.3437 34.9562 62.7504C35.0243 62.8009 35.0884 62.8564 35.1481 62.9164C35.5353 63.3024 35.656 63.8443 35.4238 64.2419Z" fill="white"/>
<path d="M37.7831 66.6864C37.7822 66.8135 37.7306 66.9351 37.6395 67.0246C37.5485 67.1142 37.4253 67.1645 37.297 67.1645H32.3614C32.5995 66.7677 32.4805 66.2266 32.0891 65.8365H36.7254C36.9407 65.8366 37.1513 65.8987 37.3315 66.0152C37.5117 66.1318 37.6538 66.2978 37.7404 66.493C37.768 66.5539 37.7825 66.6197 37.7831 66.6864Z" fill="#3FBDF1"/>
<path d="M32.3614 67.1643H30.0391C29.8241 67.1644 29.6137 67.1027 29.4335 66.9866C29.2533 66.8704 29.1111 66.7049 29.0241 66.5102C28.9967 66.4493 28.9822 66.3836 28.9814 66.3168C28.9813 66.2541 28.9937 66.1918 29.0179 66.1337C29.0422 66.0757 29.0777 66.023 29.1225 65.9785C29.1674 65.9341 29.2207 65.8989 29.2793 65.8749C29.3379 65.8509 29.4007 65.8387 29.4641 65.8387H32.0891C32.4805 66.2264 32.602 66.7675 32.3614 67.1643Z" fill="#D7E8F0"/>
<path d="M32.3614 67.1643C32.3505 67.1904 32.3361 67.215 32.3187 67.2374C31.9835 67.6939 31.2577 67.7354 30.6928 67.3279C30.6244 67.2774 30.56 67.2219 30.5 67.1619C30.112 66.7742 29.993 66.2331 30.2251 65.8339C30.2385 65.8083 30.254 65.7839 30.2712 65.7608C30.6065 65.3068 31.3348 65.2628 31.8996 65.6737C31.9669 65.7221 32.0302 65.7756 32.0891 65.8339C32.4805 66.2264 32.602 66.7676 32.3614 67.1643Z" fill="white"/>
<path d="M34.0058 70.067H31.0507C30.8358 70.0667 30.6256 70.0048 30.4455 69.8888C30.2653 69.7727 30.123 69.6074 30.0357 69.413C30.0025 69.3401 29.9883 69.2601 29.9945 69.1804C30.0008 69.1006 30.0272 69.0238 30.0713 68.9568C30.1156 68.8899 30.1761 68.835 30.2473 68.7974C30.3187 68.7597 30.3983 68.7406 30.4791 68.7415H33.7309C33.4979 69.1391 33.6178 69.6794 34.0058 70.067Z" fill="#3FBDF1"/>
<path d="M38.7947 69.5922C38.794 69.7184 38.7428 69.8394 38.6524 69.9283C38.5618 70.0173 38.4394 70.0671 38.3119 70.067H34.0058C33.6177 69.6793 33.4979 69.1382 33.7309 68.739H37.737C37.9522 68.739 38.1628 68.8011 38.3431 68.9177C38.5233 69.0343 38.6654 69.2003 38.7519 69.3955C38.7795 69.4575 38.7941 69.5244 38.7947 69.5922Z" fill="#D7E8F0"/>
<path d="M35.8706 70.067C35.8571 70.0925 35.8417 70.1169 35.8245 70.14C35.4892 70.5965 34.7643 70.638 34.1985 70.2305C34.1306 70.1798 34.0665 70.1244 34.0066 70.0645C33.6186 69.6769 33.4987 69.1357 33.7317 68.7365C33.7446 68.7109 33.7596 68.6864 33.777 68.6635C34.1122 68.2095 34.8405 68.1705 35.4062 68.5763C35.4735 68.6247 35.5368 68.6783 35.5957 68.7365C35.9862 69.1291 36.1052 69.6736 35.8706 70.067Z" fill="white"/>
<path d="M13.5445 43.6058L13.6175 43.6265L13.5901 43.7328C13.5728 43.6913 13.5575 43.6489 13.5445 43.6058Z" fill="#353642"/>
<path d="M26.6604 50.2462C27.7636 49.9254 28.3433 48.6039 27.9551 47.2945C27.567 45.9852 26.3581 45.1836 25.2549 45.5044C24.1516 45.8252 23.572 47.1466 23.9601 48.456C24.3482 49.7654 25.5572 50.5669 26.6604 50.2462Z" fill="#D7E8F0"/>
</svg>
