<svg width="84" height="83" viewBox="0 0 84 83" fill="none" xmlns="http://www.w3.org/2000/svg">
<path d="M73.2321 33.2781H58.1044C57.3342 33.2781 56.7098 33.8964 56.7098 34.6592V56.0823C56.7098 56.8451 57.3342 57.4634 58.1044 57.4634H73.2321C74.0023 57.4634 74.6267 56.8451 74.6267 56.0823V34.6592C74.6267 33.8964 74.0023 33.2781 73.2321 33.2781Z" stroke="#CCDDE2" stroke-width="0.3" stroke-miterlimit="10"/>
<path d="M72.5792 35.7697H58.9408C58.5557 35.7697 58.2435 36.0789 58.2435 36.4603V39.3329C58.2435 39.7143 58.5557 40.0235 58.9408 40.0235H72.5792C72.9643 40.0235 73.2765 39.7143 73.2765 39.3329V36.4603C73.2765 36.0789 72.9643 35.7697 72.5792 35.7697Z" stroke="#CCDDE2" stroke-width="0.3" stroke-miterlimit="10"/>
<path d="M65.6683 37.5616C65.9136 37.5616 66.1124 37.3646 66.1124 37.1217C66.1124 36.8787 65.9136 36.6818 65.6683 36.6818C65.4229 36.6818 65.2241 36.8787 65.2241 37.1217C65.2241 37.3646 65.4229 37.5616 65.6683 37.5616Z" fill="#D7E8F0"/>
<path d="M64.427 39.1122C64.427 38.7862 64.5577 38.4735 64.7906 38.2431C65.0233 38.0125 65.339 37.883 65.6682 37.883C65.9974 37.883 66.3131 38.0125 66.5459 38.2431C66.7787 38.4735 66.9094 38.7862 66.9094 39.1122H64.427Z" fill="#D7E8F0"/>
<path d="M65.7587 44.5827C65.2856 44.5829 64.823 44.722 64.4296 44.9824C64.0362 45.2429 63.7297 45.6131 63.5487 46.0461C63.3677 46.4791 63.3205 46.9555 63.4129 47.4152C63.5054 47.8747 63.7332 48.2969 64.068 48.6282C64.4026 48.9595 64.829 49.1851 65.2931 49.2765C65.7572 49.3679 66.2383 49.3209 66.6755 49.1415C67.1126 48.9621 67.4862 48.6584 67.7491 48.2687C68.0121 47.8791 68.1524 47.421 68.1524 46.9524C68.1524 46.6411 68.0904 46.3328 67.9702 46.0453C67.8498 45.7577 67.6736 45.4965 67.4512 45.2764C67.2289 45.0564 66.9651 44.8818 66.6747 44.7628C66.3843 44.6438 66.073 44.5825 65.7587 44.5827ZM65.7587 48.7501C65.6689 48.7457 65.5842 48.7073 65.5222 48.6428C65.4601 48.5783 65.4255 48.4927 65.4255 48.4036C65.4255 48.3145 65.4601 48.2288 65.5222 48.1643C65.5842 48.0998 65.6689 48.0614 65.7587 48.0571C65.8486 48.0614 65.9333 48.0998 65.9953 48.1643C66.0574 48.2288 66.092 48.3145 66.092 48.4036C66.092 48.4927 66.0574 48.5783 65.9953 48.6428C65.9333 48.7073 65.8486 48.7457 65.7587 48.7501ZM66.2004 46.085C66.1267 46.5988 66.0647 47.1383 65.9096 47.6379C65.8727 47.7583 65.6448 47.7583 65.6079 47.6379C65.4987 47.2623 65.4147 46.8799 65.3565 46.4934C65.3087 46.212 65.1427 45.7563 65.3011 45.4833C65.4411 45.2343 65.835 45.2094 66.0638 45.3372C66.3446 45.494 66.234 45.8294 66.2004 46.085Z" fill="#D7E8F0"/>
<path d="M39.5775 38.0797C38.7385 37.8319 37.8443 37.8362 37.0078 38.0917C36.1713 38.3474 35.4302 38.8429 34.878 39.5157C34.3259 40.1885 33.9876 41.0083 33.9061 41.8715C33.8244 42.7346 34.003 43.6023 34.4195 44.3649C34.8359 45.1275 35.4712 45.7508 36.2453 46.1558C37.0193 46.5607 37.8972 46.7293 38.768 46.6401C39.6387 46.5509 40.4633 46.208 41.1373 45.6548C41.8112 45.1016 42.3044 44.3628 42.5544 43.532C42.7205 42.9803 42.7752 42.4017 42.7155 41.8292C42.6558 41.2567 42.4827 40.7014 42.2063 40.1951C41.9298 39.6888 41.5555 39.2414 41.1044 38.8785C40.6533 38.5154 40.1345 38.244 39.5775 38.0797ZM37.354 45.4667C37.1942 45.4144 37.0612 45.3025 36.9832 45.1547C36.9054 45.007 36.8887 44.8349 36.9368 44.6751C36.9849 44.5153 37.0939 44.3805 37.2409 44.299C37.3878 44.2176 37.5609 44.1961 37.7236 44.2391C37.8072 44.2612 37.8855 44.2997 37.9538 44.3522C38.0222 44.4049 38.0792 44.4705 38.1214 44.5453C38.1637 44.6201 38.1904 44.7026 38.1999 44.7877C38.2094 44.8729 38.2016 44.9591 38.1768 45.0413C38.1521 45.1234 38.111 45.1998 38.0559 45.266C38.0008 45.3321 37.933 45.3866 37.8562 45.4263C37.7795 45.4659 37.6955 45.4899 37.6093 45.4969C37.523 45.5038 37.4362 45.4936 37.354 45.4667ZM39.5582 40.9731C39.1534 41.8454 38.7545 42.7692 38.2172 43.5735C38.0882 43.7677 37.6834 43.6482 37.6825 43.4158C37.6894 42.6935 37.7454 41.9726 37.8502 41.2578C37.9155 40.7357 37.8644 39.8409 38.291 39.4392C38.6698 39.0798 39.3805 39.2342 39.7199 39.5795C40.1281 40.0011 39.7543 40.5381 39.5582 40.9731Z" fill="#3FBDF1"/>
<path d="M27.2156 47.7846C26.9086 48.094 26.7012 48.4865 26.6196 48.9125C26.5379 49.3386 26.5856 49.779 26.7567 50.1783C26.9277 50.5775 27.2145 50.9175 27.5807 51.1553C27.9469 51.3931 28.376 51.5181 28.8139 51.5143C29.2518 51.5106 29.6787 51.3785 30.0408 51.1344C30.4027 50.8904 30.6836 50.5456 30.8477 50.1436C31.0119 49.7415 31.0519 49.3003 30.9629 48.8757C30.8739 48.4511 30.6597 48.0622 30.3475 47.7581C29.9286 47.3504 29.3633 47.1241 28.776 47.1291C28.1887 47.1341 27.6274 47.3699 27.2156 47.7846ZM29.993 50.488C29.9633 50.518 29.9278 50.5419 29.8887 50.5583C29.8495 50.5749 29.8075 50.5835 29.765 50.5839C29.7225 50.5842 29.6804 50.5763 29.641 50.5606C29.6016 50.5449 29.5657 50.5216 29.5354 50.4921C29.5051 50.4626 29.4809 50.4275 29.4643 50.3888C29.4477 50.3501 29.4389 50.3084 29.4385 50.2663C29.4382 50.2243 29.4461 50.1825 29.4621 50.1435C29.4779 50.1045 29.5015 50.069 29.5312 50.0389C29.5913 49.9783 29.6734 49.9438 29.7592 49.943C29.845 49.9422 29.9275 49.9753 29.9888 50.0348C30.0501 50.0943 30.0849 50.1755 30.0857 50.2605C30.0865 50.3455 30.0531 50.4273 29.993 50.488ZM28.5037 48.4719C28.7979 48.8537 29.1172 49.2446 29.3493 49.6696C29.4055 49.7717 29.258 49.9186 29.1541 49.8671C28.834 49.6941 28.526 49.5 28.2322 49.2861C28.0134 49.1359 27.6028 48.9483 27.5231 48.6669C27.4511 48.4179 27.6908 48.1407 27.9204 48.0751C28.2028 47.9938 28.3545 48.2835 28.5037 48.4719Z" fill="#3FBDF1"/>
<path d="M59.7471 41.9224H71.436" stroke="#CCDDE2" stroke-width="0.3" stroke-miterlimit="10"/>
<path d="M59.7471 43.062H71.436" stroke="#CCDDE2" stroke-width="0.3" stroke-miterlimit="10"/>
<path d="M59.7471 50.3992H71.436" stroke="#CCDDE2" stroke-width="0.3" stroke-miterlimit="10"/>
<path d="M62.4617 51.4775H68.7206" stroke="#CCDDE2" stroke-width="0.3" stroke-miterlimit="10"/>
<path d="M74.6275 48.9035C75.6584 50.1867 76.6389 51.777 77.5256 53.7366C82.9247 65.677 76.1763 71.7368 76.1763 71.7368" stroke="#9F9F9F" stroke-width="0.3" stroke-miterlimit="10"/>
<path d="M18.2362 58.3716C18.2362 58.3716 10.2248 49.3719 20.2149 44.9156C30.205 40.4593 32.1829 39.8401 31.4622 35.2046C30.7414 30.569 36.407 25.8488 45.3168 28.968C54.2266 32.0871 54.4051 37.9652 53.7732 42.5094C53.4145 45.0999 54.8987 45.7224 56.7065 45.592" stroke="#9F9F9F" stroke-width="0.3" stroke-miterlimit="10"/>
<path d="M74.0626 75.6205C74.0423 76.1174 73.9125 76.6038 73.6821 77.0456C73.6731 77.0676 73.6625 77.089 73.6503 77.1096C73.2463 77.8283 72.6812 78.4456 71.9984 78.914L71.9741 78.9306C71.3578 79.3389 70.6645 79.6198 69.9359 79.7564C69.9359 79.7631 69.9359 79.7564 69.9359 79.7564H77.6916C77.6916 79.7564 76.654 65.1028 67.1182 57.9731C57.8899 51.0741 49.2499 54.3991 48.7018 54.6215C48.8716 55.0963 48.9476 55.599 48.9256 56.1023C48.9256 56.1023 49.6195 56.46 49.7352 57.7407C49.8509 59.0214 50.0922 62.5821 47.7715 63.2527C47.7715 63.2527 45.688 63.2021 45.1374 62.4103C44.5868 61.6184 44.4544 61.7795 44.2381 61.9803C44.0705 62.1322 43.0589 62.675 42.5921 62.924C42.6511 62.9268 42.7097 62.9349 42.7673 62.9481C42.7673 62.9481 43.0346 65.1825 46.3057 68.6842C46.4165 68.7998 46.5212 68.9212 46.6192 69.0478C47.113 69.4755 47.6682 69.912 48.2845 70.3575L52.0173 73.0625C52.1016 73.1334 52.2015 73.1837 52.309 73.2094C52.5179 73.2615 52.7362 73.2635 52.946 73.2152C53.3801 73.1322 56.3444 72.8326 58.2628 72.6433C58.3064 72.6433 58.3525 72.635 58.3953 72.63L58.6467 72.606C58.6869 72.606 58.7305 72.5977 58.7657 72.5952L58.992 72.5736C59.1026 72.5628 59.2023 72.552 59.2945 72.5446L59.546 72.5205C59.7681 72.4989 59.8996 72.4856 59.9105 72.4856C60.3676 72.4728 60.8231 72.4289 61.2741 72.3545C61.7057 72.2715 62.0996 72.1379 62.2019 71.9162C62.2213 71.8695 62.2285 71.8186 62.2228 71.7685C62.1997 71.6275 62.1402 71.4949 62.0502 71.3834C61.6563 70.8597 60.7411 70.4106 60.674 70.3783C60.6721 70.3776 60.6701 70.3776 60.6682 70.3783L60.6497 70.365L55.2021 66.1735H55.1962C55.1962 66.1735 56.0167 57.505 63.4934 59.6381C63.4934 59.6381 63.5286 59.6621 63.5931 59.7152C63.8848 59.9377 64.8025 60.6747 66.1518 62.0517C66.187 62.089 66.2248 62.1264 66.2625 62.1662C66.4058 62.3107 66.5466 62.4609 66.6866 62.6078C67.6336 63.6104 68.7541 64.8878 69.9903 66.4806L69.9987 66.4889C71.4151 68.3149 72.4359 69.9882 73.0997 71.4689V71.4739C73.8179 73.0832 74.1205 74.4619 74.061 75.5616C74.0628 75.5812 74.0634 75.6009 74.0626 75.6205ZM51.512 60.7212C51.2907 58.1955 52.5319 57.2809 52.6015 57.2302C50.8365 60.3925 54.1101 65.2397 54.2249 65.4273C54.131 65.3493 51.7332 63.2461 51.512 60.7212Z" fill="#353642"/>
<path d="M46.8236 60.2257C46.7318 60.2926 46.6361 60.3541 46.537 60.41L45.9621 59.414C47.2879 58.7425 47.6601 57.5589 47.0767 56.909C46.9137 56.7312 46.7034 56.6024 46.47 56.5372C45.8833 56.3612 45.4768 56.6202 45.2011 56.968C44.9761 57.2702 44.811 57.6122 44.715 57.9756L44.4351 54.7784L44.4133 54.5294C44.4133 54.5294 43.8031 54.2298 42.1504 54.4971C40.4977 54.7643 40.1935 55.6682 39.4836 55.2673C38.7737 54.8664 38.3714 54.8988 38.3714 54.8988C38.1694 55.6333 37.6289 55.6333 37.6289 55.6333C37.5008 55.618 37.375 55.5877 37.2542 55.5428C36.4874 54.8448 36.2795 53.6338 36.2795 53.6338C37.0841 53.5351 37.1461 52.7682 37.0539 52.1398C37.4998 52.4021 38.1284 52.4204 39.0109 51.8593C41.5428 50.2557 44.1392 51.1239 45.0519 51.2576C45.4592 51.3165 45.9051 51.1746 46.2747 51.0086C46.3225 51.0933 46.3889 51.1662 46.4691 51.2219C47.0852 51.6469 47.5933 52.2077 47.9534 52.8603C50.3294 57.2585 47.7246 59.5941 46.8236 60.2257Z" fill="#3FBDF1"/>
<path d="M37.3389 79.7579H38.2943C38.703 79.7575 39.0947 79.5965 39.3837 79.3104C39.6726 79.0242 39.8352 78.6363 39.8356 78.2316V77.1725C39.8356 77.076 39.8164 76.9803 39.779 76.8912C39.7417 76.802 39.687 76.721 39.618 76.6527C39.549 76.5845 39.4672 76.5305 39.3771 76.4936C39.287 76.4567 39.1905 76.4379 39.093 76.4379H33.3789C33.3791 76.6634 33.3344 76.8866 33.2474 77.0949C33.1604 77.3032 33.0327 77.4925 32.8717 77.6518C32.7107 77.8112 32.5195 77.9375 32.3091 78.0237C32.0988 78.1097 31.8733 78.1539 31.6457 78.1535H10.9975C10.9977 78.579 11.1685 78.987 11.4723 79.2877C11.776 79.5886 12.1879 79.7577 12.6175 79.7579H40.61C40.6465 79.758 40.6828 79.751 40.7166 79.7372C40.7504 79.7233 40.7811 79.7031 40.807 79.6774C40.8328 79.6519 40.8534 79.6214 40.8673 79.588C40.8812 79.5545 40.8883 79.5186 40.8882 79.4824V77.7634C40.8882 77.4295 41.0222 77.1092 41.2606 76.8731C41.499 76.637 41.8225 76.5043 42.1596 76.5043C42.4968 76.5043 42.8202 76.637 43.0586 76.8731C43.2971 77.1092 43.431 77.4295 43.431 77.7634V79.4824C43.4309 79.5185 43.438 79.5543 43.4519 79.5878C43.4658 79.6212 43.4862 79.6515 43.512 79.6772C43.5377 79.7027 43.5684 79.7231 43.6021 79.7369C43.6358 79.7508 43.6719 79.7579 43.7084 79.7579H77.6916C77.6916 79.7579 76.654 65.101 67.1181 57.9721C57.8899 51.0731 49.2499 54.3981 48.7018 54.6206L48.675 54.6305" stroke="black" stroke-width="0.3" stroke-miterlimit="10"/>
<path d="M39.1467 58.2079C39.1464 58.3 39.1184 58.3901 39.0666 58.4665C39.0146 58.5429 38.941 58.6025 38.8549 58.6376C38.7689 58.6727 38.6743 58.6817 38.5831 58.6635C38.4918 58.6454 38.4081 58.601 38.3424 58.5358C38.2766 58.4706 38.2318 58.3875 38.2137 58.2971C38.1955 58.2067 38.2048 58.1131 38.2405 58.0279C38.276 57.9428 38.3362 57.87 38.4135 57.8187C38.4909 57.7674 38.5818 57.7399 38.6748 57.7397C38.7113 57.7399 38.7476 57.7444 38.783 57.753C38.7342 57.7683 38.6916 57.7986 38.6614 57.8395C38.6313 57.8804 38.6151 57.9298 38.6153 57.9804C38.6151 58.0122 38.6212 58.0438 38.6334 58.0732C38.6454 58.1026 38.6633 58.1294 38.6859 58.152C38.7084 58.1746 38.7353 58.1926 38.7649 58.2049C38.7945 58.2172 38.8263 58.2236 38.8584 58.2236C38.917 58.2225 38.9735 58.2011 39.0179 58.163C39.0623 58.1249 39.0919 58.0727 39.1014 58.0153C39.1303 58.0756 39.1458 58.1412 39.1467 58.2079Z" fill="black"/>
<path d="M42.4161 58.338C42.4162 58.4307 42.3887 58.5213 42.3368 58.5984C42.285 58.6754 42.2112 58.7356 42.1248 58.7711C42.0385 58.8067 41.9435 58.8161 41.8517 58.7981C41.7599 58.7802 41.6756 58.7356 41.6094 58.6702C41.5433 58.6048 41.4982 58.5214 41.4798 58.4305C41.4616 58.3397 41.4709 58.2456 41.5066 58.1599C41.5423 58.0743 41.6029 58.0012 41.6807 57.9498C41.7584 57.8982 41.8498 57.8707 41.9434 57.8707C41.9659 57.8706 41.9885 57.8731 42.0104 57.8782C41.9686 57.8973 41.9332 57.9278 41.9084 57.9663C41.8835 58.0046 41.8704 58.0493 41.8705 58.0948C41.8676 58.1587 41.8904 58.2211 41.9339 58.2682C41.9775 58.3154 42.0382 58.3435 42.1026 58.3463C42.1671 58.3492 42.23 58.3266 42.2777 58.2835C42.3253 58.2403 42.3537 58.1803 42.3566 58.1164C42.3953 58.1841 42.4157 58.2603 42.4161 58.338Z" fill="black"/>
<path d="M46.1867 50.3512C46.1322 50.7147 46.2001 51.0335 46.47 51.2227C47.0861 51.6477 47.5942 52.2086 47.9543 52.8611C50.7887 58.1059 46.537 60.4141 46.537 60.4141L45.9621 59.4181C47.6173 58.5815 47.7866 56.9431 46.47 56.5413C45.1533 56.1396 44.715 57.9797 44.715 57.9797L44.4133 54.5311C44.4133 54.5311 43.8032 54.2314 42.1504 54.4987C40.4977 54.766 40.1935 55.6698 39.4836 55.2689C38.7737 54.8681 38.3715 54.9004 38.3715 54.9004C38.1695 55.635 37.6289 55.635 37.6289 55.635C36.0449 55.4349 35.6728 53.2645 35.6728 53.2645C36.4765 53.1649 36.5385 52.398 36.4472 51.7705C36.8922 52.0328 37.5216 52.0519 38.4041 51.49C40.936 49.8864 43.5325 50.7554 44.4443 50.889C45.0746 50.9795 45.7978 50.5977 46.1867 50.3512Z" stroke="black" stroke-width="0.3" stroke-linecap="round" stroke-linejoin="round"/>
<path d="M47.6483 76.36L48.2744 76.111L48.7437 77.3651L48.67 79.641L48.0355 79.7547L45.6277 79.6517C45.6277 79.6517 45.7953 78.264 46.3074 77.6041C46.8195 76.9443 47.6483 76.36 47.6483 76.36Z" fill="#3FBDF1"/>
<path d="M36.6852 56.4019C36.6852 56.4019 37.3263 55.2623 38.6757 55.381" stroke="black" stroke-width="0.3" stroke-miterlimit="10"/>
<path d="M41.3182 55.3807C41.3182 55.3807 42.8603 55.0379 43.4 55.887" stroke="black" stroke-width="0.3" stroke-miterlimit="10"/>
<path d="M43.7076 60.5402C43.7076 60.5402 42.7857 60.0115 42.111 60.9004" stroke="black" stroke-width="0.3" stroke-miterlimit="10"/>
<path d="M37.882 55.5636C37.882 55.5636 37.2258 63.2087 42.1194 63.0676C42.9575 63.0436 43.7906 62.4983 44.5868 61.6209" stroke="black" stroke-width="0.3" stroke-miterlimit="10"/>
<path d="M46.537 62.3163L44.5868 61.6207C44.5868 61.6207 45.0704 63.1513 47.4657 63.2683C49.8609 63.3853 50.6647 57.9413 48.9047 55.751" stroke="black" stroke-width="0.3" stroke-linejoin="round"/>
<path d="M54.162 77.653C54.162 77.653 52.3744 79.0897 53.5888 79.7578" stroke="black" stroke-width="0.3" stroke-miterlimit="10"/>
<path d="M52.7792 76.3159C52.7792 76.3159 49.6782 78.0539 52.3408 79.7579" stroke="black" stroke-width="0.3" stroke-miterlimit="10"/>
<path d="M51.7332 74.9797C51.7332 74.9797 47.6173 76.8887 50.7887 79.758" stroke="black" stroke-width="0.3" stroke-miterlimit="10"/>
<path d="M69.0416 79.7579C69.0416 79.7579 74.035 79.7579 74.102 74.9796C74.1691 70.2013 64.4195 58.2028 58.1103 56.5337C51.8011 54.8645 51.5304 59.4387 51.5304 59.6262C51.5304 59.8138 51.1599 61.7843 52.7792 63.8866C54.0296 65.5118 59.5527 69.5688 62.0032 71.3317C62.0933 71.3966 62.1612 71.487 62.1981 71.5911C62.2349 71.6951 62.2389 71.8077 62.2095 71.9141C62.1802 72.0204 62.1187 72.1153 62.0336 72.1863C61.9484 72.2572 61.8433 72.3008 61.7325 72.3111L50.8943 73.342H50.8876C50.7853 73.3603 46.9602 74.0591 45.7953 75.246C45.7953 75.246 45.1424 75.7249 45.4802 76.4603C45.8179 77.1957 46.8555 76.9533 46.884 76.9259" stroke="black" stroke-width="0.3" stroke-miterlimit="10"/>
<path opacity="0.26" d="M41.9442 59.2063C42.6895 59.2063 43.2936 58.608 43.2936 57.87C43.2936 57.132 42.6895 56.5337 41.9442 56.5337C41.199 56.5337 40.5949 57.132 40.5949 57.87C40.5949 58.608 41.199 59.2063 41.9442 59.2063Z" fill="white"/>
<path opacity="0.26" d="M38.5198 59.0743C39.265 59.0743 39.8691 58.4761 39.8691 57.738C39.8691 57 39.265 56.4017 38.5198 56.4017C37.7746 56.4017 37.1705 57 37.1705 57.738C37.1705 58.4761 37.7746 59.0743 38.5198 59.0743Z" fill="white"/>
<path d="M50.1836 76.1492C49.7092 76.0181 48.934 75.9002 48.1353 76.1542C47.7447 76.2788 47.3843 76.482 47.0768 76.751C47.0097 76.8091 46.9452 76.868 46.8832 76.9269C46.7495 77.0568 46.6233 77.1939 46.5052 77.3378C46.4897 77.3568 46.4676 77.3695 46.4432 77.3735C46.1456 77.4142 44.187 77.7213 44.1971 78.7015C44.2063 79.5821 45.1802 79.7265 45.5154 79.7498C45.5292 79.751 45.5431 79.7494 45.5563 79.7451C45.5694 79.7407 45.5816 79.7338 45.5919 79.7245C45.6022 79.7153 45.6105 79.7041 45.6162 79.6916C45.622 79.6791 45.625 79.6655 45.6252 79.6518C45.6252 79.3381 45.6973 78.3545 46.4809 77.3652" stroke="black" stroke-width="0.3" stroke-miterlimit="10"/>
<path d="M32.5366 69.231C32.7663 71.0645 31.3273 71.8937 29.7542 72.0165" stroke="black" stroke-width="0.3" stroke-miterlimit="10"/>
<path d="M27.4678 71.6339C26.868 71.3131 26.3821 70.8174 26.076 70.2141C25.7699 69.6108 25.6583 68.929 25.7564 68.2608C26.0078 66.4971 27.5164 65.1442 28.9931 64.2859C32.0941 62.484 39.0821 63.7879 40.2563 64.0535C41.1564 64.2577 41.909 63.5605 42.2141 63.2235C42.2271 63.2093 42.2439 63.1989 42.2626 63.1938C42.2812 63.1887 42.301 63.189 42.3195 63.1947C42.3381 63.2004 42.3546 63.2112 42.3671 63.2259C42.3796 63.2406 42.3876 63.2584 42.3901 63.2775C43.0346 67.0125 50.5197 72.0821 52.2512 73.2167" stroke="black" stroke-width="0.3" stroke-miterlimit="10"/>
<path d="M34.4249 67.9631L31.9466 69.4861C31.7989 69.5772 31.6336 69.6366 31.4613 69.6605C31.289 69.6844 31.1136 69.6722 30.9463 69.6248C30.7791 69.5774 30.6237 69.4958 30.4902 69.3854C30.3567 69.2748 30.2482 69.1378 30.1715 68.9831C30.0333 68.7053 30.0059 68.3862 30.0947 68.0893C30.1836 67.7923 30.3822 67.5395 30.6509 67.3812L34.4223 65.156" stroke="black" stroke-width="0.3" stroke-miterlimit="10"/>
<path d="M41.9442 59.2063C42.6895 59.2063 43.2936 58.608 43.2936 57.87C43.2936 57.132 42.6895 56.5337 41.9442 56.5337C41.199 56.5337 40.5949 57.132 40.5949 57.87C40.5949 58.608 41.199 59.2063 41.9442 59.2063Z" stroke="black" stroke-width="0.3" stroke-miterlimit="10"/>
<path d="M38.5198 58.8743C39.1535 58.8743 39.6671 58.3656 39.6671 57.738C39.6671 57.1105 39.1535 56.6017 38.5198 56.6017C37.8861 56.6017 37.3724 57.1105 37.3724 57.738C37.3724 58.3656 37.8861 58.8743 38.5198 58.8743Z" stroke="white" stroke-width="0.3" stroke-miterlimit="10"/>
<path d="M38.5198 59.0743C39.265 59.0743 39.8691 58.4761 39.8691 57.738C39.8691 57 39.265 56.4017 38.5198 56.4017C37.7746 56.4017 37.1705 57 37.1705 57.738C37.1705 58.4761 37.7746 59.0743 38.5198 59.0743Z" stroke="black" stroke-width="0.3" stroke-miterlimit="10"/>
<path d="M40.6016 57.7382H39.8691" stroke="black" stroke-width="0.3" stroke-miterlimit="10"/>
<path d="M40.6016 59.6264H40.1189C40.0885 59.6264 40.0585 59.6199 40.031 59.6071C40.0036 59.5943 39.9793 59.5756 39.9599 59.5525C39.9405 59.5293 39.9265 59.5022 39.9189 59.4731C39.9114 59.444 39.9104 59.4136 39.9161 59.3841L40.2354 57.7382" stroke="black" stroke-width="0.3" stroke-miterlimit="10"/>
<path d="M30.9157 64.1872C30.9157 64.1872 29.1951 64.5549 28.5884 67.1279C28.2196 68.6899 27.7134 70.6828 27.3731 72.0075C27.3294 72.1774 27.3256 72.3549 27.3617 72.5265C27.3979 72.6982 27.4733 72.8594 27.5819 72.9978C27.6906 73.1363 27.8297 73.2483 27.9887 73.3253C28.1478 73.4024 28.3224 73.4425 28.4995 73.4425C28.7638 73.4425 29.0204 73.3534 29.2266 73.1896C29.433 73.0259 29.5767 72.7974 29.6343 72.542L30.3542 69.3432" stroke="black" stroke-width="0.3" stroke-miterlimit="10"/>
<path d="M32.4888 70.2015C32.4888 70.2015 34.2949 69.1325 37.8527 70.2015C41.4104 71.2706 45.5003 71.996 46.8496 69.1607" stroke="black" stroke-width="0.3" stroke-miterlimit="10"/>
<path d="M48.1361 76.1541C48.1361 76.1541 49.3933 77.5751 48.6289 79.758" stroke="black" stroke-width="0.3" stroke-miterlimit="10"/>
<path d="M6.59415 58.4842H26.4571C27.0969 58.4834 27.7183 58.6958 28.2213 59.0872C28.7244 59.4787 29.0798 60.0264 29.2303 60.6422L32.3925 73.6118C32.4778 73.9617 32.4818 74.3263 32.4043 74.678C32.3267 75.0297 32.1696 75.3595 31.9447 75.6424C31.7198 75.9252 31.4331 76.1539 31.1061 76.3111C30.779 76.4683 30.4202 76.55 30.0567 76.55H10.2449C9.60636 76.5506 8.98608 76.3387 8.48364 75.9485C7.98124 75.5582 7.62571 75.0121 7.47415 74.3978L4.26089 61.4307C4.17412 61.0804 4.16891 60.7151 4.24564 60.3625C4.32236 60.0099 4.47903 59.6791 4.70378 59.3954C4.92854 59.1115 5.21552 58.882 5.543 58.7241C5.8705 58.5663 6.22993 58.4843 6.59415 58.4842Z" fill="#3FBDF1"/>
<path d="M7.31741 59.0422H25.9533C26.5537 59.0429 27.1364 59.2431 27.6082 59.6108C28.08 59.9784 28.4137 60.4922 28.5556 61.0699L31.5242 73.2368C31.6043 73.5651 31.6082 73.9071 31.5355 74.2371C31.4628 74.5671 31.3155 74.8764 31.1045 75.1418C30.8936 75.4072 30.6246 75.6217 30.3178 75.7692C30.011 75.9167 29.6744 75.9933 29.3334 75.9933H10.7427C10.1442 75.992 9.56335 75.7925 9.09259 75.4266C8.62174 75.0607 8.28806 74.5492 8.14462 73.9739L5.12747 61.8061C5.046 61.4773 5.04108 61.1346 5.11311 60.8037C5.18513 60.4728 5.3322 60.1625 5.54318 59.8962C5.75416 59.63 6.02353 59.4147 6.33092 59.2667C6.6383 59.1188 6.97565 59.0419 7.31741 59.0422Z" fill="#3FBDF1"/>
<path d="M6.59415 58.4842H26.4571C27.0969 58.4834 27.7183 58.6958 28.2213 59.0872C28.7244 59.4787 29.0798 60.0264 29.2303 60.6422L32.3925 73.6118C32.4778 73.9617 32.4818 74.3263 32.4043 74.678C32.3267 75.0297 32.1696 75.3595 31.9447 75.6424C31.7198 75.9252 31.4331 76.1539 31.1061 76.3111C30.779 76.4683 30.4202 76.55 30.0567 76.55H10.2449C9.60636 76.5506 8.98608 76.3387 8.48364 75.9485C7.98124 75.5582 7.62571 75.0121 7.47415 74.3978L4.26089 61.4307C4.17412 61.0804 4.16891 60.7151 4.24564 60.3625C4.32236 60.0099 4.47903 59.6791 4.70378 59.3954C4.92854 59.1115 5.21552 58.882 5.543 58.7241C5.8705 58.5663 6.22993 58.4843 6.59415 58.4842Z" stroke="black" stroke-width="0.3" stroke-miterlimit="10"/>
<path d="M15.897 67.1229L14.7128 61.6557C14.6882 61.5401 14.6242 61.4363 14.5316 61.3619C14.439 61.2874 14.3234 61.2467 14.2041 61.2465H8.3441C8.26527 61.2468 8.18753 61.2647 8.11674 61.2991C8.04597 61.3334 7.984 61.3832 7.93555 61.4448C7.8871 61.5064 7.85343 61.5781 7.83709 61.6545C7.82075 61.7308 7.82217 61.8099 7.84124 61.8856L9.21153 67.4167C9.22855 67.4938 9.26484 67.5655 9.31713 67.6251C9.36407 67.6842 9.42382 67.7319 9.49204 67.7648C9.56027 67.7978 9.63519 67.815 9.71104 67.8151H9.72193L15.3933 67.7487C15.4699 67.7477 15.5453 67.7298 15.6141 67.6965C15.6829 67.6633 15.7435 67.6154 15.7914 67.5562C15.8403 67.4962 15.8751 67.4262 15.8933 67.3513C15.9116 67.2764 15.9129 67.1984 15.897 67.1229ZM8.23264 61.7877C8.22839 61.7713 8.22799 61.7542 8.23147 61.7376C8.23496 61.7211 8.24224 61.7056 8.25275 61.6922C8.2635 61.6784 8.27733 61.6671 8.29317 61.6594C8.309 61.6516 8.32643 61.6475 8.3441 61.6474H14.2041C14.2305 61.6473 14.2561 61.6562 14.2766 61.6727C14.2971 61.6892 14.3111 61.7122 14.3164 61.7379L15.2182 65.902C12.2069 63.0227 11.8658 66.3261 11.8658 66.3261C10.1661 65.4496 9.675 66.4091 9.53252 67.0408L8.23264 61.7877Z" fill="#D7E8F0"/>
<path d="M9.92475 63.7723C10.2516 63.6718 10.4067 63.2427 10.2726 62.8136C10.1385 62.3845 9.76384 62.1189 9.43446 62.2193C9.10509 62.3198 8.95256 62.7489 9.08749 63.1772C9.22242 63.6054 9.59873 63.8727 9.92475 63.7723Z" fill="#D7E8F0"/>
<path d="M11.3596 63.6742H13.2822C13.521 63.6742 13.7607 63.6742 13.9996 63.6742H14.0339C14.1011 63.6761 14.168 63.6636 14.23 63.6377C14.2729 63.6167 14.3093 63.5848 14.3356 63.5453C14.3619 63.5057 14.377 63.4599 14.3796 63.4126C14.3822 63.3653 14.372 63.3183 14.3501 63.2761C14.3283 63.234 14.2955 63.1984 14.2552 63.1729C14.21 63.1526 14.1689 63.1245 14.1337 63.0899C14.1104 63.0535 14.0944 63.0129 14.0867 62.9704C14.0423 62.8503 13.9566 62.7495 13.8445 62.6857C13.763 62.6314 13.6713 62.594 13.5747 62.5756C13.4783 62.5571 13.379 62.5582 13.283 62.5786C13.1882 62.6024 13.1015 62.6504 13.0316 62.7181C12.9721 62.7762 12.9603 62.8542 12.9142 62.9189C12.8841 62.9613 12.8648 62.948 12.8237 62.9248C12.7826 62.9015 12.76 62.8841 12.7265 62.8675C12.6604 62.8325 12.5917 62.8022 12.5212 62.777C12.3774 62.7243 12.2241 62.702 12.0711 62.7114C11.8021 62.7322 11.5339 62.8907 11.44 63.1414C11.3555 63.1425 11.274 63.1735 11.2105 63.2287C11.1468 63.2839 11.1052 63.3598 11.093 63.4427C11.0875 63.4746 11.0896 63.5075 11.0992 63.5385C11.1088 63.5695 11.1256 63.5978 11.1484 63.6211C11.2095 63.6646 11.2849 63.6835 11.3596 63.6742Z" fill="#D7E8F0"/>
<path d="M25.1429 63.5562L24.9887 62.9279C24.8853 62.5055 24.6415 62.1299 24.2963 61.8613C23.9513 61.5927 23.5251 61.4469 23.0862 61.4472H20.9683C20.7267 61.447 20.4883 61.5019 20.2715 61.6078C20.0549 61.7137 19.8658 61.8677 19.719 62.0578C19.5722 62.2479 19.4717 62.469 19.4253 62.7038C19.3789 62.9386 19.3878 63.181 19.4514 63.4118L19.6265 64.0501C19.7384 64.4608 19.9839 64.8234 20.3249 65.0819C20.666 65.3405 21.0836 65.4804 21.5131 65.4802H23.6184C23.8562 65.48 24.0908 65.4263 24.3046 65.3232C24.5184 65.2201 24.7058 65.0702 24.8526 64.885C24.9994 64.6997 25.1018 64.4838 25.1521 64.2537C25.2024 64.0235 25.1992 63.7851 25.1429 63.5562ZM22.8138 63.7114L22.0905 64.1522C22.0627 64.1697 22.0311 64.1806 21.9983 64.184C21.9654 64.1875 21.9322 64.1833 21.9013 64.1718C21.8704 64.1605 21.8425 64.142 21.8199 64.1182C21.7974 64.0943 21.7807 64.0656 21.7712 64.0343L21.4988 63.1529C21.4874 63.1138 21.4874 63.0722 21.4989 63.0331C21.5104 62.994 21.5329 62.9589 21.5636 62.932C21.5945 62.905 21.6324 62.8873 21.673 62.8809C21.7136 62.8744 21.7552 62.8795 21.793 62.8956L22.7962 63.3346C22.8321 63.3506 22.8628 63.376 22.8851 63.4082C22.9073 63.4403 22.9203 63.4778 22.9224 63.5167C22.9246 63.5557 22.9159 63.5943 22.8974 63.6287C22.8788 63.6631 22.851 63.6917 22.8172 63.7114H22.8138Z" fill="white"/>
<path d="M24.6703 69.2002H20.965C20.7954 69.2 20.6295 69.1509 20.4876 69.0589C20.3456 68.967 20.2337 68.8361 20.1655 68.6823C20.1444 68.635 20.133 68.5839 20.132 68.5321C20.1329 68.432 20.1735 68.3363 20.2453 68.2657C20.317 68.1952 20.4139 68.1555 20.515 68.1553H24.454C24.2688 68.4657 24.3627 68.8948 24.6703 69.2002Z" fill="#D7E8F0"/>
<path d="M27.0705 68.8234C27.0703 68.9234 27.0301 69.0191 26.9588 69.0897C26.8876 69.1603 26.7909 69.2001 26.69 69.2002H24.6702C24.3626 68.8948 24.2688 68.4657 24.454 68.1553H26.2324C26.4018 68.1554 26.5674 68.2042 26.7094 68.2956C26.8513 68.3871 26.9633 68.5174 27.032 68.6707C27.0552 68.7185 27.0683 68.7705 27.0705 68.8234Z" fill="#3FBDF1"/>
<path d="M26.1394 69.2003C26.1289 69.2203 26.1169 69.2395 26.1034 69.2576C25.8385 69.6153 25.2653 69.6485 24.8202 69.3265C24.7671 69.2883 24.7169 69.2461 24.6702 69.2003C24.3626 68.8949 24.2688 68.4658 24.454 68.1553C24.4644 68.1356 24.4764 68.1167 24.49 68.0989C24.7523 67.7387 25.3281 67.7071 25.7706 68.0267C25.8243 68.0659 25.875 68.1089 25.9223 68.1553C26.2324 68.4608 26.3221 68.8899 26.1394 69.2003Z" fill="white"/>
<path d="M27.9983 71.1311C27.9974 71.2312 27.9568 71.3269 27.885 71.3974C27.8133 71.468 27.7164 71.5076 27.6153 71.5079H12.9302C13.1179 71.1958 13.0241 70.7684 12.7156 70.4637H27.1653C27.3347 70.4637 27.5006 70.5125 27.6424 70.6044C27.7843 70.6962 27.896 70.827 27.964 70.9808C27.9857 71.0281 27.9974 71.0792 27.9983 71.1311Z" fill="#3FBDF1"/>
<path d="M12.9302 71.5037H11.1006C10.9312 71.5038 10.7655 71.455 10.6235 71.3635C10.4817 71.272 10.3696 71.1416 10.301 70.9883C10.2795 70.9402 10.2681 70.8882 10.2675 70.8355C10.2674 70.7861 10.2772 70.7371 10.2963 70.6914C10.3154 70.6456 10.3434 70.6041 10.3787 70.5692C10.4141 70.5342 10.4561 70.5065 10.5024 70.4877C10.5485 70.4689 10.5981 70.4594 10.648 70.4595H12.7156C13.024 70.7641 13.1179 71.1916 12.9302 71.5037Z" fill="#D7E8F0"/>
<path d="M12.9302 71.5037C12.9216 71.5241 12.9103 71.5433 12.8967 71.5609C12.6343 71.9212 12.0586 71.9519 11.6152 71.6323C11.5618 71.5931 11.5114 71.5501 11.4644 71.5037C11.1585 71.1982 11.0646 70.7716 11.2473 70.4595C11.2574 70.4394 11.2695 70.4202 11.2833 70.4023C11.5482 70.0445 12.1214 70.0113 12.5665 70.3325C12.6196 70.3708 12.6695 70.4133 12.7156 70.4595C13.0241 70.7641 13.1179 71.1916 12.9302 71.5037Z" fill="white"/>
<path d="M14.2258 73.787H11.901C11.7317 73.7869 11.566 73.7382 11.4241 73.6466C11.2822 73.5551 11.1701 73.4249 11.1014 73.2716C11.0784 73.2253 11.0652 73.1747 11.0629 73.123C11.0631 73.0228 11.1034 72.9267 11.1751 72.8557C11.2467 72.7847 11.3437 72.7448 11.445 72.7446H14.0071C13.8286 73.0583 13.9199 73.4849 14.2258 73.787Z" fill="#3FBDF1"/>
<path d="M28.7953 73.4161C28.794 73.5157 28.7528 73.6107 28.6808 73.6802C28.6089 73.7498 28.512 73.7882 28.4115 73.7871H14.2258C13.9199 73.4817 13.8261 73.0551 14.0088 72.743H27.9622C28.1317 72.7429 28.2976 72.7918 28.4394 72.8837C28.5813 72.9755 28.693 73.1063 28.761 73.2601C28.7832 73.3092 28.7948 73.3623 28.7953 73.4161Z" fill="#D7E8F0"/>
<path d="M15.6942 73.7871C15.684 73.8072 15.672 73.8264 15.6581 73.8443C15.3958 74.2045 14.82 74.2353 14.3775 73.9157C14.3239 73.8766 14.2732 73.8336 14.2258 73.7871C13.9199 73.4816 13.8261 73.055 14.0088 72.7429C14.0192 72.723 14.0313 72.7038 14.0448 72.6856C14.3096 72.3279 14.8829 72.2964 15.3279 72.6159C15.3812 72.654 15.4311 72.6965 15.4771 72.7429C15.7855 73.0508 15.8794 73.48 15.6942 73.7871Z" fill="white"/>
<g opacity="0.21">
<path opacity="0.21" d="M16.0998 67.3228L14.9181 61.8556C14.8937 61.7399 14.8297 61.6362 14.737 61.5618C14.6444 61.4875 14.5287 61.447 14.4094 61.4472H8.54859C8.46923 61.4472 8.39095 61.4652 8.31974 61.4999C8.24854 61.5345 8.18633 61.585 8.13793 61.6472C8.08992 61.7082 8.05665 61.7793 8.04067 61.8549C8.02469 61.9306 8.02642 62.0089 8.04573 62.0838L9.41602 67.6158C9.43278 67.6928 9.46874 67.7645 9.52079 67.8241C9.56789 67.8831 9.62789 67.9308 9.6962 67.9636C9.76459 67.9964 9.8396 68.0133 9.91553 68.0133H9.92894L15.5995 67.9461C15.6759 67.9452 15.7512 67.9275 15.8198 67.8944C15.8886 67.8613 15.949 67.8134 15.9968 67.7544C16.045 67.6944 16.0791 67.6246 16.097 67.5499C16.1148 67.4754 16.1158 67.3978 16.0998 67.3228ZM8.43461 61.9884C8.43034 61.9719 8.43 61.9547 8.43369 61.9381C8.43729 61.9216 8.44484 61.9061 8.45556 61.8929C8.46604 61.879 8.4797 61.8676 8.49546 61.8599C8.51113 61.8521 8.52848 61.848 8.54608 61.8481H14.4061C14.4325 61.8479 14.4581 61.8567 14.4787 61.873C14.4993 61.8893 14.5136 61.9122 14.5192 61.9377L15.421 66.1018C12.4089 63.2217 12.0686 66.526 12.0686 66.526C10.3698 65.6495 9.87781 66.609 9.73618 67.2406L8.43461 61.9884Z" fill="#D7E8F0"/>
<path opacity="0.21" d="M10.1275 63.9722C10.4536 63.8718 10.6094 63.4427 10.4745 63.0144C10.3396 62.5861 9.96662 62.3188 9.63641 62.4193C9.3062 62.5197 9.15451 62.9488 9.2886 63.3779C9.4227 63.807 9.80571 64.0759 10.1275 63.9722Z" fill="#D7E8F0"/>
<path opacity="0.21" d="M11.5657 63.8749H13.4875C13.7272 63.8749 13.966 63.8749 14.2057 63.8749H14.2393C14.3066 63.8768 14.3734 63.8644 14.4354 63.8384C14.4785 63.8175 14.5151 63.7857 14.5415 63.7462C14.568 63.7066 14.5833 63.6607 14.5858 63.6134C14.5884 63.566 14.5781 63.5187 14.5561 63.4766C14.5341 63.4344 14.5011 63.3989 14.4605 63.3736C14.4158 63.3526 14.3748 63.3245 14.339 63.2906C14.3164 63.2536 14.3005 63.2128 14.2921 63.1702C14.2476 63.0505 14.1622 62.9501 14.0507 62.8864C13.9691 62.8319 13.8772 62.7943 13.7806 62.7759C13.6839 62.7575 13.5845 62.7586 13.4883 62.7793C13.3951 62.8032 13.3101 62.8513 13.2419 62.9187C13.1816 62.9768 13.1707 63.054 13.1246 63.1196C13.0944 63.1619 13.0752 63.1486 13.0341 63.1246C12.993 63.1005 12.9704 63.0847 12.9369 63.0673C12.8707 63.0325 12.8021 63.0026 12.7315 62.9777C12.5878 62.9248 12.4345 62.9021 12.2815 62.9113C12.0124 62.932 11.7443 63.0914 11.6495 63.3412C11.565 63.3426 11.4837 63.3737 11.4202 63.4291C11.3568 63.4845 11.3154 63.5605 11.3034 63.6433C11.298 63.6753 11.3001 63.708 11.3095 63.7389C11.319 63.7698 11.3355 63.7982 11.3579 63.8218C11.4184 63.8638 11.4922 63.8827 11.5657 63.8749Z" fill="#D7E8F0"/>
<path opacity="0.21" d="M25.3491 63.7562L25.1949 63.1288C25.0913 62.7062 24.8473 62.3305 24.5022 62.0617C24.157 61.793 23.7306 61.6471 23.2916 61.6472H21.1703C20.929 61.6471 20.6909 61.702 20.4744 61.8078C20.2579 61.9136 20.069 62.0673 19.9223 62.2571C19.7756 62.4468 19.675 62.6676 19.6283 62.9021C19.5817 63.1367 19.5903 63.3787 19.6534 63.6093L19.8286 64.2484C19.9406 64.6592 20.1863 65.0219 20.5274 65.2804C20.8686 65.5389 21.2863 65.6789 21.7159 65.6785H23.8212C24.0591 65.6786 24.2938 65.6252 24.5078 65.5224C24.7218 65.4196 24.9094 65.2699 25.0565 65.0848C25.2037 64.8997 25.3064 64.684 25.3571 64.4539C25.4078 64.2238 25.4051 63.9852 25.3491 63.7562ZM23.0192 63.9098L22.2934 64.353C22.2656 64.3706 22.2341 64.3815 22.2013 64.3849C22.1685 64.3883 22.1354 64.3841 22.1045 64.3727C22.0736 64.3613 22.0458 64.3429 22.0234 64.3191C22.0009 64.2952 21.9843 64.2665 21.9749 64.2352L21.7067 63.3529C21.6955 63.3139 21.6957 63.2724 21.7072 63.2334C21.7188 63.1945 21.7413 63.1596 21.7721 63.1327C21.8029 63.1059 21.8407 63.0882 21.8812 63.0818C21.9217 63.0754 21.9632 63.0805 22.0009 63.0964L22.9966 63.5346C23.0319 63.5508 23.0621 63.5762 23.0841 63.6081C23.106 63.6399 23.1188 63.6771 23.1211 63.7156C23.1234 63.754 23.1152 63.7924 23.0972 63.8266C23.0793 63.8608 23.0523 63.8895 23.0192 63.9098Z" fill="#D7E8F0"/>
<path opacity="0.21" d="M24.873 69.4002H21.1678C20.9983 69.3999 20.8326 69.3508 20.6906 69.259C20.5487 69.1673 20.4367 69.0367 20.3683 68.8831C20.3421 68.8258 20.3311 68.7628 20.3361 68.7002C20.341 68.6375 20.362 68.5771 20.3968 68.5245C20.4316 68.4719 20.4793 68.4289 20.5355 68.3995C20.5915 68.37 20.6542 68.3551 20.7178 68.3561H24.6568C24.4724 68.6657 24.5646 69.0956 24.873 69.4002Z" fill="#D7E8F0"/>
<path opacity="0.21" d="M27.2683 69.0233C27.2683 69.1231 27.2283 69.2188 27.1572 69.2895C27.086 69.3601 26.9894 69.3999 26.8887 69.4001H24.873C24.5646 69.0955 24.4708 68.6655 24.656 68.356H26.4353C26.6046 68.3559 26.7704 68.4045 26.9124 68.4961C27.0544 68.5875 27.1663 68.718 27.2348 68.8714C27.2563 68.9193 27.2677 68.971 27.2683 69.0233Z" fill="#3FBDF1"/>
<path opacity="0.21" d="M26.3414 69.4003C26.3315 69.4206 26.3194 69.4398 26.3054 69.4576C26.0405 69.8153 25.4673 69.8485 25.0222 69.5273C24.9693 69.4888 24.9194 69.4464 24.873 69.4003C24.5646 69.0957 24.4708 68.6657 24.656 68.3561C24.6665 68.336 24.6788 68.3168 24.6929 68.2989C24.9552 67.9387 25.531 67.9079 25.9735 68.2275C26.0272 68.2666 26.0779 68.3096 26.1252 68.3561C26.4311 68.6616 26.5249 69.0882 26.3414 69.4003Z" fill="white"/>
<path opacity="0.21" d="M28.2003 71.3273C28.1994 71.4273 28.1587 71.523 28.0869 71.5934C28.0153 71.6638 27.9183 71.7033 27.8173 71.7033H13.133C13.3207 71.3912 13.2269 70.9646 12.9185 70.6592H27.3673C27.537 70.6592 27.703 70.7082 27.845 70.8002C27.987 70.8922 28.0988 71.0231 28.1668 71.1771C28.1883 71.2244 28.1997 71.2755 28.2003 71.3273Z" fill="#3FBDF1"/>
<path opacity="0.21" d="M13.133 71.7033H11.3026C11.1333 71.7032 10.9677 71.6546 10.8258 71.5633C10.684 71.4719 10.5718 71.3419 10.503 71.1887C10.482 71.1405 10.4706 71.0886 10.4695 71.036C10.4695 70.9361 10.5095 70.8403 10.5809 70.7696C10.6523 70.6989 10.7491 70.6592 10.85 70.6592H12.9184C13.2268 70.9646 13.3207 71.3912 13.133 71.7033Z" fill="#D7E8F0"/>
<path opacity="0.21" d="M13.133 71.7036C13.1244 71.7242 13.1128 71.7435 13.0986 71.7609C12.8363 72.1211 12.2605 72.1526 11.818 71.8331C11.7643 71.7937 11.7136 71.7503 11.6663 71.7036C11.3604 71.399 11.2666 70.9715 11.4501 70.6595C11.46 70.6391 11.4721 70.6199 11.4861 70.6022C11.751 70.2445 12.3242 70.2113 12.7693 70.5333C12.822 70.5717 12.8718 70.6139 12.9184 70.6595C13.2269 70.9649 13.3207 71.3915 13.133 71.7036Z" fill="white"/>
<path opacity="0.21" d="M14.4278 73.9901H12.0996C11.9304 73.9897 11.765 73.941 11.6231 73.8497C11.4813 73.7584 11.369 73.6284 11.3001 73.4755C11.279 73.4281 11.2676 73.377 11.2665 73.3252C11.267 73.2248 11.3074 73.1285 11.3792 73.0576C11.4509 72.9865 11.5481 72.9463 11.6496 72.9459H14.2116C14.0281 73.258 14.1219 73.6855 14.4278 73.9901Z" fill="#3FBDF1"/>
<path opacity="0.21" d="M28.9982 73.6157C28.9981 73.6651 28.9881 73.7139 28.9689 73.7594C28.9497 73.805 28.9217 73.8463 28.8864 73.8811C28.851 73.9159 28.8091 73.9434 28.763 73.9621C28.7169 73.9808 28.6675 73.9903 28.6177 73.9901H14.4279C14.122 73.6855 14.0281 73.258 14.2116 72.9459H28.1643C28.334 72.9459 28.5 72.9949 28.642 73.0869C28.784 73.1789 28.8959 73.3099 28.9638 73.4638C28.9856 73.5117 28.9973 73.5634 28.9982 73.6157Z" fill="#D7E8F0"/>
<path opacity="0.21" d="M15.897 73.9903C15.8866 74.0104 15.8743 74.0296 15.8602 74.0475C15.5979 74.4078 15.0221 74.4393 14.5796 74.1197C14.5258 74.0803 14.4751 74.0371 14.4279 73.9903C14.122 73.6857 14.0281 73.2582 14.2116 72.9461C14.2215 72.9258 14.2336 72.9066 14.2477 72.8889C14.5125 72.5311 15.0858 72.5004 15.5308 72.82C15.5835 72.8584 15.6334 72.9006 15.68 72.9461C15.9884 73.2516 16.0823 73.6807 15.897 73.9903Z" fill="white"/>
</g>
</svg>
