<svg width="83" height="83" viewBox="0 0 83 83" fill="none" xmlns="http://www.w3.org/2000/svg">
<path d="M14.7084 37.9683C17.4399 34.1503 21.5335 32.4198 21.5335 32.4198C21.6671 32.3642 21.0978 27.1335 21.0861 26.7625C20.9135 20.652 21.9269 14.2942 26.5201 9.88196C32.2621 4.3699 42.6802 3.22782 49.2671 7.87167C49.1841 7.81025 51.4343 6.03654 51.6243 5.92283C52.8537 5.1809 54.2409 4.73981 55.6731 4.6355C61.4366 4.2205 66.722 8.74901 68.8842 14.227C71.0463 19.705 70.55 32.1866 66.5834 35.7863" stroke="#CCDDE2" stroke-width="0.3" stroke-miterlimit="10"/>
<path d="M12.2458 44.5917C12.3878 43.088 12.7744 41.6175 13.3904 40.2384C13.4491 40.1073 13.5105 39.9789 13.5746 39.8533" stroke="#CCDDE2" stroke-width="0.3" stroke-miterlimit="10"/>
<path d="M19.3689 60.4811C18.7049 59.8777 18.0898 59.2635 17.5263 58.6459" stroke="#CCDDE2" stroke-width="0.3" stroke-miterlimit="10"/>
<path d="M74.7 42.5358C74.705 42.9508 74.7 43.3741 74.6801 43.7982C74.5622 46.4219 74.0003 49.1335 72.596 51.3429C72.3403 51.7506 72.0551 52.139 71.7427 52.5049C68.7547 52.1107 68.309 49.0629 64.8537 47.3398C60.7145 45.2706 53.9367 46.0118 53.9367 46.0118L57.2758 42.9317C57.0974 33.6556 50.2872 34.225 50.2872 34.225L49.9411 35.0724C50.204 34.3049 50.4698 33.5892 50.7387 32.9252L50.7537 32.8904C53.9077 25.0568 57.1754 24.0857 59.7177 22.9544C60.325 22.8102 60.9469 22.7361 61.5711 22.7337C68.0708 22.6988 71.8855 29.318 73.5538 34.6466C73.9688 35.9746 74.607 38.8149 74.6925 42.0087C74.6942 42.1797 74.7 42.3582 74.7 42.5358Z" fill="#2E2E2E"/>
<path d="M78.352 77.303C77.8473 77.9977 77.0149 78.3762 76.1566 78.3762H66.2962C65.9173 78.3816 65.5414 78.3076 65.1928 78.1591C64.8442 78.0106 64.5305 77.7908 64.2719 77.5138C64.2669 77.5138 64.2719 77.5138 64.2719 77.5138C64.2368 77.4783 64.2041 77.4406 64.1739 77.4009C63.8649 77.0181 63.6717 76.5551 63.617 76.0663C63.5672 75.6172 63.9009 75.218 64.3524 75.2363C64.5234 75.2428 64.6864 75.3113 64.8109 75.4288C64.9354 75.5463 65.0131 75.7049 65.0297 75.8754C65.0297 75.9111 65.0371 75.9459 65.0421 75.9808C65.0786 76.1833 65.1677 76.3728 65.3002 76.5302C65.4175 76.6689 65.5648 76.779 65.7308 76.8524C65.8968 76.9259 66.0774 76.9608 66.2589 76.9544H76.199C76.3769 76.9574 76.5534 76.9219 76.7163 76.8502C76.8792 76.7786 77.0247 76.6725 77.1427 76.5394C77.2757 76.3853 77.3665 76.1994 77.4061 75.9998C77.4457 75.8002 77.4327 75.5937 77.3684 75.4006L72.9288 62.1995C72.8925 62.0982 72.8496 61.9994 72.8001 61.904C72.5395 61.3534 72.1264 60.8892 71.6099 60.5664C71.0934 60.2436 70.495 60.0758 69.886 60.083C68.0168 60.1054 65.6439 60.1104 65.4206 60.1104C60.4464 60.0921 58.183 60.0921 56.938 60.1253C57.0234 59.8194 57.1779 59.5371 57.3895 59.3003C57.3895 59.3003 57.3945 59.2953 57.3945 59.2928C57.6981 58.9692 58.1137 58.7736 58.5565 58.7458C60.4007 58.5948 62.2268 58.3192 64.0005 57.8378C67.1304 56.9896 70.1159 55.5346 72.1901 53.1948C73.1997 52.0622 73.9629 50.732 74.4311 49.2888C74.7944 48.1428 75.0234 46.9585 75.1133 45.7596C75.1454 45.3812 75.1654 44.9999 75.1731 44.6159V44.5985C75.1731 44.5105 75.1781 44.42 75.1781 44.332C75.1894 43.7851 75.1644 43.238 75.1034 42.6945C75.6454 42.6987 76.1644 42.9136 76.5509 43.2937C76.5848 43.3831 76.6098 43.4757 76.6256 43.5701C76.6406 43.6595 76.6481 43.75 76.648 43.8407V54.5767C76.6489 55.31 76.5042 56.0362 76.2222 56.7131C75.9402 57.39 75.5267 58.0042 75.0054 58.5201C74.1422 59.375 73.8965 60.6723 74.3057 61.8135L78.718 74.9425C78.8513 75.3363 78.8877 75.7565 78.8239 76.1674C78.7603 76.5784 78.5983 76.9679 78.352 77.303Z" fill="#3FBDF1"/>
<path d="M17.5271 76.9715V46.8732H19.3689V76.984L17.5271 76.9715Z" fill="#2E2E2E"/>
<path d="M53.9375 46.0077C55.2564 45.8674 56.782 45.7014 58.2469 45.7346" stroke="black" stroke-width="0.3" stroke-miterlimit="10"/>
<path d="M46.7531 47.3372C44.4174 47.9265 42.1449 48.7773 40.206 50.1916C36.9524 52.5621 35.4651 56.9843 36.7947 60.8156C36.7947 60.8206 42.0237 75.9042 42.0237 75.9042H40.6476C40.351 75.9041 40.0574 75.9627 39.7836 76.0766C39.5097 76.1906 39.2612 76.3577 39.0523 76.5682C38.6431 76.9749 38.4414 77.653 38.4414 78.2755H50.8275L46.1206 62.879C46.0032 62.4995 45.9769 62.0976 46.0436 61.706C46.1103 61.3144 46.2683 60.944 46.5047 60.6248C46.7412 60.3056 47.0495 60.0465 47.4047 59.8686C47.7599 59.6906 48.1519 59.5987 48.5492 59.6005C51.2309 59.676 53.7217 59.7789 56.4342 59.6611" stroke="black" stroke-width="0.3" stroke-miterlimit="10"/>
<path d="M74.7191 43.9235V43.9069C74.5987 40.6699 74.4361 37.476 73.5504 34.6441C71.8821 29.3155 68.0675 22.6962 61.5677 22.7311C60.9436 22.7335 60.3217 22.8076 59.7143 22.9519C55.4299 23.9703 52.4543 28.3602 50.7503 32.8878L50.7354 32.9227C50.5727 33.357 50.4222 33.7903 50.2839 34.2224C50.1901 34.5133 50.0744 34.7966 49.9378 35.0699C49.4158 36.1217 48.5884 36.9916 47.5639 37.5654C46.5393 38.1393 45.3655 38.3905 44.1958 38.2861C36.3274 37.5707 25.9574 37.1623 22.6914 42.6909" stroke="black" stroke-width="0.3" stroke-miterlimit="10"/>
<path d="M61.8433 37.9028C60.6979 39.2856 59.4919 40.621 58.2452 41.9125C55.693 44.5585 53.491 47.3689 49.5302 47.5565C46.3704 47.7084 43.3625 46.4958 40.3745 45.655C37.1782 44.7561 35.5605 44.0373 32.5816 43.1293C31.7238 42.8688 30.8338 42.7291 29.9373 42.7143L26.9385 42.7375" stroke="black" stroke-width="0.3" stroke-miterlimit="10"/>
<path d="M50.1469 76.0986C50.4325 75.9705 50.742 75.9049 51.055 75.906H52.4344C52.4344 75.906 49.551 70.301 47.2453 66.5702" stroke="black" stroke-width="0.3" stroke-miterlimit="10"/>
<path d="M52.041 59.6737L61.6856 78.3761H50.7761H48.7973" stroke="black" stroke-width="0.3" stroke-miterlimit="10"/>
<path d="M78.352 77.3029C77.8473 77.9977 77.0149 78.3761 76.1566 78.3761H66.2962C65.4787 78.3761 64.6811 78.0375 64.1714 77.3984C63.8624 77.0156 63.6692 76.5525 63.6145 76.0638C63.5647 75.6147 63.8984 75.2155 64.3499 75.2338C64.5209 75.2403 64.6839 75.3088 64.8084 75.4262C64.9329 75.5438 65.0106 75.7024 65.0272 75.8728C65.0473 76.1139 65.1419 76.3427 65.2977 76.5277C65.4168 76.6642 65.5643 76.7729 65.7299 76.8462C65.8956 76.9195 66.0753 76.9555 66.2564 76.9518H76.199C76.3769 76.9548 76.5534 76.9194 76.7163 76.8477C76.8792 76.7761 77.0246 76.67 77.1427 76.5368C77.2757 76.3828 77.3665 76.1969 77.4061 75.9973C77.4456 75.7977 77.4327 75.5911 77.3684 75.3981L72.9288 62.1994C72.7039 61.5744 72.2902 61.0349 71.745 60.6557C71.1998 60.2765 70.5501 60.0763 69.886 60.0829C68.0168 60.1053 65.6439 60.1103 65.4206 60.1103C59.882 60.0929 57.7016 60.0929 56.5462 60.1352C56.5282 60.1351 56.5105 60.1314 56.4939 60.1244C56.4773 60.1175 56.4622 60.1073 56.4496 60.0945C56.437 60.0817 56.427 60.0666 56.4202 60.0499C56.4134 60.0332 56.4099 60.0154 56.4101 59.9974C56.4084 59.485 56.5964 58.9901 56.938 58.608C56.9393 58.607 56.9405 58.6058 56.9413 58.6044C56.9421 58.603 56.9427 58.6013 56.943 58.5997C57.247 58.2769 57.6623 58.0816 58.105 58.0536C59.9492 57.9025 61.7752 57.627 63.5489 57.1456C66.6789 56.2973 69.6644 54.8423 71.7385 52.5025C72.7482 51.3699 73.5113 50.0398 73.9795 48.5966C74.3419 47.451 74.57 46.2672 74.6593 45.0691C74.6919 44.6894 74.7119 44.3082 74.7191 43.9253V43.9071C74.7191 43.8199 74.7241 43.7294 74.7241 43.6415C74.7353 43.0945 74.7104 42.5474 74.6494 42.0039C75.5524 41.9989 76.4629 42.6554 76.6206 43.5717C76.6356 43.6611 76.6431 43.7516 76.643 43.8423V54.5767C76.6438 55.31 76.4992 56.0362 76.2171 56.713C75.9352 57.39 75.5216 58.0042 75.0004 58.52C74.1372 59.3749 73.8916 60.6722 74.3008 61.8135L78.713 74.9424C78.847 75.3359 78.8842 75.7559 78.8214 76.1668C78.7585 76.5778 78.5975 76.9675 78.352 77.3029Z" stroke="black" stroke-width="0.3" stroke-miterlimit="10"/>
<path d="M30.9789 44.5927H5.28958C4.6602 44.5927 4.14999 45.1029 4.14999 45.7323V45.7331C4.14999 46.3625 4.6602 46.8727 5.28958 46.8727H30.9789C31.6083 46.8727 32.1185 46.3625 32.1185 45.7331V45.7323C32.1185 45.1029 31.6083 44.5927 30.9789 44.5927Z" stroke="black" stroke-width="0.3" stroke-miterlimit="10"/>
<path d="M23.704 77.1144H13.3165C12.964 77.1144 12.6782 77.4002 12.6782 77.7527C12.6782 78.1052 12.964 78.391 13.3165 78.391H23.704C24.0565 78.391 24.3422 78.1052 24.3422 77.7527C24.3422 77.4002 24.0565 77.1144 23.704 77.1144Z" stroke="black" stroke-width="0.3" stroke-miterlimit="10"/>
<path d="M16.0904 43.5694V43.6839C16.107 44.4716 16.8482 44.5919 17.4873 44.5969L29.8426 44.5886C30.3838 44.5886 30.8303 44.1736 30.8312 43.664V43.6424C30.8212 43.1444 30.3863 42.7385 29.8518 42.7377C29.8518 42.7377 22.9395 42.7128 17.586 42.697C17.4898 42.9776 17.2457 43.195 16.9411 43.3726C16.6791 43.51 16.3861 43.5777 16.0904 43.5694Z" stroke="black" stroke-width="0.3" stroke-miterlimit="10"/>
<path d="M9.296 32.4721C9.29857 32.6032 9.33608 32.7313 9.40473 32.8431L15.1317 42.462C15.2058 42.5776 15.3031 42.6767 15.4173 42.753C15.5316 42.8293 15.6604 42.881 15.7957 42.9052C16.0246 42.9503 16.2617 42.9245 16.4755 42.8313C16.8266 42.6753 17.0291 42.3607 17.0225 42.042C17.0212 42.0019 17.0171 41.9619 17.01 41.9225C16.9924 41.8346 16.9598 41.7503 16.9137 41.6735L11.1867 32.0546C10.9377 31.6338 10.3285 31.4686 9.83882 31.6853C9.48939 31.838 9.28687 32.1525 9.296 32.4721Z" stroke="black" stroke-width="0.3" stroke-miterlimit="10"/>
<path d="M24.7821 42.7376C24.7821 42.7376 25.4719 42.0811 27.058 41.0386" stroke="black" stroke-width="0.3" stroke-miterlimit="10"/>
<path d="M30.4062 31.9475L27.8921 34.7355C27.7171 34.9297 27.4741 35.0493 27.2134 35.0695C26.9526 35.0898 26.694 35.0091 26.4911 34.8442C26.379 34.7531 26.2875 34.6394 26.2226 34.5104C26.1577 34.3815 26.1208 34.2402 26.1146 34.0959C26.1083 33.9517 26.1327 33.8077 26.1862 33.6736C26.2396 33.5394 26.321 33.4182 26.4247 33.3178L26.8845 32.8729C26.902 32.848 26.9219 32.8256 26.9418 32.8024L27.2738 32.4364L30.129 29.3338C30.4755 28.9529 30.9119 28.665 31.3983 28.4963C31.8848 28.3274 32.4058 28.2833 32.9136 28.3677L32.956 28.3752" stroke="black" stroke-width="0.3" stroke-miterlimit="10"/>
<path d="M33.947 32.7019H31.4321C31.1459 32.7019 30.8715 32.5882 30.6692 32.3859C30.4668 32.1835 30.3531 31.9091 30.3531 31.6229C30.3531 31.3368 30.4668 31.0624 30.6692 30.86C30.8715 30.6577 31.1459 30.5439 31.4321 30.5439H35.0011" stroke="black" stroke-width="0.3" stroke-miterlimit="10"/>
<path d="M32.0189 32.702C31.984 33.1427 31.8156 33.4689 31.5674 33.698C30.9283 34.279 29.7563 34.2151 28.9413 33.8158" stroke="black" stroke-width="0.3" stroke-miterlimit="10"/>
<path d="M27.2779 32.4347C26.555 31.564 26.7036 30.3805 27.2655 29.465C29.5853 25.6769 34.0076 28.01 36.9151 29.6426C38.6459 30.6191 40.3003 31.7251 41.8644 32.951C43.2488 34.03 44.5303 35.3215 46.1936 35.9705C47.1896 36.3598 48.3658 36.4527 49.3568 36.0037" stroke="black" stroke-width="0.3" stroke-miterlimit="10"/>
<path d="M31.5674 33.6915C33.3218 34.9864 34.9969 36.3853 36.5839 37.8805" stroke="black" stroke-width="0.3" stroke-miterlimit="10"/>
<path d="M52.9133 13.3279C53.3333 13.7114 53.9782 13.7321 54.5119 13.6807C55.1942 13.6184 55.8698 13.4533 56.5379 13.3138L56.9438 13.2931H56.9496C57.0275 13.2939 57.1043 13.3099 57.176 13.3405C57.2476 13.3709 57.3125 13.4152 57.3669 13.4708C57.4215 13.5264 57.4645 13.5921 57.4935 13.6643C57.5226 13.7365 57.5372 13.8137 57.5364 13.8915C57.5457 14.7675 57.4583 15.6418 57.2758 16.4985L58.0535 16.9193C58.1539 16.6388 58.0411 16.2346 58.2793 16.2039C58.432 15.9192 58.6594 15.7341 59.0163 15.9457C59.7152 16.3607 59.9907 17.58 59.3176 18.1386L59.7492 18.9454C59.8997 19.2282 60.1436 19.45 60.4393 19.5729C60.7352 19.6958 61.0645 19.7123 61.371 19.6193L60.9303 18.6449C61.9645 18.8283 62.6882 17.5377 62.3728 16.75C62.1579 16.2089 62.1687 15.788 62.4558 15.2618C62.4749 15.2261 62.2799 15.1788 62.2965 15.1423C62.3064 14.7564 62.1994 14.343 62.0134 14.1463C61.6864 13.7944 61.0282 13.7313 61.1627 13.1968C61.2225 12.9642 61.2445 12.7235 61.2283 12.4838C61.1932 12.1705 61.0914 11.8683 60.9297 11.5976C60.7681 11.3269 60.5504 11.0939 60.2912 10.9143C59.7467 10.5566 59.1375 10.8811 58.5557 10.872C57.8493 10.8645 57.343 10.2652 56.6027 10.2561C56.2342 10.2503 55.9387 10.3939 55.6233 10.5723C55.3593 10.7242 55.0995 10.8827 54.8472 11.0546C54.5949 11.2264 54.3708 11.3749 54.0695 11.3758C53.6769 11.3807 53.2976 11.1317 52.9025 11.2479C52.7028 11.3017 52.5272 11.4217 52.4045 11.5882C52.2792 12.2008 52.5058 12.9586 52.9133 13.3279Z" fill="#3FBDF1"/>
<path d="M58.0568 16.8283C58.1075 16.6121 58.1821 16.4022 58.2793 16.2025C58.432 15.9178 58.6602 15.7327 59.0163 15.9444C59.7152 16.3594 59.9907 17.5786 59.3176 18.1372L59.7492 18.944C59.8996 19.2268 60.1436 19.4486 60.4393 19.5715C60.7352 19.6945 61.0645 19.7108 61.371 19.6179" stroke="black" stroke-width="0.3" stroke-linecap="round" stroke-linejoin="round"/>
<path d="M60.9303 18.6435L61.3694 19.6196C61.4798 19.8528 61.796 20.5699 62.1272 21.3153C62.3629 21.849 62.6086 22.3984 62.7912 22.8026" stroke="black" stroke-width="0.3" stroke-linecap="round" stroke-linejoin="round"/>
<path d="M53.818 15.1384C53.818 15.1384 55.112 14.8164 55.6772 15.7974" stroke="black" stroke-width="0.3" stroke-miterlimit="10"/>
<path d="M54.199 18.0675C53.8504 18.1629 53.3814 18.2484 53.1125 17.9447L53.6985 16.7113C53.8408 16.4088 53.876 16.0669 53.7981 15.7418C53.6703 15.1949 53.3507 14.364 53.6935 13.6428" stroke="black" stroke-width="0.3" stroke-miterlimit="10"/>
<path d="M55.0698 16.4145C55.1679 16.2515 55.0922 16.0259 54.9006 15.9104C54.709 15.795 54.4741 15.8334 54.376 15.9963C54.2777 16.1593 54.3534 16.3849 54.545 16.5004C54.7366 16.6159 54.9715 16.5774 55.0698 16.4145Z" fill="black"/>
<path d="M56.9583 24.1797L56.6508 20.7717" stroke="black" stroke-width="0.3" stroke-miterlimit="10"/>
<path d="M58.0535 16.9174C58.0535 16.8876 58.0535 16.8569 58.0535 16.8271C58.0552 16.7951 58.0552 16.763 58.0535 16.731" stroke="black" stroke-width="0.3" stroke-linecap="round" stroke-linejoin="round"/>
<path d="M58.0543 16.9188L57.7871 16.7752L57.2758 16.4972" stroke="black" stroke-width="0.3" stroke-linecap="round" stroke-linejoin="round"/>
<path d="M55.9146 18.1552C55.9146 18.1552 55.8889 19.0184 54.902 19.3737" stroke="black" stroke-width="0.3" stroke-miterlimit="10"/>
<path d="M60.9303 18.6434C61.9645 18.8269 62.6882 17.5362 62.3728 16.7485C62.1579 16.2074 62.1687 15.7866 62.4558 15.2603C62.4749 15.2247 62.4907 15.1898 62.5073 15.1549C62.7206 14.6843 62.6451 14.2179 62.3098 13.8178C61.9919 13.4393 61.513 13.3065 61.6507 12.7546C61.7127 12.515 61.7356 12.2669 61.7188 12.02C61.683 11.6977 61.5785 11.3869 61.4124 11.1084C61.2464 10.83 61.0225 10.5903 60.756 10.4057C60.1966 10.0347 59.5666 10.3708 58.964 10.3617C58.2386 10.3509 57.7149 9.73337 56.9538 9.72424C56.5728 9.72424 56.2657 9.86617 55.942 10.0504C55.6698 10.2073 55.4 10.3725 55.1427 10.5484C54.8854 10.7244 54.6447 10.8804 54.3393 10.8804C53.9342 10.8804 53.5433 10.6314 53.1383 10.7476C52.7332 10.8638 52.4925 11.1992 52.4128 11.5876C52.2834 12.1968 52.5099 12.9579 52.9175 13.3306C53.3375 13.7141 53.9824 13.7348 54.5161 13.6833C55.1983 13.6211 55.8739 13.4559 56.5421 13.3165L56.948 13.2957H56.9538C57.0316 13.2965 57.1085 13.3126 57.1801 13.343C57.2517 13.3736 57.3166 13.4178 57.3711 13.4734C57.4256 13.529 57.4686 13.5948 57.4977 13.6669C57.5268 13.7391 57.5413 13.8163 57.5406 13.8942C57.5499 14.7701 57.4625 15.6444 57.28 16.5012" stroke="black" stroke-width="0.3" stroke-miterlimit="10"/>
<path d="M58.2104 19.588C58.2104 19.588 56.6682 21.6364 55.2979 21.1774C53.9276 20.7184 53.8579 18.1828 53.8579 18.1828" stroke="black" stroke-width="0.3" stroke-linecap="round" stroke-linejoin="round"/>
<path d="M17.5271 76.9715V46.8732H19.3689V76.984" stroke="black" stroke-width="0.3" stroke-miterlimit="10"/>
<path d="M19.222 29.3596C20.8639 29.3596 22.195 28.0285 22.195 26.3865C22.195 24.7445 20.8639 23.4135 19.222 23.4135C17.58 23.4135 16.2489 24.7445 16.2489 26.3865C16.2489 28.0285 17.58 29.3596 19.222 29.3596Z" fill="#3FBDF1"/>
<path d="M18.0591 27.1534C17.9722 27.094 17.895 27.0214 17.8301 26.9384C17.7153 26.7963 17.6566 26.6171 17.665 26.4347C17.6734 26.2523 17.7484 26.0792 17.8757 25.9483C17.9588 25.8628 18.0606 25.7976 18.173 25.758C18.2855 25.7184 18.4056 25.7054 18.5239 25.72C18.4977 25.5554 18.5258 25.3867 18.604 25.2394C18.6821 25.0922 18.8061 24.9743 18.957 24.9038C19.1081 24.8332 19.278 24.8136 19.441 24.8482C19.6041 24.8827 19.7516 24.9693 19.8611 25.095C20.0926 25.3573 20.2014 25.7474 20.242 26.091C20.263 26.2704 20.2659 26.4515 20.2503 26.6313C20.2429 26.7218 20.2105 27.2439 20.1258 27.2771C19.5664 27.4912 18.6128 27.5377 18.0591 27.1534Z" fill="white"/>
<path d="M40.1986 28.6581C41.0787 28.6581 41.7921 27.9447 41.7921 27.0645C41.7921 26.1844 41.0787 25.4709 40.1986 25.4709C39.3184 25.4709 38.6049 26.1844 38.6049 27.0645C38.6049 27.9447 39.3184 28.6581 40.1986 28.6581Z" fill="#3FBDF1"/>
<path d="M40.089 26.326C40.1375 26.2967 40.1905 26.2757 40.2459 26.2638C40.3411 26.2409 40.4413 26.2536 40.5278 26.2994C40.6144 26.3453 40.6811 26.4211 40.7156 26.5128C40.7381 26.5726 40.7464 26.6369 40.74 26.7006C40.7335 26.7642 40.7124 26.8255 40.6783 26.8796C40.7622 26.9063 40.8355 26.959 40.8875 27.0301C40.9395 27.1012 40.9675 27.187 40.9675 27.2751C40.9675 27.3632 40.9395 27.449 40.8875 27.5201C40.8355 27.5912 40.7622 27.6439 40.6783 27.6706C40.4882 27.7122 40.2902 27.6978 40.1081 27.6291C40.0164 27.5982 39.9279 27.5581 39.8441 27.5096C39.8018 27.4855 39.5553 27.3511 39.5595 27.3021C39.5835 26.9801 39.7786 26.507 40.089 26.326Z" fill="white"/>
<path d="M27.8423 25.2468C28.021 25.3959 28.2203 25.5181 28.4341 25.6095C28.8279 25.7739 29.2576 25.8331 29.6811 25.7815C30.1047 25.7299 30.5076 25.5691 30.8503 25.3149C31.1159 25.1124 31.3483 24.8327 31.623 24.6293C31.8146 24.4792 32.0448 24.3859 32.287 24.3604C32.3675 24.3627 32.4474 24.3459 32.5202 24.3114C32.7045 24.1969 32.487 24.0068 32.4679 23.8723C32.4424 23.6573 32.4964 23.4403 32.6198 23.2623C32.9351 22.7922 33.0781 22.2274 33.0244 21.6639C32.9707 21.1004 32.7238 20.5728 32.3255 20.1705C31.9272 19.7683 31.402 19.5163 30.8391 19.4571C30.2761 19.398 29.7099 19.5354 29.2367 19.846C28.7695 20.1523 28.4225 20.6063 28.0706 21.0404C27.7602 21.423 27.4356 21.7998 27.2082 22.2372C26.6737 23.2656 26.9858 24.5322 27.8423 25.2468Z" fill="#3FBDF1"/>
<path d="M31.0121 21.8572C31.3059 21.8572 31.5441 21.619 31.5441 21.3252C31.5441 21.0313 31.3059 20.7932 31.0121 20.7932C30.7183 20.7932 30.4801 21.0313 30.4801 21.3252C30.4801 21.619 30.7183 21.8572 31.0121 21.8572Z" fill="white"/>
<path d="M29.9829 23.1155C30.2767 23.1155 30.5149 22.8772 30.5149 22.5834C30.5149 22.2896 30.2767 22.0514 29.9829 22.0514C29.6891 22.0514 29.4509 22.2896 29.4509 22.5834C29.4509 22.8772 29.6891 23.1155 29.9829 23.1155Z" fill="white"/>
<path d="M29.0176 24.2965C29.3114 24.2965 29.5497 24.0583 29.5497 23.7645C29.5497 23.4707 29.3114 23.2325 29.0176 23.2325C28.7238 23.2325 28.4856 23.4707 28.4856 23.7645C28.4856 24.0583 28.7238 24.2965 29.0176 24.2965Z" fill="white"/>
<g opacity="0.46">
<path opacity="0.46" d="M44.405 18.782C44.3634 18.9904 44.2758 19.1868 44.1486 19.3571C44.0214 19.5272 43.8577 19.6668 43.6696 19.7656L39.2324 22.1228C39.0651 22.2121 38.8818 22.2674 38.6929 22.2858C38.5042 22.304 38.3136 22.2849 38.1323 22.2293C37.9509 22.1738 37.7823 22.0831 37.6361 21.9623C37.4898 21.8414 37.3689 21.6928 37.2803 21.5252L33.7436 14.8661C33.5644 14.5284 33.5267 14.1334 33.6386 13.7677C33.7505 13.4022 34.0029 13.0959 34.3404 12.9164L38.7809 10.56C39.4491 10.2048 40.3712 10.477 40.7298 11.1568L44.2672 17.8134C44.4264 18.1098 44.4752 18.453 44.405 18.782Z" fill="#3FBDF1"/>
</g>
<path d="M43.0878 18.2775L38.761 16.6283C38.7059 16.6069 38.6602 16.5665 38.632 16.5146C38.6039 16.4625 38.5952 16.4022 38.6074 16.3444L39.6109 11.7288C39.6223 11.6797 39.6483 11.6352 39.6855 11.6012C39.7227 11.5672 39.7694 11.5453 39.8192 11.5384C39.8691 11.5314 39.92 11.5398 39.9651 11.5624C40.0101 11.585 40.0473 11.6207 40.0716 11.6649L43.3949 17.9281C43.4184 17.9726 43.4278 18.0234 43.4219 18.0734C43.4159 18.1235 43.3949 18.1706 43.3616 18.2084C43.3283 18.2463 43.2843 18.2732 43.2354 18.2856C43.1866 18.2978 43.135 18.295 43.0878 18.2775Z" fill="white"/>
<g opacity="0.46">
<path opacity="0.46" d="M49.551 23.4158C49.6418 23.4809 49.7168 23.5656 49.7705 23.6636C49.8242 23.7615 49.8553 23.8703 49.8614 23.9819L50.0274 26.6205C50.0337 26.7201 50.0203 26.8199 49.988 26.9143C49.9556 27.0087 49.9049 27.0958 49.8388 27.1706C49.7728 27.2454 49.6926 27.3064 49.6029 27.3501C49.5131 27.3939 49.4157 27.4195 49.3161 27.4256L45.3562 27.6696C45.1555 27.6816 44.9582 27.6136 44.8076 27.4803C44.657 27.3472 44.5653 27.1597 44.5527 26.9591L44.3909 24.3189C44.3837 24.1195 44.4534 23.925 44.5854 23.7756C44.7175 23.6261 44.9018 23.5329 45.1005 23.5154L49.0596 23.2664C49.2359 23.2566 49.4101 23.3095 49.551 23.4158Z" fill="#3FBDF1"/>
</g>
<path d="M49.0248 23.9371L47.2917 25.6527C47.2697 25.6735 47.2411 25.6861 47.2108 25.6882C47.1806 25.6904 47.1505 25.6819 47.1257 25.6643L45.1337 24.1786C45.1125 24.1626 45.0966 24.1404 45.0884 24.1151C45.0801 24.0898 45.0798 24.0625 45.0875 24.037C45.0952 24.0115 45.1105 23.989 45.1314 23.9724C45.1522 23.9559 45.1777 23.9462 45.2043 23.9446L48.9293 23.7146C48.9554 23.714 48.981 23.7211 49.003 23.7352C49.0249 23.7493 49.0421 23.7696 49.0524 23.7936C49.0627 23.8175 49.0655 23.844 49.0606 23.8696C49.0557 23.8952 49.0432 23.9187 49.0248 23.9371Z" fill="white"/>
<g opacity="0.46">
<path opacity="0.46" d="M22.659 37.9152C22.3991 37.9579 22.1363 37.9802 21.873 37.9816C19.3514 37.9816 19.4361 35.6435 19.4361 35.6435L21.5252 36.095C21.4463 35.9016 21.4161 35.6918 21.4372 35.484C21.4583 35.2761 21.5302 35.0767 21.6464 34.9031C22.1245 34.2043 23.235 34.5637 23.235 34.5637L23.9256 34.1188L23.7762 34.9488L24.7016 34.7927L24.226 35.343C24.8651 35.9572 25.6794 37.8272 23.7156 38.7991C21.7518 39.7711 20.9044 38.6066 20.9044 38.6066L21.873 37.9824L22.659 37.9152Z" fill="#3FBDF1"/>
</g>
<path d="M22.6175 35.6277C22.7843 35.6277 22.9196 35.4927 22.9196 35.326C22.9196 35.1594 22.7843 35.0243 22.6175 35.0243C22.4507 35.0243 22.3154 35.1594 22.3154 35.326C22.3154 35.4927 22.4507 35.6277 22.6175 35.6277Z" fill="white"/>
<path d="M27.8839 78.376H62.4343" stroke="black" stroke-width="0.3" stroke-miterlimit="10"/>
</svg>
