<svg width="83" height="83" viewBox="0 0 83 83" fill="none" xmlns="http://www.w3.org/2000/svg">
<path d="M7.30402 46.1072C7.24592 45.3685 7.2011 44.629 7.16541 43.8911" stroke="black" stroke-width="0.3" stroke-miterlimit="10"/>
<path d="M49.3136 72.6782H28.2299" stroke="#CCDDE2" stroke-width="0.3" stroke-miterlimit="10"/>
<path d="M55.4689 19.8609C55.4689 19.8609 61.6823 16.9268 66.9536 22.6513C68.6758 24.5221 69.8511 27.0047 69.9341 29.5661C69.9718 30.8159 69.7704 32.0613 69.3407 33.2355C68.9033 34.434 68.1181 35.2275 67.5147 36.2949C66.5892 37.9408 68.5239 38.2321 69.5623 39.0297C70.2524 39.5643 70.907 40.1432 71.5219 40.7628C72.9078 42.1469 74.1274 43.6881 75.1556 45.3551C77.1919 48.6757 78.418 52.4289 78.7346 56.3111C79.0475 60.1391 78.8076 64.2957 76.8447 67.6963C75.9002 69.3338 74.4775 70.9399 72.7279 71.7035C70.4039 72.7169 67.7935 72.6787 65.3102 72.6787H60.0256" stroke="#CCDDE2" stroke-width="0.3" stroke-miterlimit="10"/>
<path d="M29.5687 58.1115C29.3604 59.5939 29.05 61.2946 28.7072 62.9969L28.303 63.1123C27.0093 63.4757 25.6356 63.4354 24.3654 62.9969L24.895 61.1975L21.6713 51.8185C21.6713 51.8185 24.1355 51.0217 26.1591 50.4299L26.3915 50.4199C27.497 50.6532 29.7754 51.5288 29.8468 54.8081C29.8517 54.9658 29.8468 55.1318 29.8468 55.3128C30.168 56.371 30.0402 57.3039 29.5687 58.1115Z" fill="#3FBDF1"/>
<path d="M21.9809 22.4101C21.9491 22.3291 21.8869 22.264 21.8077 22.2285C21.7283 22.1929 21.6383 22.1899 21.5568 22.22C21.5111 22.2338 21.4689 22.2573 21.4331 22.2889C21.3053 22.3926 21.2762 22.5744 21.2721 22.747C21.2604 23.1413 21.238 23.5364 21.209 23.929C21.209 23.9555 21.2048 23.9854 21.2048 24.012C21.1866 24.3282 21.1999 24.7117 21.0654 24.9872C21.0568 25.0082 21.0421 25.0261 21.0231 25.0387C20.9782 25.0594 20.9309 25.0146 20.9019 24.9739C20.8189 24.8528 20.7359 24.7341 20.6529 24.6104C20.5873 24.5116 20.5134 24.4046 20.3989 24.373C20.2288 24.3257 20.0669 24.4759 19.9731 24.6287C19.6702 25.1267 19.6411 25.9425 20.1101 26.36C20.579 26.7775 19.5291 27.5984 18.7771 27.9437C18.6512 28.0145 18.5193 28.0739 18.3828 28.1213C18.3762 28.1213 18.6542 28.1835 18.6476 28.186C18.0625 28.3897 17.4529 28.515 16.8349 28.5587C16.1012 28.6077 15.3857 28.5155 14.8653 28.1968C14.8877 28.1138 15.0653 27.5328 15.0761 27.4498C15.1143 27.1602 15.1417 26.873 15.1591 26.5816C15.1907 26.0347 15.1882 25.4869 15.1674 24.9416C15.0919 22.9794 15.4413 21.3311 16.2514 21.0796C16.3154 21.0604 16.3767 21.0333 16.434 20.9991C16.7992 20.7974 16.9942 20.3716 16.8266 19.9699C16.815 19.9425 16.8017 19.9159 16.7901 19.8869C16.777 19.8582 16.762 19.8305 16.7452 19.8039C18.3272 19.3125 19.4012 19.6536 20.4869 20.2479C20.6935 20.413 20.8877 20.593 21.0679 20.7866C21.4928 21.2479 21.8053 21.8013 21.9809 22.4034V22.4101Z" fill="#3FBDF1"/>
<path d="M60.009 41.275H54.614V28.3801C54.614 28.3801 53.618 39.5843 50.889 45.9321H34.1802C36.1498 44.6805 37.7293 42.7898 38.7809 40.7546C39.1959 39.9495 39.8599 38.7543 40.9638 39.068C41.2261 39.1419 41.6121 39.1892 41.8071 38.9493C41.8744 38.8573 41.9126 38.7472 41.9167 38.6331C42.0113 37.4578 40.7928 36.4685 39.7885 36.1564C38.7842 35.8443 37.6106 35.9904 36.8113 36.72C36.2353 37.247 35.8743 37.9467 35.4526 38.5949C35.1996 38.9791 34.8996 39.3301 34.5595 39.6399C34.9928 37.0088 35.3788 34.4939 35.4344 33.5685C36.491 32.7343 37.267 31.3739 37.5426 30.1704C37.8455 28.8557 38.1128 27.57 38.5834 26.3392L42.4354 26.3524C42.5805 26.3524 42.7196 26.2948 42.8222 26.1922C42.9248 26.0897 42.9824 25.9505 42.9824 25.8055V19.4078C42.9826 19.2641 42.9259 19.1261 42.8246 19.024C42.7233 18.922 42.5858 18.8643 42.4421 18.8633L39.8193 18.8409C40.7724 18.6417 41.739 18.5128 42.711 18.455C42.7309 18.455 42.7492 18.455 42.7666 18.455C43.4065 18.4127 44.5278 18.3944 45.1736 18.3878C44.4042 18.8028 43.9286 19.6842 44.0116 20.4628C44.0262 20.6286 44.0686 20.7908 44.1369 20.9425C44.7943 22.3867 46.5257 22.8133 47.9549 22.3933C49.5452 21.9294 50.7138 20.4669 50.6441 18.7845C51.6401 18.9306 52.6262 19.1159 53.6022 19.3406C55.0854 19.6817 56.5321 20.1415 57.7049 21.1442C58.7275 22.0149 59.594 23.1362 59.9949 24.4036C61.7163 29.8227 61.1868 35.87 60.009 41.275Z" fill="#2E2E2E"/>
<path d="M35.4775 33.5686C35.3563 35.549 35.0443 37.5277 34.7056 39.5014" stroke="black" stroke-width="0.3" stroke-miterlimit="10"/>
<path d="M38.6265 26.3392C38.1551 27.5701 37.8886 28.8557 37.5857 30.1705C37.3076 31.3698 36.5333 32.7343 35.4775 33.5685C34.5911 34.2682 33.5054 34.5977 32.3434 34.1561C30.7847 33.5618 30.2377 31.8437 30.0468 30.329C29.7987 28.4428 29.7836 26.5333 30.002 24.6435C30.2219 25.1324 31.1208 26.6197 33.9088 26.2288C33.9837 26.2847 34.0736 26.3169 34.1669 26.3209L38.6265 26.3392Z" fill="#2E2E2E"/>
<path d="M37.0612 22.0839C37.7102 21.9179 38.1053 22.5421 38.009 23.0169C37.8522 23.7913 36.7383 24.0959 36.0751 24.11C35.5439 24.1208 34.2491 23.9805 33.7213 23.9191" stroke="black" stroke-width="0.3" stroke-miterlimit="10"/>
<path d="M33.5029 22.4673C34.3059 22.6994 35.1562 22.7134 35.9664 22.508C36.6478 22.3329 37.4529 22.01 37.8098 21.3618C38.0181 20.985 37.8521 20.384 37.4172 20.2512C36.9151 20.0993 36.4503 20.599 35.9954 20.7252C35.702 20.8051 35.4025 20.8606 35.0998 20.8912C35.0168 20.9003 34.9388 20.9069 34.8583 20.9136C34.4348 20.9475 34.009 20.9444 33.5859 20.9044C33.5409 20.9044 33.497 20.8903 33.4606 20.8639C33.4241 20.8375 33.3968 20.8004 33.3827 20.7576C33.3685 20.715 33.3681 20.6688 33.3817 20.6259C33.3953 20.583 33.422 20.5454 33.4581 20.5185L33.5345 20.4629" stroke="black" stroke-width="0.3" stroke-miterlimit="10"/>
<path d="M38.6265 26.3391C38.1551 27.57 37.8886 28.8557 37.5857 30.1704C37.0744 32.3774 34.894 35.1272 32.3434 34.1544C30.7847 33.5601 30.2377 31.842 30.0468 30.3273C29.748 27.9817 29.7729 25.5722 30.2128 23.2466C30.578 21.3309 31.2262 19.319 33.0904 18.377L33.9652 17.9395C34.1739 17.8341 34.4155 17.8145 34.6384 17.8849C34.8613 17.9554 35.0477 18.1103 35.1579 18.3164C35.2251 18.4445 35.2607 18.5868 35.2617 18.7314C35.2625 18.7525 35.2609 18.7737 35.2567 18.7944" stroke="black" stroke-width="0.3" stroke-miterlimit="10"/>
<path d="M56.3951 44.3437C56.8458 44.3297 57.2969 44.3411 57.7464 44.3777C58.1132 44.4076 58.4934 44.425 58.8428 44.5619C59.1308 44.6765 59.4313 44.9496 59.4163 45.2832C59.3889 45.9373 58.5324 45.9323 58.0626 45.9323" stroke="black" stroke-width="0.3" stroke-miterlimit="10"/>
<path opacity="0.54" d="M48.3342 43.7202L52.2402 33.7129C52.2886 33.5189 52.292 33.3165 52.2503 33.121C52.2086 32.9255 52.1229 32.7421 51.9997 32.5848C51.8764 32.4274 51.7189 32.3002 51.5391 32.2129C51.3592 32.1257 51.1618 32.0805 50.962 32.0811H35.4509C35.1033 32.0819 34.766 32.1996 34.4933 32.4151C34.2206 32.6307 34.0282 32.9316 33.947 33.2697L29.6658 43.2745C29.6195 43.4676 29.6174 43.6688 29.6599 43.8628C29.7024 44.0569 29.7884 44.2388 29.9114 44.3948C30.0343 44.5508 30.1911 44.677 30.3698 44.7637C30.5485 44.8503 30.7446 44.8954 30.9432 44.8955H46.8294C47.1754 44.8952 47.5113 44.7795 47.7839 44.5666C48.0566 44.3537 48.2502 44.0558 48.3342 43.7202Z" fill="white"/>
<path d="M48.3342 43.7202L52.2402 33.7129C52.2886 33.5189 52.292 33.3165 52.2503 33.121C52.2086 32.9255 52.1229 32.7421 51.9997 32.5848C51.8764 32.4274 51.7189 32.3002 51.5391 32.2129C51.3592 32.1257 51.1618 32.0805 50.962 32.0811H35.4509C35.1033 32.0819 34.766 32.1996 34.4933 32.4151C34.2206 32.6307 34.0282 32.9316 33.947 33.2697L29.6658 43.2745C29.6195 43.4676 29.6174 43.6688 29.6599 43.8628C29.7024 44.0569 29.7884 44.2388 29.9114 44.3948C30.0343 44.5508 30.1911 44.677 30.3698 44.7637C30.5485 44.8503 30.7446 44.8954 30.9432 44.8955H46.8294C47.1754 44.8952 47.5113 44.7795 47.7839 44.5666C48.0566 44.3537 48.2502 44.0558 48.3342 43.7202Z" fill="#3FBDF1"/>
<path d="M48.3342 43.7202L52.2402 33.7129C52.2886 33.5189 52.292 33.3165 52.2503 33.121C52.2086 32.9255 52.1229 32.7421 51.9997 32.5848C51.8764 32.4274 51.7189 32.3002 51.5391 32.2129C51.3592 32.1257 51.1618 32.0805 50.962 32.0811H35.4509C35.1033 32.0819 34.766 32.1996 34.4933 32.4151C34.2206 32.6307 34.0282 32.9316 33.947 33.2697L29.6658 43.2745C29.6195 43.4676 29.6174 43.6688 29.6599 43.8628C29.7024 44.0569 29.7884 44.2388 29.9114 44.3948C30.0343 44.5508 30.1911 44.677 30.3698 44.7637C30.5485 44.8503 30.7446 44.8954 30.9432 44.8955H46.8294C47.1754 44.8952 47.5113 44.7795 47.7839 44.5666C48.0566 44.3537 48.2502 44.0558 48.3342 43.7202Z" stroke="black" stroke-width="0.3" stroke-linecap="square" stroke-linejoin="round"/>
<path d="M47.7623 43.3152L51.3662 34.0831C51.4108 33.9044 51.4141 33.7179 51.376 33.5377C51.3377 33.3575 51.2589 33.1885 51.1455 33.0433C51.0321 32.8982 50.8872 32.7808 50.7216 32.7001C50.556 32.6193 50.3742 32.5774 50.1901 32.5775H35.8767C35.5554 32.5774 35.2433 32.6855 34.991 32.8844C34.7386 33.0834 34.5606 33.3614 34.4856 33.6739L30.544 42.9044C30.5015 43.0825 30.4999 43.2679 30.5393 43.4467C30.5786 43.6255 30.6581 43.7931 30.7715 43.9368C30.8848 44.0806 31.0293 44.1968 31.1941 44.2767C31.3588 44.3566 31.5395 44.3982 31.7226 44.3984H46.3745C46.6936 44.3986 47.0035 44.2921 47.255 44.0958C47.5065 43.8995 47.685 43.6247 47.7623 43.3152Z" fill="#3FBDF1"/>
<path d="M36.9092 34.2791C37.0993 33.9944 37.4072 33.8641 37.6031 33.9961C37.799 34.128 37.799 34.46 37.6097 34.7431C37.5799 34.7866 37.5466 34.8277 37.5101 34.8659L38.9162 37.8348C39.1403 37.6854 39.3868 37.6481 39.5644 37.7659C39.6213 37.8075 39.6685 37.8609 39.7026 37.9225C39.7367 37.9842 39.757 38.0525 39.7619 38.1228L40.7231 37.7991L41.563 37.5161L41.8369 37.4265C41.8716 37.3233 41.9196 37.2251 41.9797 37.1343C42.2461 36.7334 42.6819 36.5533 42.9533 36.7359C43.2247 36.9185 43.228 37.3791 42.9691 37.7767L44.571 39.9638C44.9204 39.6774 45.3312 39.5886 45.6159 39.7778C46.0035 40.036 46.0093 40.7091 45.6292 41.2801C45.6134 41.3034 45.596 41.3216 45.5802 41.3432L46.646 42.8007L46.6559 42.8148C46.7104 42.8971 46.73 42.9976 46.7104 43.0942C46.6908 43.1909 46.6336 43.2758 46.5513 43.3302C46.4691 43.3848 46.3687 43.4044 46.272 43.3847C46.1753 43.3651 46.0904 43.3079 46.0359 43.2257L45.0897 41.7972C44.7901 41.9707 44.4714 42.0039 44.2381 41.8487C43.8679 41.5997 43.8497 40.9789 44.18 40.4252L42.647 38.1112C42.4204 38.2648 42.1706 38.3038 41.9913 38.1851C41.8917 38.1144 41.8237 38.0074 41.8021 37.8871L41.6875 37.9186L40.8335 38.1519L39.7395 38.4474C39.7054 38.5784 39.6492 38.7027 39.5735 38.815C39.3071 39.2151 38.8713 39.396 38.5999 39.2134C38.3285 39.0308 38.3244 38.5619 38.5908 38.161C38.6299 38.1022 38.6737 38.0466 38.7219 37.995L37.3832 34.9705C37.2221 35.0809 37.0437 35.1091 36.9159 35.0236C36.7233 34.8958 36.72 34.5605 36.9092 34.2791Z" fill="#D7E8F0"/>
<path d="M47.0942 34.4382H49.1692C49.264 34.438 49.3568 34.4104 49.4362 34.3585C49.5156 34.3066 49.5783 34.2329 49.6165 34.146C49.6279 34.1198 49.6341 34.0917 49.6348 34.063C49.6346 34.0064 49.6119 33.9522 49.5718 33.9121C49.5316 33.8722 49.4773 33.8497 49.4207 33.8497H47.2154C47.3191 34.0232 47.2668 34.2664 47.0942 34.4382Z" fill="#D7E8F0"/>
<path d="M45.7529 34.2258C45.7532 34.2822 45.7758 34.3363 45.8157 34.376C45.8557 34.4159 45.9098 34.4383 45.9662 34.4383H47.0942C47.2669 34.2665 47.3191 34.0233 47.2154 33.8481H46.2194C46.1246 33.8481 46.0319 33.8756 45.9525 33.9273C45.873 33.979 45.8103 34.0527 45.772 34.1395C45.7598 34.1666 45.7533 34.196 45.7529 34.2258Z" fill="#3FBDF1"/>
<path d="M46.2717 34.4385C46.2777 34.4498 46.2846 34.4606 46.2924 34.4708C46.4402 34.6733 46.7614 34.6924 47.0104 34.5107C47.0399 34.4888 47.0676 34.4647 47.0934 34.4385C47.266 34.2666 47.3183 34.0235 47.2145 33.8483C47.2091 33.8369 47.2024 33.826 47.1946 33.816C47.0477 33.6126 46.7265 33.5952 46.4775 33.7753C46.448 33.7975 46.4203 33.8219 46.3945 33.8483C46.2219 34.021 46.1696 34.2625 46.2717 34.4385Z" fill="white"/>
<path d="M45.235 35.5282C45.2354 35.5847 45.2581 35.6387 45.2983 35.6785C45.3384 35.7183 45.3926 35.7406 45.4491 35.7406H47.6262C47.5208 35.5647 47.5731 35.3256 47.7457 35.1505H45.6981C45.6032 35.1506 45.5102 35.1782 45.4307 35.2301C45.3511 35.282 45.2883 35.3558 45.2499 35.4427C45.2395 35.47 45.2344 35.4989 45.235 35.5282Z" fill="#3FBDF1"/>
<path d="M47.6229 35.7406H48.6471C48.7418 35.7406 48.8344 35.7132 48.9138 35.6615C48.9932 35.61 49.0559 35.5365 49.0945 35.4501C49.1062 35.4239 49.1126 35.3957 49.1135 35.3671C49.1136 35.339 49.1082 35.3112 49.0975 35.2853C49.0868 35.2594 49.0711 35.2358 49.0513 35.216C49.0315 35.1962 49.0079 35.1805 48.982 35.1698C48.9561 35.1591 48.9283 35.1537 48.9002 35.1537H47.7424C47.5698 35.3231 47.5175 35.5646 47.6229 35.7406Z" fill="#D7E8F0"/>
<path d="M47.6229 35.7406C47.6277 35.7521 47.6338 35.763 47.6411 35.773C47.788 35.9764 48.1093 35.9946 48.3583 35.8137C48.3877 35.7914 48.4154 35.767 48.4413 35.7406C48.6122 35.568 48.6645 35.3256 48.5624 35.1505C48.5564 35.1393 48.5497 35.1285 48.5425 35.1181C48.3939 34.9156 48.0727 34.8974 47.8237 35.0791C47.7943 35.1007 47.7665 35.1245 47.7407 35.1505C47.5698 35.3232 47.5175 35.5647 47.6229 35.7406Z" fill="white"/>
<path d="M46.895 37.0338H48.1981C48.2929 37.0336 48.3857 37.006 48.4652 36.9543C48.5448 36.9027 48.6077 36.8291 48.6463 36.7424C48.6576 36.7162 48.6639 36.688 48.6645 36.6594C48.6645 36.6026 48.6419 36.548 48.6019 36.5077C48.5617 36.4674 48.5072 36.4446 48.4504 36.4445H47.0186C47.1215 36.6196 47.0684 36.8611 46.895 37.0338Z" fill="#3FBDF1"/>
<path d="M44.7852 36.8221C44.7852 36.8501 44.7909 36.8776 44.8017 36.9034C44.8125 36.9291 44.8281 36.9525 44.848 36.9722C44.8678 36.9918 44.8913 37.0074 44.9171 37.0179C44.9429 37.0285 44.9706 37.0339 44.9985 37.0338H46.895C47.066 36.8611 47.1191 36.6188 47.0162 36.4428H45.2516C45.1566 36.4427 45.0636 36.4704 44.9841 36.5225C44.9047 36.5745 44.8421 36.6487 44.8042 36.7358C44.792 36.7629 44.7855 36.7924 44.7852 36.8221Z" fill="#D7E8F0"/>
<path d="M46.0749 37.0337C46.081 37.0451 46.0879 37.0559 46.0957 37.0661C46.2426 37.2695 46.563 37.2869 46.8128 37.106C46.8423 37.084 46.8701 37.06 46.8958 37.0337C47.0668 36.8611 47.1199 36.6187 47.017 36.4428C47.0116 36.4313 47.0049 36.4205 46.9971 36.4104C46.8485 36.2087 46.5281 36.1913 46.2783 36.3714C46.249 36.3932 46.2213 36.4171 46.1953 36.4428C46.0243 36.6154 45.9712 36.8586 46.0749 37.0337Z" fill="white"/>
<path d="M38.4713 43.1324H39.7752C39.8699 43.1323 39.9627 43.1046 40.042 43.053C40.1214 43.0013 40.1841 42.9277 40.2226 42.8411C40.234 42.8149 40.2402 42.7866 40.2409 42.7581C40.2409 42.7013 40.2183 42.6469 40.1781 42.6067C40.138 42.5665 40.0835 42.5439 40.0267 42.5439H38.595C38.6954 42.7182 38.6423 42.9598 38.4713 43.1324Z" fill="#3FBDF1"/>
<path d="M33.2971 42.9208C33.2972 42.9487 33.3028 42.9763 33.3136 43.0021C33.3243 43.0278 33.3401 43.0511 33.3599 43.0708C33.3797 43.0905 33.4032 43.106 33.429 43.1166C33.4549 43.1272 33.4825 43.1326 33.5104 43.1325H38.4713C38.6423 42.9598 38.6954 42.7175 38.5925 42.5424H33.7636C33.6687 42.5423 33.5758 42.5698 33.4963 42.6217C33.4169 42.6737 33.3543 42.7475 33.3162 42.8345C33.3043 42.8617 33.2979 42.891 33.2971 42.9208Z" fill="#D7E8F0"/>
<path d="M37.6488 43.1326C37.6548 43.1439 37.6617 43.1548 37.6695 43.165C37.8164 43.3683 38.1368 43.3857 38.3867 43.2056C38.416 43.1832 38.4437 43.1588 38.4697 43.1326C38.6406 42.96 38.6938 42.7176 38.5908 42.5425C38.5854 42.5309 38.5787 42.5201 38.5709 42.5101C38.4223 42.3076 38.102 42.2901 37.8521 42.4703C37.8226 42.4921 37.7949 42.5162 37.7691 42.5425C37.599 42.7143 37.545 42.9575 37.6488 43.1326Z" fill="white"/>
<path d="M5.65892 46.329C5.65892 46.329 2.91992 58.7018 9.96578 61.2864C17.0117 63.871 36.0444 61.4433 28.1345 52.5158C20.2246 43.5883 5.65892 46.329 5.65892 46.329Z" fill="#2E2E2E"/>
<path d="M39.8466 18.841C40.8043 18.6412 41.7751 18.5117 42.7516 18.4534C42.7724 18.4534 42.7898 18.4534 42.8081 18.4534C43.4497 18.4111 44.5735 18.3928 45.2151 18.3862" stroke="black" stroke-width="0.3" stroke-miterlimit="10"/>
<path d="M35.0998 20.8888C35.0932 20.8929 35.089 20.8979 35.0824 20.9021" stroke="black" stroke-width="0.3" stroke-miterlimit="10"/>
<path d="M46.0193 15.6869C45.5296 15.9442 44.9669 15.7699 44.7511 15.3317" stroke="black" stroke-width="0.3" stroke-miterlimit="10"/>
<path d="M43.1766 9.43285C43.1545 9.81365 43.2522 10.1918 43.456 10.5142C43.6598 10.8366 43.9594 11.0871 44.3129 11.2306C44.3876 11.0934 44.4947 10.9766 44.6249 10.8903C45.1752 10.5343 45.0773 11.4854 46.5713 11.2348C48.6421 10.8853 49.17 11.6066 49.17 11.6066C49.2157 11.6697 49.087 12.0814 49.0688 12.1569C48.9858 12.5993 48.9028 13.0392 48.8272 13.4849C48.7785 13.7549 48.7293 14.0232 48.6795 14.29C48.7172 14.2535 48.7571 14.2194 48.799 14.1879C49.1393 13.6567 49.6381 13.0608 50.1818 13.5472C50.2909 13.6484 50.3746 13.7742 50.4258 13.914C50.6748 14.5905 50.1984 15.0254 49.6415 15.286C49.4945 15.3749 49.3384 15.4475 49.1758 15.5026C49.2032 15.6736 49.3169 16.355 49.3169 16.3567C49.3285 16.4264 50.7113 15.574 50.8267 15.4703C51.0352 15.1946 51.1959 14.886 51.3023 14.5573C51.7322 13.201 51.6592 11.4481 50.7935 10.3326C50.5785 10.0562 50.7221 9.89682 50.7844 9.6279C50.7874 9.61337 50.7859 9.59835 50.7803 9.58474C50.7747 9.57104 50.765 9.55942 50.7527 9.55129C50.7404 9.54315 50.7258 9.53892 50.7111 9.53909C50.6963 9.53934 50.6819 9.5439 50.6698 9.55237C50.2034 9.84536 49.3593 9.54573 49.3593 9.54573C46.6203 7.90064 45.2167 8.91825 44.5453 8.96971C44.2729 8.98838 44.0026 8.91144 43.7808 8.75225C43.7418 8.82927 43.6826 8.89418 43.6095 8.94008C43.5364 8.98597 43.4521 9.01112 43.3658 9.01287L43.3393 9.15563C43.3189 9.26411 43.2614 9.36213 43.1766 9.43285Z" fill="#3FBDF1"/>
<path d="M44.3145 11.234C43.9611 11.0906 43.6615 10.8401 43.4576 10.5176C43.2538 10.1952 43.1562 9.81701 43.1782 9.43621C43.1864 9.28996 43.2075 9.14471 43.2413 9.00212L43.2654 9.0071C43.2981 9.01448 43.3316 9.01697 43.365 9.01457C43.4513 9.01291 43.5356 8.98776 43.6087 8.94186C43.6818 8.89596 43.741 8.83097 43.78 8.75395C43.8029 8.71112 43.8188 8.66489 43.8273 8.617L43.9551 7.9223C43.9551 7.9223 44.3701 8.4842 45.0341 8.43191C45.6981 8.37962 47.1016 7.36205 49.8481 9.00793C49.8481 9.00793 50.5071 9.25112 50.9736 8.95813C50.9857 8.94974 51.0001 8.94509 51.0148 8.94493C51.0296 8.94476 51.0441 8.949 51.0564 8.95713C51.0688 8.96526 51.0784 8.97688 51.0841 8.9905C51.0897 9.00419 51.0911 9.01921 51.0881 9.03366C51.0259 9.30175 51.0674 9.51838 51.2824 9.79477C52.148 10.9103 52.2211 12.6632 51.7911 14.0195C51.6029 14.5815 51.2687 15.0834 50.8225 15.4736C50.7072 15.5774 49.3244 16.4298 49.3128 16.3601C49.3128 16.3601 49.1991 15.677 49.1717 15.506L49.165 15.467L49.204 15.4554C49.3519 15.4096 49.4967 15.3542 49.6373 15.2894C50.1942 15.0287 50.6731 14.5938 50.4216 13.9174C50.3704 13.7776 50.2868 13.6519 50.1776 13.5505C49.634 13.0641 49.1351 13.6601 48.7948 14.1913C48.729 14.2921 48.6751 14.4002 48.6338 14.5133C48.6471 14.4403 48.6604 14.3689 48.6745 14.2959C48.7243 14.0286 48.7735 13.7603 48.8222 13.4908C48.9052 13.0475 48.9824 12.6076 49.0638 12.1628C49.0787 12.0872 49.2107 11.6755 49.165 11.6125C49.165 11.6125 48.6371 10.8912 46.5663 11.2406C45.0723 11.4896 45.1702 10.5401 44.6199 10.8962C44.4897 10.9825 44.3827 11.0994 44.3079 11.2365C44.2847 11.2812 44.2642 11.3272 44.2464 11.3743C44.2435 11.3801 44.241 11.3863 44.239 11.3925C44.2016 11.4954 44.1676 11.5992 44.1344 11.7004C43.824 12.6873 43.619 13.753 43.7285 14.7897C43.8622 16.0463 44.7776 17.5237 46.2343 17.3984C46.6926 17.3447 47.1397 17.2192 47.559 17.0266" stroke="black" stroke-width="0.3" stroke-miterlimit="10"/>
<path d="M44.4735 13.9122C44.616 13.9081 44.7275 13.7652 44.7227 13.5929C44.7178 13.4206 44.5984 13.2842 44.4559 13.2883C44.3134 13.2923 44.2017 13.4352 44.2066 13.6075C44.2115 13.7798 44.331 13.9162 44.4735 13.9122Z" fill="black"/>
<path d="M46.4239 14.4364C46.5664 14.4324 46.6779 14.2894 46.6731 14.1172C46.6682 13.9449 46.5488 13.8085 46.4063 13.8125C46.2637 13.8166 46.1522 13.9595 46.157 14.1317C46.1619 14.3041 46.2813 14.4405 46.4239 14.4364Z" fill="black"/>
<path d="M45.5819 14.5514C45.5819 14.5514 44.8274 14.7174 44.9038 14.3306C44.927 14.2094 45.1163 13.0192 45.1163 13.0192C45.1163 13.0192 44.7643 12.3104 43.8439 12.4756" stroke="black" stroke-width="0.3" stroke-miterlimit="10"/>
<path d="M45.9206 12.9133C45.9206 12.9133 47.1166 12.7099 47.5748 13.6653" stroke="black" stroke-width="0.3" stroke-miterlimit="10"/>
<path d="M45.2283 18.376C44.2863 18.874 43.7833 20.0726 44.1775 20.9399C44.8349 22.3849 46.5655 22.8099 47.9955 22.3924C49.5858 21.9276 50.7545 20.4618 50.6847 18.7811" stroke="black" stroke-width="0.3" stroke-miterlimit="10"/>
<path d="M50.9321 45.9314C53.6636 39.5836 54.6555 28.3794 54.6555 28.3794V44.0116C54.6554 44.2638 54.7049 44.5135 54.8014 44.7464C54.8978 44.9794 55.0393 45.1911 55.2176 45.3694C55.3958 45.5476 55.6075 45.6891 55.8405 45.7855C56.0735 45.882 56.3231 45.9315 56.5753 45.9314H62.6343C62.8614 45.935 63.0819 45.8545 63.2533 45.7054C63.4247 45.5564 63.5351 45.3493 63.563 45.1238C63.5752 44.9997 63.5612 44.8743 63.522 44.7558C63.4828 44.6374 63.4191 44.5285 63.3352 44.4361C63.2513 44.3437 63.149 44.27 63.0348 44.2196C62.9207 44.1693 62.7972 44.1434 62.6725 44.1436H60.1908C60.0918 44.1433 59.9942 44.1204 59.9054 44.0766C59.8167 44.0329 59.7391 43.9695 59.6785 43.8912C59.618 43.8129 59.5761 43.7218 59.5561 43.6249C59.5362 43.5279 59.5386 43.4277 59.5633 43.3319C61.0573 37.4389 61.9811 30.5216 60.0364 24.4004C59.6347 23.1371 58.769 22.0117 57.7464 21.1418C56.5728 20.1392 55.1261 19.6794 53.6437 19.3391C52.666 19.115 51.6797 18.9295 50.6848 18.783C50.6818 18.784 50.6786 18.784 50.6756 18.783C50.669 18.783 50.6624 18.783 50.6582 18.783H50.6516H50.6424H50.6292" stroke="black" stroke-width="0.3" stroke-miterlimit="10"/>
<path d="M50.059 15.9625L49.9494 17.9454C49.9389 18.1392 49.9998 18.3301 50.1204 18.4821C50.2411 18.634 50.4132 18.7366 50.6043 18.7704H50.6292C50.6335 18.7693 50.6381 18.7693 50.6425 18.7704H50.6466H50.6582" stroke="black" stroke-width="0.3" stroke-miterlimit="10"/>
<path d="M50.6756 18.7796H50.6582H50.6516H50.6466H50.6425H50.6292H50.6043C50.4132 18.7458 50.2411 18.6432 50.1204 18.4912C49.9998 18.3392 49.9389 18.1483 49.9494 17.9546L50.059 15.9717" stroke="black" stroke-width="0.3" stroke-miterlimit="10"/>
<path d="M45.3852 17.2749C45.3313 17.2533 45.3852 19.4893 44.0514 20.4604" stroke="black" stroke-width="0.3" stroke-miterlimit="10"/>
<path d="M27.5278 45.932H23.2549" stroke="black" stroke-width="0.3" stroke-miterlimit="10"/>
<path d="M69.271 45.932H34.1802" stroke="black" stroke-width="0.3" stroke-miterlimit="10"/>
<path d="M15.1682 24.9388C15.2094 25.776 15.1794 26.6151 15.0786 27.4471C14.9491 28.4248 14.0452 29.6674 13.8494 30.6343C13.5697 32.0254 13.993 33.4629 14.574 34.7544C15.2761 36.3157 16.3825 37.886 16.2746 39.6738C16.2194 40.4525 15.9877 41.2083 15.5971 41.8842C15.2066 42.56 14.6673 43.1382 14.0203 43.5748C13.1342 44.1678 12.1218 44.5458 11.0639 44.6787C10.9161 44.6962 10.7659 44.7103 10.6157 44.7144C10.5327 44.7144 10.4497 44.7053 10.3667 44.6987C7.55299 44.4604 4.66708 42.3141 4.67372 39.3261C4.67372 37.4171 6.12455 35.9231 6.3694 34.0705C6.51963 32.9376 6.18764 31.7606 6.49474 30.6609C6.99274 28.9046 8.91751 27.9468 9.76079 26.3299C10.3816 25.1364 10.4829 23.7436 10.9742 22.492C11.6582 20.749 12.7504 18.757 14.2444 18.591C14.678 18.6401 15.097 18.7768 15.4762 18.9927C16.4024 19.4907 16.6382 19.5223 16.8266 19.9663C17.0191 20.4303 16.732 20.9258 16.2522 21.0744C15.4421 21.3308 15.0927 22.9767 15.1682 24.9388Z" fill="#3FBDF1"/>
<path d="M15.9825 19.2628C18.4144 18.5581 19.9598 19.5948 21.0654 20.79C22.171 21.9852 22.1195 23.3422 22.1195 23.3422" stroke="black" stroke-width="0.3" stroke-miterlimit="10"/>
<path d="M23.5255 42.6387C23.4888 44.5386 23.2481 46.4291 22.8076 48.2777" stroke="black" stroke-width="0.3" stroke-miterlimit="10"/>
<path d="M29.5687 58.1114C28.6781 59.6436 26.5658 60.7317 23.9812 61.409C19.3946 62.6109 13.3223 62.5171 9.96746 61.2854C2.91743 58.7016 5.65809 46.3288 5.65809 46.3288C5.65809 46.3288 17.8516 44.0338 25.9823 50.4788C26.759 51.0927 27.48 51.7741 28.137 52.5147C29.0359 53.5315 29.5878 54.4619 29.8484 55.3118C30.168 56.3709 30.0402 57.3038 29.5687 58.1114Z" stroke="black" stroke-width="0.3" stroke-miterlimit="10"/>
<path d="M24.895 61.2002C24.895 61.2002 20.623 73.0584 27.8 76.0871C34.977 79.1157 1.44417 79.5191 8.84612 76.0871C16.2481 72.655 11.9935 61.9248 11.9935 61.9248" stroke="black" stroke-width="0.3" stroke-miterlimit="10"/>
<path d="M33.5851 20.902C33.4963 20.6306 33.5328 19.6869 33.5619 19.154C33.5674 19.0534 33.612 18.9589 33.6861 18.8906C33.7601 18.8222 33.8579 18.7854 33.9586 18.788L42.4852 18.8627C42.629 18.864 42.7664 18.922 42.8676 19.0241C42.9688 19.1263 43.0255 19.2642 43.0255 19.408V25.8064C43.0255 25.8782 43.0114 25.9494 42.9838 26.0157C42.9562 26.082 42.9158 26.1423 42.8649 26.1929C42.8141 26.2436 42.7536 26.2837 42.6872 26.3109C42.6208 26.3382 42.5495 26.3521 42.4777 26.3518L34.1686 26.321C34.0483 26.3161 33.9345 26.2648 33.8511 26.1779C33.7676 26.0909 33.7212 25.975 33.7212 25.8546V25.3665C34.3122 25.6421 35.4294 25.7268 35.4294 25.7268C35.827 25.716 36.4553 25.6678 36.7997 25.4703C37.1151 25.2894 37.5135 25.0296 37.5675 24.6361C37.5883 24.484 37.548 24.3298 37.4555 24.2072C37.363 24.0846 37.2257 24.0037 37.0736 23.9821C36.9822 23.9638 36.8877 23.9705 36.7997 24.0012" stroke="black" stroke-width="0.3" stroke-miterlimit="10"/>
<path d="M41.9067 38.6333C41.9027 38.7474 41.8643 38.8577 41.7963 38.9495C41.6013 39.1894 41.2153 39.1421 40.953 39.0682C39.85 38.7545 39.1876 39.9497 38.771 40.7548C37.7185 42.7899 36.1399 44.6807 34.1703 45.9323C34.0425 46.0153 33.9122 46.0933 33.7802 46.1697C31.8554 47.2802 29.3613 47.0735 27.4996 45.9207L29.88 40.0733L30.1157 40.2617C31.5533 41.3963 33.3229 40.7597 34.5479 39.6401C34.888 39.3303 35.188 38.9792 35.441 38.5951C35.8627 37.9469 36.2237 37.2472 36.8006 36.7201C37.599 35.9906 38.7677 35.8478 39.7769 36.1566C40.7862 36.4653 41.998 37.458 41.9067 38.6333Z" fill="white"/>
<path d="M41.8967 38.219C41.8967 38.219 41.6261 36.7864 39.1868 37.9045" stroke="black" stroke-width="0.3" stroke-miterlimit="10"/>
<path d="M40.5396 36.4994C40.5396 36.4994 39.0191 36.013 38.1725 37.175" stroke="black" stroke-width="0.3" stroke-miterlimit="10"/>
<path d="M9.84544 44.7015C10.2514 44.7376 10.6601 44.7309 11.0647 44.6815C12.1224 44.5467 13.1342 44.168 14.0203 43.5751C14.6673 43.1384 15.2065 42.5603 15.5971 41.8844C15.9876 41.2086 16.2193 40.4528 16.2746 39.6741C16.3825 37.8855 15.2786 36.3151 14.574 34.7539C13.993 33.4616 13.5697 32.024 13.8502 30.6346C14.0452 29.6668 14.9475 28.4251 15.0778 27.4465C15.1791 26.6145 15.2096 25.7755 15.1691 24.9382C15.0935 22.9753 15.4421 21.3278 16.2522 21.0772C16.732 20.9286 17.02 20.4322 16.8266 19.9691C16.6415 19.5242 16.4033 19.4977 15.4762 18.9939C13.0592 17.6791 11.3785 20.1301 10.4505 22.4931C9.95832 23.7456 9.85872 25.1367 9.23705 26.3302C8.39377 27.9479 6.46484 28.9032 5.97182 30.6628C5.66389 31.7618 5.99589 32.9395 5.84649 34.0708C5.60247 35.9225 4.15412 37.4157 4.14997 39.3264C4.14333 42.3135 7.03256 44.4616 9.84544 44.7015Z" stroke="black" stroke-width="0.3" stroke-miterlimit="10"/>
<path d="M29.5687 58.1117C29.3604 59.5941 29.05 61.2947 28.708 62.9971C27.7386 67.8219 26.5052 72.6757 26.5052 72.6757" stroke="black" stroke-width="0.3" stroke-miterlimit="10"/>
<path d="M29.8451 55.3119C29.8493 55.131 29.8518 54.965 29.8451 54.8073C29.7713 51.4043 27.3244 50.5909 26.272 50.3959C26.1149 50.3651 25.9561 50.3449 25.7964 50.3353" stroke="black" stroke-width="0.3" stroke-miterlimit="10"/>
<path d="M26.8704 71.2041C27.0059 71.1212 27.161 71.0758 27.3198 71.0728C27.4786 71.0697 27.6354 71.1091 27.7739 71.1868C27.9124 71.2645 28.0277 71.3778 28.1079 71.5149C28.1881 71.6521 28.2302 71.8081 28.23 71.9669C28.23 71.9785 28.23 71.9926 28.23 72.0092C28.2167 72.4191 28.1087 72.8203 27.9145 73.1815C27.7202 73.5426 27.445 73.8539 27.1103 74.0908L25.9566 74.9117" stroke="black" stroke-width="0.3" stroke-miterlimit="10"/>
<path d="M13.7647 31.7317C13.9257 31.6661 14.0901 31.608 14.2561 31.554C14.6055 30.9083 14.5515 29.4948 14.5183 28.981L14.8678 28.1934C15.8322 28.786 17.1088 28.5635 18.2932 28.151C18.4595 28.0929 18.6213 28.0225 18.7771 27.9402C19.5291 27.5949 20.5832 26.7782 20.1101 26.3566C19.637 25.9349 19.6702 25.1232 19.9731 24.6252C20.0652 24.4725 20.2287 24.3222 20.3989 24.3696C20.5134 24.4011 20.5873 24.5082 20.6529 24.6069C20.7359 24.7306 20.8189 24.8493 20.9019 24.9705C20.9309 25.0111 20.9782 25.0535 21.0231 25.0352C21.0421 25.0228 21.0568 25.0048 21.0654 24.9838C21.2115 24.6833 21.1841 24.2525 21.209 23.923C21.238 23.5304 21.2604 23.1353 21.2721 22.7411C21.2787 22.5236 21.3235 22.2904 21.5567 22.214C21.6038 22.196 21.6544 22.1887 21.7047 22.193C21.755 22.1974 21.8036 22.2131 21.8469 22.2389C21.8902 22.2649 21.927 22.3004 21.9545 22.3426C21.982 22.3849 21.9996 22.4329 22.0058 22.483C22.1755 23.4369 22.2004 24.4109 22.0796 25.3722C21.9651 26.379 21.7584 27.4472 21.1127 28.2589C20.7448 28.7272 20.2519 29.0817 19.6909 29.2815C19.1481 29.4699 19.1655 30.1248 19.1655 30.6991V31.6528C20.8346 31.9914 22.4025 32.3998 23.699 33.5618C24.5564 34.3457 25.3631 35.1831 26.1143 36.0692C28.4789 38.8439 28.9902 39.3643 30.129 40.2616C31.5665 41.3962 33.3369 40.7596 34.5612 39.6399C34.9007 39.3301 35.2001 38.979 35.4526 38.5949C35.8743 37.9467 36.2353 37.247 36.8113 36.72C37.6106 35.9904 38.7792 35.8476 39.7885 36.1564C40.7978 36.4651 42.0113 37.4578 41.915 38.6331C41.9109 38.7472 41.8727 38.8573 41.8054 38.9493C41.6104 39.1892 41.2244 39.1419 40.9621 39.068C39.8582 38.7543 39.1967 39.9495 38.7792 40.7546C37.7276 42.7897 36.1481 44.6805 34.1786 45.9321C34.0507 46.0151 33.9213 46.0931 33.7885 46.1695C31.5881 47.4394 28.6383 46.9862 26.7459 45.3686L22.1809 41.4933" stroke="black" stroke-width="0.3" stroke-miterlimit="10"/>
<path d="M14.256 31.5542C14.256 31.5542 16.4365 30.8802 19.1655 31.6554" stroke="black" stroke-width="0.3" stroke-miterlimit="10"/>
<path d="M33.7213 25.3665C33.7213 25.3665 33.7379 28.1885 34.411 29.275" stroke="black" stroke-width="0.3" stroke-miterlimit="10"/>
<path d="M35.9332 12.45C35.4153 13.3339 35.4393 13.9614 35.5738 14.9798C35.5849 15.0666 35.5713 15.1546 35.5345 15.234C35.4977 15.3133 35.4393 15.3806 35.3658 15.4282C35.2924 15.4758 35.2071 15.5016 35.1196 15.5027C35.0322 15.5038 34.9462 15.4802 34.8716 15.4347C31.8836 13.7149 29.0874 15.0753 25.52 14.2328C24.2103 13.9249 22.5777 13.2883 21.458 12.2632C21.0866 11.7115 20.8883 11.0616 20.8886 10.3966C20.8886 7.60858 24.6975 5.34766 29.3936 5.34766C32.404 5.34766 35.0484 6.27643 36.5607 7.67581C36.5607 7.67581 36.5607 7.67581 36.5648 7.68079C36.9442 8.22627 37.1513 8.87311 37.1591 9.53752C37.1591 10.541 36.4154 11.62 35.9332 12.45Z" fill="#D7E8F0"/>
<path d="M37.1458 9.53926V9.60981C37.1284 10.5867 36.6395 11.4947 36.0593 12.2808C35.6709 12.807 35.2102 13.3905 35.3198 14.0354C35.3679 14.3192 35.5265 14.5774 35.5688 14.8654C35.6111 15.1534 35.4568 15.5061 35.1687 15.5211C34.9861 15.5302 34.8301 15.3999 34.6857 15.2878C33.8283 14.6238 32.7144 14.3748 31.6313 14.3317C30.5481 14.2885 29.4666 14.4305 28.3827 14.4612C26.8206 14.506 25.2336 14.3109 23.7903 13.7142C22.493 13.173 21.3102 12.2932 20.5317 11.1221C19.7673 9.96754 20.2196 8.29259 21.0347 7.28912C21.7999 6.3479 22.9072 5.74532 24.0434 5.32119C27.0987 4.17994 30.5863 4.20733 33.6 5.45648C34.4948 5.82334 35.358 6.30806 36.0303 7.00692C36.686 7.68835 37.14 8.59638 37.1458 9.53926Z" stroke="black" stroke-width="0.3" stroke-miterlimit="10"/>
<path d="M24.6078 10.6498C25.256 10.6498 25.7814 10.1244 25.7814 9.47617C25.7814 8.82802 25.256 8.30255 24.6078 8.30255C23.9597 8.30255 23.4342 8.82802 23.4342 9.47617C23.4342 10.1244 23.9597 10.6498 24.6078 10.6498Z" fill="white"/>
<path d="M28.4026 10.6498C29.0507 10.6498 29.5762 10.1244 29.5762 9.47617C29.5762 8.82802 29.0507 8.30255 28.4026 8.30255C27.7544 8.30255 27.2289 8.82802 27.2289 9.47617C27.2289 10.1244 27.7544 10.6498 28.4026 10.6498Z" fill="white"/>
<path d="M32.2712 10.6498C32.9194 10.6498 33.4448 10.1244 33.4448 9.47617C33.4448 8.82802 32.9194 8.30255 32.2712 8.30255C31.6231 8.30255 31.0976 8.82802 31.0976 9.47617C31.0976 10.1244 31.6231 10.6498 32.2712 10.6498Z" fill="white"/>
<g opacity="0.54">
<path opacity="0.54" d="M54.8232 58.6812L54.3459 65.5702C54.1277 65.986 53.855 66.371 53.535 66.7147C53.5001 66.7023 53.4653 66.689 53.4312 66.6732C53.3673 66.6517 53.3043 66.6259 53.2445 66.601C52.2775 66.1769 51.543 65.3867 51.3289 64.4912C51.1355 63.7068 51.3098 62.8594 50.9363 62.1224C50.4806 61.2143 49.2414 60.645 49.0895 59.6207C48.9468 58.6621 49.81 57.7831 49.6705 56.8436C49.5045 55.7812 48.2056 55.1512 47.9624 54.1137C47.8105 53.4688 47.9466 52.7284 47.8893 52.0644C47.8262 51.3217 47.7015 50.5854 47.5167 49.8633C49.4398 49.7238 51.3969 50.7837 52.0202 52.3018C52.529 53.5468 52.2228 54.9968 53.0162 56.1289C53.4495 56.7423 54.1708 57.2013 54.5443 57.8429C54.6595 58.0431 54.7435 58.2597 54.7933 58.4853C54.7933 58.5011 54.7933 58.5168 54.7991 58.5293C54.7991 58.555 54.8057 58.5733 54.809 58.5924C54.8173 58.6496 54.8232 58.6812 54.8232 58.6812Z" fill="#3FBDF1"/>
<path opacity="0.54" d="M54.8265 58.6752C54.8265 58.6752 54.8207 58.647 54.814 58.5922C54.8197 58.6141 54.8238 58.6362 54.8265 58.6586C54.8276 58.6612 54.8283 58.664 54.8283 58.6669C54.8283 58.6697 54.8276 58.6726 54.8265 58.6752Z" fill="#3FBDF1"/>
</g>
<path d="M61.1801 55.9869C60.9311 56.8816 59.5674 57.4253 59.4031 58.3424C59.2578 59.1558 60.1559 59.9144 60.0073 60.7403C59.8488 61.6259 58.5581 62.1156 58.0842 62.8983C57.6983 63.5341 57.8784 64.2653 57.6792 64.9417C57.4484 65.7103 56.6832 66.3967 55.6739 66.7603C55.6108 66.7827 55.5511 66.8043 55.4872 66.8233C55.4523 66.8333 55.4141 66.8458 55.3792 66.8549C55.0472 66.5802 54.6613 66.0963 54.3484 65.5742L54.8232 58.681C55.1933 58.3673 55.6166 58.0801 55.9113 57.7315C56.2308 57.3555 56.3794 56.9447 56.474 56.5139H56.484V56.4666C56.6226 55.7868 56.635 55.0747 56.9546 54.4298C57.6028 53.1176 59.6372 52.2029 61.6391 52.3232C61.4502 52.9431 61.321 53.5795 61.2532 54.2239C61.1959 54.7942 61.337 55.4333 61.1801 55.9869Z" fill="#3FBDF1"/>
<path d="M56.4873 56.4608V56.5081H56.4774L56.4873 56.4608Z" fill="#3FBDF1"/>
<path d="M56.4873 56.4607L56.4774 56.508C56.3827 56.9388 56.2342 57.3497 55.9146 57.7256C55.62 58.0742 55.1967 58.3614 54.8265 58.6752C54.828 58.6708 54.828 58.6662 54.8265 58.6619C54.8239 58.6395 54.8197 58.6173 54.814 58.5955C54.814 58.5764 54.8074 58.5581 54.8041 58.5324C54.8041 58.52 54.8041 58.5042 54.7983 58.4884C54.7485 58.2628 54.6645 58.0462 54.5493 57.846C54.1758 57.2044 53.4545 56.7454 53.0212 56.132C53.0212 56.132 53.2171 52.8992 54.8713 51.9156C56.44 50.986 56.4873 55.9229 56.4873 56.4607Z" fill="#3FBDF1"/>
<path d="M56.4873 56.4608V56.5081H56.4774L56.4873 56.4608Z" fill="#3FBDF1"/>
<path d="M54.8231 58.6619V58.681C54.8231 58.681 54.8173 58.6528 54.8107 58.598C54.8162 58.619 54.8204 58.6404 54.8231 58.6619Z" fill="#3FBDF1"/>
<path d="M54.6754 58.6809C55.0439 58.3672 55.4722 58.0758 55.7677 57.7281C56.5977 56.7495 56.2773 55.4987 56.8093 54.4255C57.4567 53.1149 59.4927 52.2011 61.4938 52.3206C61.3038 52.9402 61.1743 53.5767 61.1071 54.2213C61.0473 54.7957 61.1901 55.4339 61.0332 55.99C60.7784 56.8848 59.4197 57.4276 59.2545 58.3448C59.1076 59.1573 60.0081 59.9159 59.8596 60.741C59.701 61.6274 58.4112 62.1171 57.9365 62.899C57.5488 63.5356 57.7306 64.2651 57.5298 64.9432C57.2866 65.7608 56.44 66.4829 55.3369 66.824C55.302 66.8357 55.2639 66.8481 55.2282 66.8572C54.8962 66.5825 54.5102 66.0986 54.1965 65.5757" stroke="black" stroke-width="0.3" stroke-miterlimit="10"/>
<path d="M60.2721 53.3472C57.2882 56.5585 55.8847 63.3288 55.3386 66.8248C55.2938 67.1194 55.2556 67.3892 55.2191 67.6324" stroke="black" stroke-width="0.3" stroke-miterlimit="10"/>
<path d="M60.5476 69.6012L59.179 77.7012C59.1464 77.923 59.0364 78.1262 58.8684 78.2746C58.7003 78.4231 58.4852 78.5072 58.261 78.5121H51.0832C50.8567 78.507 50.6397 78.4211 50.471 78.2699C50.3024 78.1188 50.1933 77.9124 50.1635 77.6879L48.8978 69.6004L60.5476 69.6012Z" stroke="black" stroke-width="0.3" stroke-miterlimit="10"/>
<path d="M61.8516 68.6968C61.8393 68.937 61.7367 69.1637 61.5643 69.3314C61.3919 69.4992 61.1625 69.5956 60.922 69.6015H48.5458C48.308 69.5957 48.081 69.5013 47.9092 69.3366C47.7375 69.1719 47.6336 68.9491 47.6179 68.7117C47.5656 68.1307 47.9955 67.6327 48.5458 67.6327H60.922C61.4673 67.6335 61.8956 68.1241 61.8516 68.6968Z" stroke="black" stroke-width="0.3" stroke-miterlimit="10"/>
<path d="M53.3881 66.7129C53.9193 66.1859 54.57 65.0106 54.858 64.0511C55.0954 63.2601 54.6779 62.4459 54.5816 61.6341C54.4322 60.3634 55.063 58.9972 54.3982 57.8452C54.0272 57.2028 53.3059 56.7463 52.8727 56.1312C52.075 54.9983 52.3813 53.5491 51.8717 52.3066C51.2483 50.7869 49.292 49.727 47.3698 49.8681C47.5534 50.5904 47.6781 51.3266 47.7424 52.0692C47.7997 52.7332 47.6594 53.4736 47.8138 54.1177C48.057 55.1552 49.3618 55.7835 49.5219 56.8467C49.663 57.7863 48.799 58.6661 48.9409 59.623C49.0937 60.6489 50.3312 61.2158 50.7885 62.1255C51.1604 62.8634 50.9861 63.71 51.1786 64.4935C51.4202 65.4729 52.2759 66.3336 53.3881 66.7129Z" stroke="black" stroke-width="0.3" stroke-miterlimit="10"/>
<path d="M48.5433 51.0583C51.4077 54.78 52.7556 62.6227 53.286 66.6714C53.3308 67.0225 53.369 67.3445 53.403 67.6326" stroke="black" stroke-width="0.3" stroke-miterlimit="10"/>
<path d="M52.871 56.1312C52.871 56.1312 53.0677 52.8983 54.721 51.9156C56.3744 50.9329 56.3395 56.4399 56.3395 56.4399" stroke="black" stroke-width="0.3" stroke-miterlimit="10"/>
<path d="M54.6754 58.6809C54.6754 58.6809 54.3376 56.8317 54.9302 55.0131" stroke="black" stroke-width="0.3" stroke-miterlimit="10"/>
</svg>
