<svg width="20" height="20" viewBox="0 0 20 20" fill="none" xmlns="http://www.w3.org/2000/svg">
<path d="M8.00492 2.0002C6.41264 2.0002 4.88558 2.63277 3.75967 3.75874C2.63376 4.88471 2.00123 6.41186 2.00123 8.00423C2.00123 9.5966 2.63376 11.1237 3.75967 12.2497C4.88558 13.3757 6.41264 14.0083 8.00492 14.0083C9.5972 14.0083 11.1243 13.3757 12.2502 12.2497C13.3761 11.1237 14.0086 9.5966 14.0086 8.00423C14.0086 6.41186 13.3761 4.88471 12.2502 3.75874C11.1243 2.63277 9.5972 2.0002 8.00492 2.0002ZM4.94466e-08 8.00423C0.000182438 6.73024 0.304405 5.47468 0.887385 4.34191C1.47036 3.20915 2.31526 2.23188 3.35186 1.49134C4.38846 0.750801 5.58683 0.26837 6.84736 0.0841427C8.10789 -0.100084 9.39419 0.0192137 10.5994 0.432122C11.8045 0.84503 12.8937 1.53962 13.7765 2.45817C14.6592 3.37673 15.31 4.49271 15.6747 5.71337C16.0395 6.93403 16.1076 8.22412 15.8735 9.47643C15.6394 10.7287 15.1099 11.9071 14.3288 12.9135L19.7191 18.3041C19.9014 18.4929 20.0022 18.7456 20 19.008C19.9977 19.2704 19.8924 19.5214 19.7069 19.7069C19.5214 19.8924 19.2704 19.9977 19.0081 20C18.7457 20.0022 18.493 19.9014 18.3042 19.7191L12.9139 14.3285C11.7307 15.2472 10.3134 15.8154 8.82319 15.9686C7.33301 16.1217 5.82977 15.8536 4.4844 15.1947C3.13903 14.5359 2.00552 13.5127 1.21277 12.2416C0.420017 10.9704 -0.000166423 9.50234 4.94466e-08 8.00423V8.00423Z" fill="white"/>
</svg>
